<?xml version="1.0" encoding="UTF-8"?>
<svg version="1.1" xmlns="http://www.w3.org/2000/svg" width="512" height="512">
<path d="M0 0 C1.84790182 -0.00967334 1.84790182 -0.00967334 3.73313498 -0.0195421 C5.09204 -0.01660011 6.45094461 -0.0134647 7.80984879 -0.01015663 C9.25983232 -0.01389444 10.70981385 -0.01849649 12.15979218 -0.02388728 C16.14030709 -0.03611666 20.12073794 -0.03585688 24.10126734 -0.03349853 C28.39588496 -0.03309034 32.69047565 -0.0441297 36.98508072 -0.05361366 C45.3978004 -0.07022453 53.81049205 -0.07572326 62.22322676 -0.07683842 C69.06224734 -0.07778889 75.90125868 -0.08189917 82.74027634 -0.08823967 C102.13298551 -0.10585267 121.52567254 -0.1150785 140.91838977 -0.11357872 C142.48649395 -0.11345885 142.48649395 -0.11345885 144.08627701 -0.11333656 C145.65629744 -0.11321392 145.65629744 -0.11321392 147.25803545 -0.1130888 C164.21910194 -0.11227599 181.18007961 -0.13141238 198.1411204 -0.1596133 C215.55937612 -0.18834572 232.97758852 -0.20215338 250.39586854 -0.20042574 C260.1737698 -0.19976194 269.95157795 -0.20524979 279.72945786 -0.22678185 C288.05506777 -0.24499839 296.38054239 -0.24933712 304.70616361 -0.235763 C308.95249765 -0.22923561 313.19857214 -0.22910775 317.44488144 -0.2464695 C321.33614664 -0.26221567 325.22694684 -0.25932112 329.11820081 -0.24190123 C330.52196069 -0.2388347 331.9257554 -0.24245069 333.32947418 -0.25362138 C344.06396924 -0.33335237 353.17678035 1.00371151 361.2610817 8.55414391 C366.96299625 14.89606928 370.04782546 21.8593434 370.03284073 30.44559288 C370.03696472 32.27542213 370.03696472 32.27542213 370.04117203 34.14221764 C370.03409525 35.48053651 370.02682565 36.81885437 370.01938248 38.15717125 C370.01881789 39.57675735 370.01913585 40.99634403 370.02026749 42.41592979 C370.02084014 46.25847866 370.00910002 50.10090207 369.99511957 53.94342184 C369.98259762 57.96328371 369.98144056 61.9831486 369.97906876 66.00302696 C369.97285829 73.61020459 369.95645334 81.21732457 369.93636978 88.82447684 C369.91399729 97.48707908 369.90301395 106.14968412 369.89297891 114.81230807 C369.87208673 132.62732767 369.83691918 150.44229365 369.7923317 168.25726891 C371.05617691 168.24357262 372.32002213 168.22987633 373.62216568 168.215765 C381.17150565 168.13395281 387.79181225 171.44605263 393.2610817 176.55414391 C399.35093203 183.32754887 402.05138181 190.42798533 402.01938248 199.54779625 C402.01967453 200.25092949 402.01996658 200.95406273 402.02026749 201.67850304 C402.01888331 203.98353332 402.00336567 206.28823316 401.9876442 208.59320641 C401.98391081 210.19888698 401.98106538 211.80456985 401.97906876 213.41025352 C401.97145791 217.6221408 401.95183149 221.83388861 401.9296608 226.04572105 C401.9091473 230.34929074 401.9000553 234.6528831 401.88998795 238.95648766 C401.86858303 247.39014517 401.83447809 255.82368966 401.7923317 264.25726891 C402.61217545 264.21086266 403.4320192 264.16445641 404.2767067 264.11664391 C405.35436295 264.08055016 406.4320192 264.04445641 407.5423317 264.00726891 C408.60967545 263.96086266 409.6770192 263.91445641 410.7767067 263.86664391 C413.7923317 264.25726891 413.7923317 264.25726891 416.15060806 266.01898766 C417.90789522 268.41482507 418.29645316 269.40359034 418.30990982 272.31976891 C418.32882278 273.50119469 418.32882278 273.50119469 418.34811783 274.70648766 C418.33597244 275.96912437 418.33597244 275.96912437 418.3235817 277.25726891 C418.3274086 278.12996422 418.3312355 279.00265953 418.33517838 279.90180016 C418.3378966 281.74425983 418.33054164 283.58675815 418.31381607 285.42914391 C418.29240417 288.24772824 418.31361971 291.06376375 418.3392067 293.88226891 C418.3365634 295.67394119 418.33143839 297.4656119 418.3235817 299.25726891 C418.33167862 300.09902672 418.33977554 300.94078453 418.34811783 301.80805016 C418.2888867 305.50800884 418.1866706 307.64583261 416.14975357 310.80414391 C413.09189894 312.68901867 411.10842102 312.66231627 407.5423317 312.50726891 C406.46467545 312.47117516 405.3870192 312.43508141 404.2767067 312.39789391 C403.45686295 312.35148766 402.6370192 312.30508141 401.7923317 312.25726891 C401.82375259 313.86166832 401.82375259 313.86166832 401.85580826 315.49847984 C401.92827795 319.47165063 401.97415633 323.44476316 402.01205826 327.41840172 C402.03215797 329.1372517 402.05944258 330.85603343 402.09408951 332.57465172 C402.14268203 335.0471538 402.16531604 337.51875101 402.1829567 339.99164391 C402.20360184 340.75845482 402.22424698 341.52526573 402.24551773 342.31531334 C402.24692708 345.67604772 402.03499291 347.87374655 400.22104263 350.74066734 C396.88581171 352.8233427 394.4620494 352.77485455 390.5423317 352.78851891 C389.84720474 352.79234581 389.15207779 352.79617271 388.43588638 352.80011559 C386.97005129 352.8028307 385.50416742 352.79549726 384.03842545 352.77875328 C381.79904195 352.75733309 379.56286583 352.77856333 377.3235817 352.80414391 C375.89649131 352.80150055 374.46940291 352.79637541 373.0423317 352.78851891 C371.74811295 352.78400719 370.4538942 352.77949547 369.1204567 352.77484703 C365.7923317 352.25726891 365.7923317 352.25726891 363.44345474 350.61371422 C361.43870225 347.752577 360.82053469 345.44442408 360.12436295 342.02289391 C359.87106216 340.80859703 359.61776138 339.59430016 359.35678482 338.34320641 C359.10864029 337.07734703 358.86049576 335.81148766 358.6048317 334.50726891 C358.3450856 333.25687828 358.08533951 332.00648766 357.81772232 330.71820641 C356.5557327 324.54847937 355.57561885 318.52356618 354.7923317 312.25726891 C232.6923317 312.25726891 110.5923317 312.25726891 -15.2076683 312.25726891 C-15.8676683 316.54726891 -16.5276683 320.83726891 -17.2076683 325.25726891 C-17.96006016 329.29305786 -18.73952269 333.30415449 -19.5826683 337.31976891 C-19.7786058 338.32459312 -19.9745433 339.32941734 -20.1764183 340.36469078 C-20.38009018 341.33084312 -20.58376205 342.29699547 -20.7936058 343.29242516 C-20.9694017 344.15231041 -21.1451976 345.01219566 -21.32632065 345.89813805 C-22.46905205 348.95692297 -23.55975756 350.32806117 -26.2076683 352.25726891 C-29.5357933 352.77484703 -29.5357933 352.77484703 -33.4576683 352.78851891 C-34.15279526 352.79234581 -34.84792221 352.79617271 -35.56411362 352.80011559 C-37.02994871 352.8028307 -38.49583258 352.79549726 -39.96157455 352.77875328 C-42.20095805 352.75733309 -44.43713417 352.77856333 -46.6764183 352.80414391 C-48.10350869 352.80150055 -49.53059709 352.79637541 -50.9576683 352.78851891 C-52.25188705 352.78400719 -53.5461058 352.77949547 -54.8795433 352.77484703 C-58.2076683 352.25726891 -58.2076683 352.25726891 -60.63637924 350.74066734 C-62.85782068 347.22971297 -62.70648165 344.01002303 -62.5982933 339.99164391 C-62.58980362 338.80154716 -62.58980362 338.80154716 -62.58114243 337.58740807 C-62.55879977 335.06007417 -62.50861006 332.53417225 -62.4576683 330.00726891 C-62.43760045 328.29114359 -62.41935017 326.57499599 -62.4029808 324.85883141 C-62.35894226 320.6577611 -62.28993157 316.45775756 -62.2076683 312.25726891 C-63.02751205 312.30367516 -63.8473558 312.35008141 -64.6920433 312.39789391 C-65.76969955 312.43398766 -66.8473558 312.47008141 -67.9576683 312.50726891 C-69.02501205 312.55367516 -70.0923558 312.60008141 -71.1920433 312.64789391 C-74.2076683 312.25726891 -74.2076683 312.25726891 -76.56509018 310.80414391 C-79.00164101 307.02618638 -78.78133619 303.66704036 -78.7389183 299.25726891 C-78.74274521 298.38457359 -78.74657211 297.51187828 -78.75051498 296.61273766 C-78.75323321 294.77027798 -78.74587825 292.92777967 -78.72915268 291.08539391 C-78.70774078 288.26680957 -78.72895632 285.45077406 -78.7545433 282.63226891 C-78.75190001 280.84059662 -78.746775 279.04892592 -78.7389183 277.25726891 C-78.75106369 275.99463219 -78.75106369 275.99463219 -78.76345444 274.70648766 C-78.75084579 273.91887047 -78.73823715 273.13125328 -78.72524643 272.31976891 C-78.72206406 271.63012047 -78.71888168 270.94047203 -78.71560287 270.22992516 C-77.94963747 267.25515923 -76.64870348 266.08081151 -74.2076683 264.25726891 C-71.1920433 263.86664391 -71.1920433 263.86664391 -67.9576683 264.00726891 C-66.88001205 264.04336266 -65.8023558 264.07945641 -64.6920433 264.11664391 C-63.87219955 264.16305016 -63.0523558 264.20945641 -62.2076683 264.25726891 C-62.21655075 263.37745354 -62.2254332 262.49763817 -62.23458481 261.59116173 C-62.31501791 253.26499321 -62.37577793 244.9389568 -62.41491699 236.61248779 C-62.43571589 232.33261614 -62.463891 228.05306781 -62.50942612 223.77338219 C-62.55316098 219.6366048 -62.57686318 215.50013673 -62.58717728 211.36314583 C-62.59451942 209.79160639 -62.60885596 208.22008224 -62.63058853 206.64867592 C-62.78083024 195.32610564 -62.01072659 185.46117475 -53.9107933 176.78851891 C-46.72232036 170.32548818 -39.70151977 168.15026853 -30.2076683 168.25726891 C-30.21135548 167.52434938 -30.21504265 166.79142986 -30.21884155 166.03630066 C-30.30731278 148.17410499 -30.37343628 130.31195325 -30.41491699 112.44958496 C-30.43551175 103.8113434 -30.46357304 95.1732484 -30.50942612 86.53510094 C-30.54938872 79.00303272 -30.57512354 71.47107069 -30.58402228 63.9388994 C-30.58922115 59.95339326 -30.60137529 55.96819083 -30.63058853 51.98278236 C-30.657907 48.22512726 -30.66608051 44.46789856 -30.66009903 40.71015358 C-30.66170984 38.68667958 -30.6831461 36.66325113 -30.70534897 34.6398983 C-30.66044522 24.6330243 -28.898938 16.27077484 -21.9107933 8.78851891 C-15.56040489 3.07899537 -8.59384186 0.01140496 0 0 Z M-10.1451683 22.00726891 C-14.90974575 29.51508792 -14.48465425 36.87970431 -14.43471909 45.53632164 C-14.43415426 46.87723851 -14.43447293 48.21815599 -14.4356041 49.55907249 C-14.43617581 53.18256416 -14.42445106 56.80592229 -14.41045618 60.42938304 C-14.39791843 64.22235158 -14.39677593 68.01532349 -14.39440536 71.80830956 C-14.38819952 78.9833808 -14.37180087 86.15839079 -14.35170639 93.33343512 C-14.32931945 101.5051383 -14.31834694 109.67684447 -14.30831552 117.8485707 C-14.28743382 134.65150692 -14.25187048 151.45437767 -14.2076683 168.25726891 C-8.9276683 168.25726891 -3.6476683 168.25726891 1.7923317 168.25726891 C1.8016774 167.09791832 1.8110231 165.93856773 1.82065201 164.74408531 C1.86082804 160.40126093 1.92666076 156.05912456 1.99985123 151.71674156 C2.02790186 149.84508737 2.04919471 147.97331821 2.06332779 146.10150719 C2.23886033 124.15993982 2.23886033 124.15993982 9.0423317 114.94476891 C17.21555052 106.95730506 25.4252851 104.95671695 36.59604263 104.96674156 C37.67325577 104.96002434 38.7504689 104.95330711 39.86032486 104.94638634 C43.41583262 104.92741385 46.97115149 104.92348232 50.5267067 104.92133141 C53.00524345 104.91490241 55.48377944 104.90817398 57.96231461 104.90115929 C63.15729913 104.88918798 68.35221717 104.88547827 73.54721451 104.88666344 C80.18929303 104.88686648 86.83093219 104.85957779 93.47293091 104.82511902 C98.59290889 104.80283057 103.71278411 104.79882652 108.83280563 104.79988289 C111.28071187 104.79752936 113.72862105 104.78871993 116.17647934 104.77321815 C119.60830143 104.753522 123.03920429 104.75941157 126.47104263 104.77142906 C127.47294632 104.76019005 128.47485001 104.74895103 129.50711441 104.73737144 C137.45458275 104.80773965 144.67081394 106.64951702 151.1048317 111.50726891 C158.58040619 119.15669397 161.06246492 127.07708324 161.2063942 137.59320641 C161.23544342 138.91223457 161.23544342 138.91223457 161.2650795 140.25790977 C161.32455984 143.04926608 161.37113379 145.84066434 161.4173317 148.63226891 C161.45554054 150.53202585 161.49459395 152.43176601 161.5345192 154.33148766 C161.63023526 158.9732774 161.71438209 163.61514819 161.7923317 168.25726891 C167.0723317 168.25726891 172.3523317 168.25726891 177.7923317 168.25726891 C177.80635025 166.51824303 177.80635025 166.51824303 177.82065201 164.74408531 C177.86082804 160.40126093 177.92666076 156.05912456 177.99985123 151.71674156 C178.02790186 149.84508737 178.04919471 147.97331821 178.06332779 146.10150719 C178.23886033 124.15993982 178.23886033 124.15993982 185.0423317 114.94476891 C193.21555052 106.95730506 201.4252851 104.95671695 212.59604263 104.96674156 C213.67325577 104.96002434 214.7504689 104.95330711 215.86032486 104.94638634 C219.41583262 104.92741385 222.97115149 104.92348232 226.5267067 104.92133141 C229.00524345 104.91490241 231.48377944 104.90817398 233.96231461 104.90115929 C239.15729913 104.88918798 244.35221717 104.88547827 249.54721451 104.88666344 C256.18929303 104.88686648 262.83093219 104.85957779 269.47293091 104.82511902 C274.59290889 104.80283057 279.71278411 104.79882652 284.83280563 104.79988289 C287.28071187 104.79752936 289.72862105 104.78871993 292.17647934 104.77321815 C295.60830143 104.753522 299.03920429 104.75941157 302.47104263 104.77142906 C303.47294632 104.76019005 304.47485001 104.74895103 305.50711441 104.73737144 C313.45458275 104.80773965 320.67081394 106.64951702 327.1048317 111.50726891 C334.58040619 119.15669397 337.06246492 127.07708324 337.2063942 137.59320641 C337.23544342 138.91223457 337.23544342 138.91223457 337.2650795 140.25790977 C337.32455984 143.04926608 337.37113379 145.84066434 337.4173317 148.63226891 C337.45554054 150.53202585 337.49459395 152.43176601 337.5345192 154.33148766 C337.63023526 158.9732774 337.71438209 163.61514819 337.7923317 168.25726891 C343.0723317 168.25726891 348.3523317 168.25726891 353.7923317 168.25726891 C353.86187148 150.68052431 353.91536303 133.10383492 353.94776821 115.52698421 C353.96321652 107.36517265 353.98426694 99.20344831 354.01865005 91.04169273 C354.04861494 83.92531029 354.06792149 76.80899104 354.07459718 69.69254726 C354.07849747 65.92678021 354.08762086 62.16119388 354.10952187 58.39548492 C354.12999929 54.8455346 354.13614299 51.29583813 354.13165474 47.74583435 C354.13286378 45.83311906 354.14894673 43.92043094 354.16559219 42.0077877 C354.13903832 31.19903674 354.13903832 31.19903674 349.51729488 21.67745876 C342.38071889 15.10830713 333.30576309 15.9698673 324.25525284 15.99657249 C322.86969067 15.99354984 321.48413017 15.98965979 320.09857261 15.98497993 C316.3008059 15.97470578 312.50313366 15.97688025 308.70535922 15.98116052 C304.60573864 15.98362881 300.50614074 15.9746123 296.40652847 15.96712303 C288.37862448 15.95437682 280.35075394 15.95258225 272.32284154 15.95492329 C265.7970517 15.95670672 259.27127202 15.9549563 252.7454834 15.95069885 C251.81650896 15.95010366 250.88753452 15.94950847 249.93040933 15.94889525 C248.04315965 15.94768349 246.15590997 15.94646936 244.26866029 15.94525287 C226.57180507 15.93437762 208.87496891 15.93653975 191.17811261 15.94263772 C174.99243145 15.94780675 158.80681047 15.93655176 142.62114121 15.9175395 C125.99725802 15.89816236 109.3734033 15.88990489 92.74950874 15.89366275 C83.41824416 15.895575 74.08703081 15.89308495 64.75577545 15.87894821 C56.81189038 15.86703502 48.86808807 15.86562883 40.92420186 15.87773838 C36.8724513 15.88362752 32.82085212 15.88472556 28.76911163 15.87273598 C25.05687469 15.86187883 21.34491555 15.86497838 17.63269161 15.87899766 C15.66032061 15.88289507 13.68793729 15.8720961 11.71559536 15.86070079 C-0.28453535 15.90672884 -0.28453535 15.90672884 -10.1451683 22.00726891 Z M21.8548317 126.00726891 C13.89358075 138.5522704 17.7923317 154.02112838 17.7923317 168.25726891 C60.0323317 168.25726891 102.2723317 168.25726891 145.7923317 168.25726891 C148.1395268 145.63149816 148.1395268 145.63149816 140.0423317 124.31976891 C133.71645579 120.30527073 127.58914068 119.96165349 120.32797623 119.9826107 C119.4050679 119.97749977 118.48215958 119.97238884 117.53128433 119.96712303 C114.49583738 119.95328097 111.46061887 119.95417982 108.4251442 119.95648766 C106.30436494 119.95259765 104.18358647 119.94826235 102.06280899 119.94350243 C97.62285204 119.9360517 93.18297462 119.93632311 88.74301529 119.94159508 C83.06833866 119.94738681 77.39398872 119.9304601 71.71936607 119.9072504 C67.34060149 119.89248008 62.96191497 119.89164589 58.58312988 119.89476013 C56.49166467 119.89424854 54.40019489 119.88904133 52.30875397 119.87894821 C49.37744879 119.86653776 46.44677221 119.87340325 43.51547623 119.88495445 C42.23400208 119.87348885 42.23400208 119.87348885 40.92663956 119.86179161 C34.1269679 119.92067329 26.66516635 120.72348311 21.8548317 126.00726891 Z M197.8548317 126.00726891 C189.89358075 138.5522704 193.7923317 154.02112838 193.7923317 168.25726891 C236.0323317 168.25726891 278.2723317 168.25726891 321.7923317 168.25726891 C324.1395268 145.63149816 324.1395268 145.63149816 316.0423317 124.31976891 C309.71645579 120.30527073 303.58914068 119.96165349 296.32797623 119.9826107 C295.4050679 119.97749977 294.48215958 119.97238884 293.53128433 119.96712303 C290.49583738 119.95328097 287.46061887 119.95417982 284.4251442 119.95648766 C282.30436494 119.95259765 280.18358647 119.94826235 278.06280899 119.94350243 C273.62285204 119.9360517 269.18297462 119.93632311 264.74301529 119.94159508 C259.06833866 119.94738681 253.39398872 119.9304601 247.71936607 119.9072504 C243.34060149 119.89248008 238.96191497 119.89164589 234.58312988 119.89476013 C232.49166467 119.89424854 230.40019489 119.88904133 228.30875397 119.87894821 C225.37744879 119.86653776 222.44677221 119.87340325 219.51547623 119.88495445 C218.23400208 119.87348885 218.23400208 119.87348885 216.92663956 119.86179161 C210.1269679 119.92067329 202.66516635 120.72348311 197.8548317 126.00726891 Z M-42.1451683 190.00726891 C-54.49558723 209.46853509 -46.2076683 256.6806479 -46.2076683 264.25726891 C96.3523317 264.25726891 238.9123317 264.25726891 385.7923317 264.25726891 C390.6470531 234.12639604 390.6470531 234.12639604 380.0423317 188.31976891 C374.49173673 184.79727595 369.20279979 184.00745434 362.70918846 184.00279331 C362.02845845 183.99958683 361.34772843 183.99638036 360.64637023 183.99307671 C358.37268172 183.98479664 356.099258 183.9906939 353.82556534 183.99657249 C352.17601628 183.9935509 350.52646862 183.98966138 348.87692344 183.98497993 C344.34946072 183.97469222 339.82207711 183.97688372 335.29460788 183.98116052 C330.40970552 183.98362634 325.52482228 183.97461538 320.63992691 183.96712303 C311.07196232 183.95437 301.50402578 183.9525831 291.93605413 183.95492329 C284.15931122 183.95670594 276.38257684 183.95495797 268.60583496 183.95069885 C267.4992374 183.95010366 266.39263984 183.94950847 265.25250902 183.94889525 C263.00449134 183.9476835 260.75647366 183.94646937 258.50845598 183.94525287 C237.42375382 183.93437501 216.33906765 183.936541 195.25436459 183.94263772 C175.9647546 183.94780711 156.6751951 183.93655129 137.3855951 183.9175395 C117.5795979 183.89816838 97.7736246 183.88990383 77.96761787 183.89366275 C66.84783318 183.8955759 55.72809148 183.89307619 44.60831451 183.87894821 C35.14196525 183.86704271 25.67568543 183.86562022 16.20933522 183.87773838 C11.37989099 183.88363287 6.55057382 183.88471069 1.721138 183.87273598 C-2.70164589 183.86189704 -7.12419631 183.86495686 -11.54696919 183.87899766 C-13.14515972 183.88165007 -14.74336844 183.87926099 -16.34154116 183.8712618 C-30.40856392 183.3859337 -30.40856392 183.3859337 -42.1451683 190.00726891 Z M-62.2076683 280.25726891 C-62.2076683 285.53726891 -62.2076683 290.81726891 -62.2076683 296.25726891 C90.9123317 296.25726891 244.0323317 296.25726891 401.7923317 296.25726891 C401.7923317 290.97726891 401.7923317 285.69726891 401.7923317 280.25726891 C248.6723317 280.25726891 95.5523317 280.25726891 -62.2076683 280.25726891 Z M-46.2076683 312.25726891 C-46.2076683 320.17726891 -46.2076683 328.09726891 -46.2076683 336.25726891 C-43.2376683 336.25726891 -40.2676683 336.25726891 -37.2076683 336.25726891 C-35.5576683 328.33726891 -33.9076683 320.41726891 -32.2076683 312.25726891 C-36.8276683 312.25726891 -41.4476683 312.25726891 -46.2076683 312.25726891 Z M371.7923317 312.25726891 C373.4423317 320.17726891 375.0923317 328.09726891 376.7923317 336.25726891 C379.7623317 336.25726891 382.7323317 336.25726891 385.7923317 336.25726891 C385.7923317 328.33726891 385.7923317 320.41726891 385.7923317 312.25726891 C381.1723317 312.25726891 376.5523317 312.25726891 371.7923317 312.25726891 Z " fill="#000000" transform="translate(86.20766830444336,79.74273109436035)"/>
</svg>
