<?xml version="1.0" encoding="UTF-8"?>
<svg version="1.1" xmlns="http://www.w3.org/2000/svg" width="512" height="512">
<path d="M0 0 C3.43566902 0.87453393 4.37140971 1.17226445 6.4375 3.875 C7.50870664 9.65016876 6.08283752 15.30543525 4.3046875 20.7824707 C4.07651494 21.52057165 3.84834238 22.2586726 3.6132555 23.01914024 C2.85841613 25.45031419 2.08565297 27.8753754 1.3125 30.30078125 C0.77132803 32.02991196 0.23128834 33.75939739 -0.30769348 35.48921204 C-1.4530688 39.15766451 -2.60608373 42.82359441 -3.76480103 46.487854 C-5.57281553 52.20981298 -7.3538338 57.93996851 -9.1315918 63.67138672 C-13.87795337 78.94948937 -18.62420016 94.22507259 -23.71902466 109.39122009 C-25.27918101 114.04244126 -26.80635543 118.70417042 -28.33129883 123.36703491 C-29.3348462 126.37946697 -30.3928928 129.36845418 -31.45507812 132.3605957 C-36.04579109 145.94113753 -35.49041868 156.92228806 -33.18118286 170.94445801 C-32.49066845 175.33135163 -31.908539 179.72420523 -31.35327148 184.12988281 C-31.25044892 184.94542255 -31.14762636 185.7609623 -31.04168797 186.60121536 C-30.82943631 188.28933045 -30.61756758 189.97749372 -30.40606499 191.66570282 C-29.86252932 195.98095762 -29.30290077 200.29411665 -28.74414062 204.60742188 C-28.63215301 205.47449642 -28.52016539 206.34157097 -28.4047842 207.2349205 C-27.83042342 211.68047945 -27.25276722 216.12558156 -26.67016602 220.57006836 C-26.09545582 224.9563477 -25.52889241 229.34361543 -24.9675045 233.73161888 C-24.7555841 235.37637708 -24.54076712 237.02076521 -24.32276344 238.66472816 C-20.87948548 264.65845209 -20.87948548 264.65845209 -23.94758606 268.69917297 C-26.07393422 270.24737785 -27.45124588 270.27611254 -30.0625 270.25 C-30.8359375 270.25773437 -31.609375 270.26546875 -32.40625 270.2734375 C-35.10383125 269.7749714 -35.83312909 268.9682296 -37.5625 266.875 C-40.62750976 252.8554183 -41.717814 238.01759267 -43.5625 223.875 C-85.8025 223.875 -128.0425 223.875 -171.5625 223.875 C-174.5325 237.735 -177.5025 251.595 -180.5625 265.875 C-184.5625 269.875 -184.5625 269.875 -186.5625 270.44140625 C-190.269334 270.43416634 -192.05855873 270.24373752 -195.125 268 C-198.40372419 260.87233872 -194.96274428 251.28994597 -193.36938477 243.88916016 C-193.1481192 242.84073944 -192.92685364 241.79231873 -192.69888306 240.71212769 C-191.9726274 237.27826759 -191.23855869 233.84613515 -190.50390625 230.4140625 C-189.99414784 228.01661728 -189.48470756 225.61910439 -188.97557068 223.2215271 C-187.91065101 218.21284583 -186.84184053 213.205015 -185.77026367 208.19775391 C-184.3964606 201.77667344 -183.03250495 195.35354771 -181.67143345 188.92975807 C-180.62279311 183.985909 -179.56894174 179.04318205 -178.51350212 174.10078049 C-178.0083229 171.73201309 -177.50478102 169.3628959 -177.00290108 166.99342728 C-176.30223845 163.6892829 -175.59457178 160.38671564 -174.88500977 157.08447266 C-174.67870438 156.10468445 -174.47239899 155.12489624 -174.25984192 154.11541748 C-174.06501221 153.21564178 -173.8701825 152.31586609 -173.66944885 151.38882446 C-173.50298135 150.60907068 -173.33651384 149.8293169 -173.16500187 149.02593422 C-172.5392371 146.79195134 -171.6162648 144.93526134 -170.5625 142.875 C-170.08763437 140.79986466 -169.65366687 138.71515241 -169.25 136.625 C-167.0660039 126.91110692 -162.10577609 119.2938358 -153.7578125 113.65625 C-149.64961486 111.40611685 -145.85410735 110.55987912 -141.25 109.75 C-138.15761922 109.15018062 -138.15761922 109.15018062 -135.5625 107.875 C-134.15065403 105.41667395 -133.7046055 103.27733653 -133.17578125 100.5 C-131.46514719 93.17805039 -124.53203531 87.04520729 -118.5625 82.875 C-109.93246368 78.3401083 -101.255364 77.71304696 -91.6875 77.77734375 C-90.87756592 77.7787587 -90.06763184 77.78017365 -89.2331543 77.78163147 C-86.67623006 77.78717617 -84.11939724 77.79971793 -81.5625 77.8125 C-79.81640753 77.81752216 -78.07031366 77.82208381 -76.32421875 77.82617188 C-72.07027791 77.8371274 -67.81640439 77.85435306 -63.5625 77.875 C-63.46211426 76.94341064 -63.36172852 76.01182129 -63.25830078 75.05200195 C-62.51682787 69.9015947 -60.95077636 65.00792147 -59.4296875 60.04296875 C-59.11476349 59.01117996 -58.79983948 57.97939117 -58.47537231 56.91633606 C-57.80763415 54.73941669 -57.13674085 52.56346292 -56.46289062 50.38842773 C-55.44556218 47.08865025 -54.45313481 43.78201585 -53.4609375 40.47460938 C-52.80621954 38.35108954 -52.15001658 36.22802687 -51.4921875 34.10546875 C-51.20334686 33.12909958 -50.91450623 32.15273041 -50.61691284 31.14677429 C-47.01737112 19.76574627 -40.92609156 11.80200387 -30.5625 5.875 C-24.35063691 2.9673194 -16.910979 2.75323713 -10.125 3 C-7.48099547 3.12320935 -7.48099547 3.12320935 -5.625 1.3125 C-3.5625 -0.125 -3.5625 -0.125 0 0 Z M-20.875 20.125 C-22.01388672 20.47304688 -22.01388672 20.47304688 -23.17578125 20.828125 C-28.1182785 22.99602887 -31.00147457 25.8388491 -32.98046875 30.828125 C-36.50486769 39.90465925 -39.13565449 49.28921782 -41.875 58.625 C-42.42973487 60.49757477 -42.98506895 62.36997214 -43.54101562 64.2421875 C-44.88842176 68.78444427 -46.2277158 73.32901893 -47.5625 77.875 C-41.9525 77.875 -36.3425 77.875 -30.5625 77.875 C-28.31783731 70.77634549 -26.08187778 63.67509051 -23.86111355 56.56892014 C-22.82956569 53.26931071 -21.79425513 49.97098226 -20.75024414 46.67529297 C-19.55005097 42.88599709 -18.36640172 39.09163533 -17.18359375 35.296875 C-16.80657822 34.11446228 -16.42956268 32.93204956 -16.04112244 31.71380615 C-15.70069412 30.61296692 -15.36026581 29.51212769 -15.00952148 28.37792969 C-14.7052977 27.40974304 -14.40107391 26.4415564 -14.08763123 25.44403076 C-13.54924411 22.81014996 -13.66996459 21.37838941 -14.5625 18.875 C-16.9022296 18.875 -18.64294667 19.41974617 -20.875 20.125 Z M-112.9375 98.77734375 C-113.47375 99.44894531 -114.01 100.12054688 -114.5625 100.8125 C-115.119375 101.48152344 -115.67625 102.15054688 -116.25 102.83984375 C-117.83704959 105.0609419 -117.83704959 105.0609419 -118.5625 108.875 C-103.7125 108.875 -88.8625 108.875 -73.5625 108.875 C-69.40438612 98.50884346 -69.40438612 98.50884346 -69.5625 93.875 C-73.9549631 93.80017425 -78.34707672 93.74608317 -82.73999023 93.71020508 C-84.23061598 93.69522958 -85.72119851 93.67484181 -87.21166992 93.64868164 C-100.88141225 93.15163799 -100.88141225 93.15163799 -112.9375 98.77734375 Z M-52.5625 93.875 C-53.08199219 95.54949219 -53.60148437 97.22398437 -54.13671875 98.94921875 C-54.84034131 101.15390276 -55.54481301 103.35831589 -56.25 105.5625 C-56.58966797 106.66529297 -56.92933594 107.76808594 -57.27929688 108.90429688 C-59.17674308 114.77396691 -60.58114372 119.08322134 -65.5625 122.875 C-68.04929952 124.11839976 -69.78047088 124.03327487 -72.56298828 124.08032227 C-73.60391632 124.10026749 -74.64484436 124.12021271 -75.71731567 124.14076233 C-77.4079866 124.16583107 -77.4079866 124.16583107 -79.1328125 124.19140625 C-80.28417694 124.21218735 -81.43554138 124.23296844 -82.62179565 124.25437927 C-86.3103014 124.31991665 -89.99888003 124.37877928 -93.6875 124.4375 C-96.18360138 124.48068123 -98.6796953 124.52429538 -101.17578125 124.56835938 C-107.30461226 124.67560235 -113.43351677 124.77685801 -119.5625 124.875 C-119.5625 130.155 -119.5625 135.435 -119.5625 140.875 C-96.7925 140.875 -74.0225 140.875 -50.5625 140.875 C-48.2591441 134.82011511 -48.2591441 134.82011511 -46.2121582 128.7097168 C-45.99215652 127.99925705 -45.77215485 127.2887973 -45.54548645 126.55680847 C-45.32035873 125.82005386 -45.09523102 125.08329926 -44.86328125 124.32421875 C-44.6233696 123.54359573 -44.38345795 122.76297272 -44.13627625 121.95869446 C-43.63504492 120.32466704 -43.13512529 118.69023672 -42.63647461 117.05541992 C-41.87129812 114.55038078 -41.09892735 112.04763198 -40.32617188 109.54492188 C-39.83810472 107.95065453 -39.35045932 106.356258 -38.86328125 104.76171875 C-38.51648064 103.64140511 -38.51648064 103.64140511 -38.16267395 102.49845886 C-37.25946046 99.51828422 -36.5625 97.00792628 -36.5625 93.875 C-41.8425 93.875 -47.1225 93.875 -52.5625 93.875 Z M-147.609375 129.6796875 C-151.20174713 133.61348343 -152.47552027 135.44010136 -153.5625 140.875 C-147.6225 140.875 -141.6825 140.875 -135.5625 140.875 C-135.5625 135.595 -135.5625 130.315 -135.5625 124.875 C-140.19225281 124.875 -144.19992274 126.67364372 -147.609375 129.6796875 Z M-157.5625 156.875 C-158.76883629 160.49400888 -159.83221417 163.71660629 -160.61572266 167.37988281 C-160.79575836 168.21384583 -160.97579407 169.04780884 -161.1612854 169.90704346 C-161.34782684 170.78850037 -161.53436829 171.66995728 -161.7265625 172.578125 C-162.02196426 173.95662628 -162.02196426 173.95662628 -162.32333374 175.36297607 C-162.73671991 177.29567198 -163.14844269 179.22872434 -163.55859375 181.16210938 C-164.18852231 184.12981631 -164.82432525 187.09622042 -165.4609375 190.0625 C-165.86232553 191.94263442 -166.26337899 193.82284031 -166.6640625 195.703125 C-166.8546524 196.59267883 -167.04524231 197.48223267 -167.24160767 198.39874268 C-167.41533905 199.22009705 -167.58907043 200.04145142 -167.76806641 200.88769531 C-167.92191803 201.61128235 -168.07576965 202.33486938 -168.23428345 203.0803833 C-168.62246849 204.89883072 -168.62246849 204.89883072 -168.5625 206.875 C-127.9725 206.875 -87.3825 206.875 -45.5625 206.875 C-46.28828202 195.26813494 -46.28828202 195.26813494 -47.5 183.76953125 C-47.58499756 183.11216476 -47.66999512 182.45479828 -47.75756836 181.7775116 C-47.93350112 180.42422074 -48.11160967 179.07121079 -48.29199219 177.71850586 C-48.56737293 175.65091345 -48.83494124 173.58241045 -49.1015625 171.51367188 C-50.0497779 164.14471793 -50.0497779 164.14471793 -51.5625 156.875 C-86.5425 156.875 -121.5225 156.875 -157.5625 156.875 Z " fill="#000000" transform="translate(505.5625,242.125)"/>
<path d="M0 0 C0.66 0.66 1.32 1.32 2 2 C4.1037094 2.16745688 4.1037094 2.16745688 6.5 2 C17.61643157 1.80778504 27.11606523 4.77732922 35.40234375 12.30859375 C41.28577082 18.53725859 44.96028111 26.7384673 45.4375 35.3125 C45 39 45 39 43.4375 41.5 C40.0761612 43.56851618 37.88040089 43.48505011 34 43 C29.86480198 40.74088426 29.00459986 37.98622934 27.5625 33.625 C25.45148218 27.86767868 23.79053107 23.80962485 18.01171875 21.05078125 C14.82959803 19.76513467 12.46158353 19 9 19 C10.40479671 25.74319647 12.21077273 32.26176508 14.2578125 38.8359375 C14.88934051 40.88931751 15.5208504 42.94270308 16.15234375 44.99609375 C17.14319936 48.20267432 18.13547233 51.40881213 19.12841797 54.61474609 C20.09167085 57.72909002 21.04993321 60.84493742 22.0078125 63.9609375 C22.4577507 65.40465225 22.4577507 65.40465225 22.91677856 66.87753296 C23.19061371 67.76921173 23.46444885 68.6608905 23.74658203 69.57958984 C23.98925812 70.36296722 24.2319342 71.1463446 24.48196411 71.95346069 C25 74 25 74 25 77 C32.92 76.505 32.92 76.505 41 76 C40.67 75.01 40.34 74.02 40 73 C39.43661972 65.90140845 39.43661972 65.90140845 41.5625 62.5 C44.9238388 60.43148382 47.11959911 60.51494989 51 61 C53.79069703 62.16279043 54.69951322 63.31613353 55.90625 66.0625 C57.28544112 69.94466759 58 72.82715065 58 77 C59.05799805 76.98952637 60.11599609 76.97905273 61.20605469 76.96826172 C65.18697636 76.9316562 69.16788363 76.90895427 73.14892578 76.89013672 C74.86151646 76.88017045 76.57409054 76.86659253 78.28662109 76.84912109 C94.5172744 76.68785803 108.32345737 76.72951353 120.875 88.375 C125.90804238 93.75147351 128.23896343 99.95585373 130 107 C131.14275391 107.23783203 131.14275391 107.23783203 132.30859375 107.48046875 C143.59584027 110.03102009 153.01935491 114.20420769 159.4375 124.25 C162.26186751 129.49525394 163.92357125 134.75776024 165.21575928 140.55654907 C166.01061262 144.046598 166.88789751 147.50728821 167.77832031 150.97412109 C170.44359078 161.52046982 172.70123089 172.15481845 174.984375 182.7890625 C175.44942666 184.94901731 175.91453596 187.10895971 176.37969971 189.26889038 C177.34640712 193.76136004 178.310841 198.25431102 179.27392578 202.74755859 C180.50751465 208.50082629 181.7493147 214.252289 182.9930687 220.00336647 C183.95290508 224.4479817 184.90719507 228.8937743 185.85993195 233.33991623 C186.31564386 235.46220141 186.77336241 237.58405676 187.23314667 239.70546341 C187.87317623 242.66131347 188.5054124 245.61872873 189.13574219 248.57666016 C189.32582352 249.44632416 189.51590485 250.31598816 189.71174622 251.21200562 C192.00462724 262.07446445 192.00462724 262.07446445 189.5 266.875 C186.46162086 269.45762227 184.85895726 269.55886922 181 269.56640625 C179 269 179 269 175 265 C170.545 244.21 170.545 244.21 166 223 C123.76 223 81.52 223 38 223 C36.35 235.87 34.7 248.74 33 262 C31 267 31 267 29 269 C26.94140625 269.30078125 26.94140625 269.30078125 24.5625 269.3125 C23.78003906 269.32925781 22.99757812 269.34601563 22.19140625 269.36328125 C20 269 20 269 18.27734375 267.79296875 C15.75987587 264.25927531 15.86587052 260.44399281 16.42469788 256.28326416 C16.54401169 255.36384033 16.6633255 254.4444165 16.78625488 253.49713135 C16.92390259 252.50066589 17.06155029 251.50420044 17.20336914 250.47753906 C17.34298569 249.4183728 17.48260223 248.35920654 17.62644958 247.26794434 C17.93021334 244.96979709 18.23758793 242.67212488 18.54814339 240.37488556 C19.03923889 236.73536847 19.51898071 233.09452056 19.99546814 229.45306396 C21.3519267 219.10028532 22.72659266 208.74997494 24.11450195 198.40136719 C24.96296263 192.06901047 25.796211 185.73479964 26.62026787 179.39922333 C26.93695437 176.98879273 27.25952513 174.57912747 27.58815193 172.17029572 C28.04834259 168.79524977 28.48920752 165.4181781 28.92602539 162.04003906 C29.06569733 161.05167053 29.20536926 160.063302 29.34927368 159.04498291 C30.11980619 152.8889827 29.76821904 147.94070439 28 142 C27.71448273 140.97285889 27.42896545 139.94571777 27.13479614 138.88745117 C26.84426361 137.94877197 26.55373108 137.01009277 26.25439453 136.04296875 C25.91797943 134.94976318 25.58156433 133.85655762 25.23495483 132.73022461 C24.68939438 130.97657593 24.68939438 130.97657593 24.1328125 129.1875 C23.53829084 127.26136051 22.94376989 125.33522081 22.34927559 123.40907288 C21.71457596 121.3549934 21.07814391 119.30145757 20.44128418 117.24804688 C19.10968113 112.95340473 17.78540354 108.65652317 16.46191406 104.359375 C12.22308823 90.60429524 7.96129507 76.85671132 3.65512085 63.12255859 C2.01864858 57.90200958 0.39052584 52.67886755 -1.23547173 47.45504761 C-2.56440826 43.18830008 -3.90468932 38.92533456 -5.25343513 34.66481018 C-5.8891442 32.64966859 -6.51893695 30.63279136 -7.14614868 28.61499023 C-7.90816814 26.16352695 -8.67928219 23.71486313 -9.46151733 21.26977539 C-11.40635289 14.95291506 -12.61391075 9.61752301 -12 3 C-8.40525542 -1.57512947 -5.4143165 -1.43019681 0 0 Z M31 93 C32.51685019 101.92852539 35.1255036 110.44422819 37.7956543 119.08032227 C38.56982184 121.58619981 39.33521189 124.09464255 40.09960938 126.60351562 C40.58803179 128.19546902 41.07694577 129.78727171 41.56640625 131.37890625 C41.79558243 132.12983047 42.02475861 132.8807547 42.26087952 133.6544342 C43.12255623 137.10217724 43.12255623 137.10217724 45 140 C47.14743549 140.09425595 49.29801026 140.11742648 51.44750977 140.11352539 C52.12065216 140.11367142 52.79379456 140.11381744 53.48733521 140.1139679 C55.72205784 140.11326878 57.9566981 140.10547652 60.19140625 140.09765625 C61.73697362 140.09579206 63.28254157 140.09436816 64.82810974 140.09336853 C68.90357077 140.0895434 72.97899637 140.07971317 77.05444336 140.06866455 C81.21011882 140.05845032 85.36579999 140.05387089 89.52148438 140.04882812 C97.68100768 140.03809089 105.84049536 140.02049414 114 140 C114 134.72 114 129.44 114 124 C112.45618652 123.9906543 110.91237305 123.98130859 109.32177734 123.97167969 C103.58515745 123.9317592 97.84907266 123.86599337 92.11279297 123.79248047 C89.63174319 123.76428304 87.15060378 123.74306245 84.66943359 123.72900391 C81.09946853 123.70755838 77.53057972 123.66089658 73.9609375 123.609375 C72.85446869 123.60814636 71.74799988 123.60691772 70.60800171 123.60565186 C64.47400905 123.48941996 60.6187768 123.19963 56 119 C54.4609375 116.22265625 54.4609375 116.22265625 53.375 113.0625 C52.97667969 111.92554688 52.57835938 110.78859375 52.16796875 109.6171875 C50.38445892 104.09367545 48.65113136 98.5649242 47 93 C41.72 93 36.44 93 31 93 Z M64 93 C64.28740942 94.37589617 64.58017742 95.75067322 64.875 97.125 C65.11863281 98.27355469 65.11863281 98.27355469 65.3671875 99.4453125 C66.08455253 102.34134171 67.05651721 105.16955163 68 108 C82.85 108 97.7 108 113 108 C111.16693508 102.11411127 111.16693508 102.11411127 107.3125 98.25 C106.66925781 97.67765625 106.02601562 97.1053125 105.36328125 96.515625 C100.06186838 93.11571063 94.47526067 92.75521879 88.31640625 92.8046875 C87.61603745 92.8075174 86.91566864 92.81034729 86.19407654 92.81326294 C83.9833683 92.82435115 81.77308329 92.84943297 79.5625 92.875 C78.05274028 92.88504454 76.54297412 92.8941678 75.03320312 92.90234375 C71.35533403 92.92425286 67.6777084 92.95870242 64 93 Z M130 124 C130 129.28 130 134.56 130 140 C135.94 140 141.88 140 148 140 C145.866122 132.53142699 144.27173436 130.0427556 138 126 C135.27659378 124.95679694 132.90126499 124.46627473 130 124 Z M46 156 C45.51926568 159.19287594 45.03923588 162.38585744 44.55932617 165.57885742 C44.42419365 166.47630424 44.28906113 167.37375107 44.14983368 168.29839325 C43.14868749 174.96269826 42.19029389 181.63071375 41.3125 188.3125 C41.18294922 189.26060547 41.05339844 190.20871094 40.91992188 191.18554688 C40.73719727 192.57290039 40.73719727 192.57290039 40.55078125 193.98828125 C40.44419189 194.78790283 40.33760254 195.58752441 40.2277832 196.41137695 C39.94753973 199.59618027 40 202.80289059 40 206 C80.59 206 121.18 206 163 206 C159.16424868 186.74203555 159.16424868 186.74203555 155.25 167.5 C155.04246094 166.47648438 154.83492188 165.45296875 154.62109375 164.3984375 C154.42128906 163.43164062 154.22148437 162.46484375 154.015625 161.46875 C153.84321289 160.62763672 153.67080078 159.78652344 153.49316406 158.91992188 C153.17496987 157.00531911 153.17496987 157.00531911 152 156 C150.62123975 155.9046081 149.23763084 155.87811378 147.85557556 155.87974548 C146.96230057 155.87837082 146.06902557 155.87699615 145.14868164 155.87557983 C144.16109863 155.87917511 143.17351562 155.88277039 142.15600586 155.88647461 C141.12198135 155.88632858 140.08795685 155.88618256 139.02259827 155.8860321 C135.58665914 155.88673173 132.15077347 155.89452642 128.71484375 155.90234375 C126.33972707 155.90420775 123.96461 155.90563174 121.5894928 155.90663147 C115.32423856 155.91045803 109.05900733 155.9202895 102.79376221 155.93133545 C96.4061311 155.9415466 90.01849629 155.94612845 83.63085938 155.95117188 C71.08722974 155.96191164 58.54361609 155.97879873 46 156 Z " fill="#000000" transform="translate(12,243)"/>
<path d="M0 0 C1.25205231 -0.00852997 2.50410461 -0.01705994 3.7940979 -0.02584839 C5.18418897 -0.02514935 6.57427994 -0.02422627 7.96437073 -0.02310181 C9.42628829 -0.02908521 10.88820269 -0.03589032 12.35011292 -0.04345703 C16.32323448 -0.06114238 20.29626994 -0.06581344 24.26942706 -0.0670886 C27.58463773 -0.06898657 30.89982828 -0.07634283 34.21503121 -0.08343279 C42.03529665 -0.09972359 49.85551604 -0.10460108 57.67579651 -0.10317993 C65.74713214 -0.10197794 73.81820061 -0.12308948 81.88946861 -0.15466726 C88.81608638 -0.18080262 95.74261674 -0.1915484 102.66928345 -0.19026911 C106.80765772 -0.18975872 110.94579457 -0.19548457 115.0841198 -0.21662521 C118.97561983 -0.23596199 122.86665483 -0.23616379 126.75817108 -0.22159195 C128.18683868 -0.21949711 129.61553505 -0.22424487 131.04415321 -0.23631287 C132.99340703 -0.25171315 134.94281875 -0.2400819 136.89208984 -0.22705078 C137.98328345 -0.22814032 139.07447706 -0.22922985 140.19873714 -0.2303524 C143.68681884 0.38736866 144.84407509 1.52045103 147.00953674 4.26742554 C148.09186355 7.2824788 148.11723361 8.84642869 147.32203674 11.95492554 C145.76587643 14.6967318 144.91174954 15.15538331 142.00953674 16.26742554 C139.51100159 16.44345093 139.51100159 16.44345093 136.72047424 16.36508179 C123.43568125 15.70130975 123.43568125 15.70130975 111.94703674 21.20492554 C109.80794979 23.65007625 109.80794979 23.65007625 108.00953674 26.26742554 C107.37660706 27.02410522 106.74367737 27.78078491 106.09156799 28.56039429 C95.18552117 42.4429315 91.23163276 61.4851426 90.5627594 78.74008179 C90.51194214 79.96902412 90.51194214 79.96902412 90.46009827 81.22279358 C90.16158648 88.82915651 89.98167774 96.43789683 89.83934975 104.04864502 C89.74190978 109.13275049 89.60570598 114.20867747 89.37037659 119.28842163 C88.09362022 147.56190615 90.89374423 165.97392864 109.99009705 187.58407593 C112.05235727 190.32432372 112.77688307 191.88106673 113.00953674 195.26742554 C112.07337424 198.36396305 111.30530352 199.97165876 109.00953674 202.26742554 C105.83951195 203.1131959 103.19195288 203.02596629 100.00953674 202.26742554 C95.47736017 198.12998488 92.46972639 192.43696119 89.49391174 187.13851929 C82.97214306 174.97839316 82.97214306 174.97839316 72.44703674 166.65414429 C68.13394514 165.58355075 64.65542311 165.7429415 60.55055237 167.47299194 C51.7204681 173.7086875 46.12249635 185.12184756 40.91365051 194.35438538 C37.45012288 200.47482139 37.45012288 200.47482139 35.00953674 202.26742554 C28.21708391 203.02214252 28.21708391 203.02214252 24.50953674 200.70492554 C22.41893787 197.30770237 22.59748385 195.21786673 23.00953674 191.26742554 C24.5203009 188.87453192 25.94250091 186.95387211 27.7671051 184.83724976 C45.03229195 163.20733983 48.10137283 146.32338941 46.69502258 119.09689331 C46.5297604 115.46276555 46.46049169 111.82964627 46.39579868 108.19253731 C45.71418995 62.50841434 45.71418995 62.50841434 24.88063049 22.95101929 C18.43249489 17.14904341 13.7916016 16.73582003 5.38453674 16.76742554 C3.32983714 16.77509233 1.27498068 16.76537395 -0.77952576 16.73617554 C-1.68396423 16.74068726 -2.58840271 16.74519897 -3.52024841 16.74984741 C-6.76201768 16.11674442 -7.93332333 14.7933912 -9.99046326 12.26742554 C-11.08356708 9.22235059 -11.11228064 7.70393784 -10.24046326 4.57992554 C-7.76262572 -0.0040739 -4.77556476 0.0146736 0 0 Z M41.00953674 16.26742554 C43.31953674 19.89742554 45.62953674 23.52742554 48.00953674 27.26742554 C49.33935786 29.83941478 50.56961543 32.30676382 51.69703674 34.95492554 C51.98538391 35.62789673 52.27373108 36.30086792 52.57081604 36.99423218 C57.35736999 48.5764278 59.40106378 60.40161369 60.61500549 72.81820679 C60.88645608 76.24213207 60.88645608 76.24213207 62.00953674 79.26742554 C65.96953674 79.26742554 69.92953674 79.26742554 74.00953674 79.26742554 C74.16809143 77.8043396 74.32664612 76.34125366 74.49000549 74.83383179 C76.83153008 54.44442327 80.79226766 34.63446699 94.00953674 18.26742554 C94.00953674 17.60742554 94.00953674 16.94742554 94.00953674 16.26742554 C76.51953674 16.26742554 59.02953674 16.26742554 41.00953674 16.26742554 Z M62.00953674 94.26742554 C62.00953674 113.40742554 62.00953674 132.54742554 62.00953674 152.26742554 C65.96953674 152.26742554 69.92953674 152.26742554 74.00953674 152.26742554 C74.00953674 133.12742554 74.00953674 113.98742554 74.00953674 94.26742554 C70.04953674 94.26742554 66.08953674 94.26742554 62.00953674 94.26742554 Z " fill="#000000" transform="translate(187.99046325683594,309.7325744628906)"/>
<path d="M0 0 C9.72511204 11.58870034 9.72511204 11.58870034 9 20 C6.84944388 23.4946537 5.29700317 23.92449072 1.3125 24.9375 C-1.95940292 24.79762311 -2.9098429 24.08938255 -5.2734375 21.74609375 C-6.82592935 19.79885568 -8.348706 17.82762283 -9.84375 15.8359375 C-15.70279481 8.13001987 -22.24996593 4.56900518 -31.75 3.125 C-40.41467472 2.49847737 -48.58542846 4.71720068 -55.25390625 10.33203125 C-62.77578667 17.51736221 -66.75002291 24.55043066 -67.3125 35.125 C-67.17869413 44.06025837 -63.25365877 52.67716359 -57 59 C-49.29919047 65.30960489 -41.97980778 67.51067656 -32.05859375 67.3125 C-24.12847165 66.50227041 -16.5854501 62.67796273 -11 57 C-8.99365439 54.20219655 -7.18883574 51.3586692 -5.4453125 48.390625 C-4 46 -4 46 -2 44 C0.05859375 43.69921875 0.05859375 43.69921875 2.4375 43.6875 C3.21996094 43.67074219 4.00242187 43.65398437 4.80859375 43.63671875 C7.54046297 44.08959547 8.38629464 44.77298606 10 47 C11.21184216 51.21510317 10.53255182 54.87834218 8.67578125 58.7890625 C1.49420745 70.50551774 -7.978191 78.68012754 -21.25 82.9375 C-35.39553032 86.19871736 -49.21975811 84.22630696 -61.75 76.875 C-72.58811923 69.44449904 -80.37799374 58.89746143 -83.375 46 C-85.90431341 29.67680213 -82.06988155 16.3018274 -72.8125 2.8125 C-63.87398672 -6.12601328 -52.2736562 -13.24588139 -39.359375 -14 C-24.270381 -14 -11.31930626 -10.45938997 0 0 Z " fill="#000000" transform="translate(291,53)"/>
<path d="M0 0 C2.45291885 2.13641319 2.90757462 3.59332831 3.625 6.75 C2.65999192 11.76804201 -0.43571872 14.49141061 -4 18 C-4.598125 18.6084375 -5.19625 19.216875 -5.8125 19.84375 C-8.63998249 22.51976022 -10.28908344 23.87454414 -14.1875 24.5625 C-17.41208352 23.9175833 -18.83210742 23.48906185 -21 21 C-22.03199883 17.2848042 -22.53829878 15.07659756 -20.78515625 11.5703125 C-18.89034076 8.84210989 -16.85564221 6.58993793 -14.5 4.25 C-13.33984375 3.08210938 -13.33984375 3.08210938 -12.15625 1.890625 C-8.1570569 -1.61591388 -4.98383312 -1.15696126 0 0 Z " fill="#000000" transform="translate(318,24)"/>
<path d="M0 0 C4.35814776 0.84996381 7.21179315 3.62620379 10.3125 6.625 C10.79734863 7.08583984 11.28219727 7.54667969 11.78173828 8.02148438 C15.26451496 11.63950248 16.22253274 14.52722162 16.375 19.5 C15.02937601 22.44755732 14.28945456 24.04277272 11.375 25.5 C8.15672837 26.11300412 6.16904569 26.03305457 3.4140625 24.18359375 C1.29900596 22.37242464 -0.67172741 20.48427692 -2.625 18.5 C-3.2334375 17.901875 -3.841875 17.30375 -4.46875 16.6875 C-7.09226609 13.915483 -8.48125593 12.15338211 -9.3125 8.375 C-8.01749763 2.95953555 -5.4757291 0.75527298 0 0 Z " fill="#000000" transform="translate(199.625,22.5)"/>
<path d="M0 0 C4.32427385 1.23999141 7.12786141 4.43148542 10.15234375 7.6171875 C10.95091797 8.38675781 10.95091797 8.38675781 11.765625 9.171875 C14.32056152 11.83476659 15.14611186 13.57702645 15.71484375 17.2421875 C15.15234375 20.6171875 15.15234375 20.6171875 13.65234375 23.0546875 C10.20573438 25.20881836 7.06461211 25.36114642 3.15234375 24.6171875 C0.58668404 23.13212413 -1.28046293 21.21934348 -3.28515625 19.0546875 C-3.81302734 18.54099609 -4.34089844 18.02730469 -4.88476562 17.49804688 C-8.47943443 13.78340196 -9.74606203 10.9508838 -9.84765625 5.6171875 C-7.62406125 1.07331946 -5.13238035 -0.32495518 0 0 Z " fill="#000000" transform="translate(305.84765625,128.3828125)"/>
<path d="M0 0 C2.5625 2.0625 2.5625 2.0625 4 5 C3.87922244 11.34082192 1.76636812 14.22491405 -2.5625 18.4375 C-3.06330078 18.97826172 -3.56410156 19.51902344 -4.08007812 20.07617188 C-7.012474 23.00117205 -9.03271344 24.35475884 -13.24609375 24.4453125 C-17 24 -17 24 -19.5 22.4375 C-21.68071663 18.89383548 -21.75331723 17.10900306 -21 13 C-18.99468149 9.97765749 -16.5975295 7.51849716 -14 5 C-13.24783203 4.19949219 -13.24783203 4.19949219 -12.48046875 3.3828125 C-8.38952237 -0.60670545 -5.40725441 -0.87213781 0 0 Z " fill="#000000" transform="translate(212,129)"/>
<path d="M0 0 C0.75925781 -0.00773437 1.51851563 -0.01546875 2.30078125 -0.0234375 C9.29992085 0.00107788 9.29992085 0.00107788 12.5 2.25 C14.5815902 4.92633026 14.49587591 6.36753668 14.375 9.8125 C13.5 13.25 13.5 13.25 12.0390625 14.94140625 C8.11718305 16.96268258 4.34555154 16.68398939 0 16.625 C-0.85464844 16.63660156 -1.70929688 16.64820312 -2.58984375 16.66015625 C-6.20803598 16.64322243 -8.79034087 16.6157474 -12.0390625 14.94140625 C-14.3728519 12.23945221 -14.37765464 9.73684262 -14.5 6.25 C-13.74208413 3.70064662 -13.11220676 2.68024103 -10.94921875 1.16015625 C-7.34480506 -0.17928297 -3.79170927 -0.03862522 0 0 Z " fill="#000000" transform="translate(330.5,79.75)"/>
<path d="M0 0 C0.75925781 -0.00773437 1.51851562 -0.01546875 2.30078125 -0.0234375 C9.29992085 0.00107788 9.29992085 0.00107788 12.5 2.25 C14.5815902 4.92633026 14.49587591 6.36753668 14.375 9.8125 C13.5 13.25 13.5 13.25 12.0390625 14.94140625 C8.11718305 16.96268258 4.34555154 16.68398939 0 16.625 C-0.85464844 16.63660156 -1.70929688 16.64820312 -2.58984375 16.66015625 C-6.20803598 16.64322243 -8.79034087 16.6157474 -12.0390625 14.94140625 C-14.3728519 12.23945221 -14.37765464 9.73684262 -14.5 6.25 C-13.74208413 3.70064662 -13.11220676 2.68024103 -10.94921875 1.16015625 C-7.34480506 -0.17928297 -3.79170927 -0.03862522 0 0 Z " fill="#000000" transform="translate(181.5,79.75)"/>
<path d="M0 0 C0.66 -0.0103125 1.32 -0.020625 2 -0.03125 C5.10985426 0.79480504 6.15005808 1.84855151 8 4.5 C8.61451234 7.65611717 8.60383252 10.73058296 8.5625 13.9375 C8.58634766 14.78376953 8.61019531 15.63003906 8.63476562 16.50195312 C8.6242777 20.96631364 8.44608348 22.91882968 5.65234375 26.55859375 C3 28.5 3 28.5 0 29.125 C-4.14911416 28.26060122 -5.42356219 26.85665691 -8 23.5 C-8.70181637 20.29211741 -8.65468105 17.20868168 -8.5625 13.9375 C-8.57345703 13.08736328 -8.58441406 12.23722656 -8.59570312 11.36132812 C-8.54979387 7.45904138 -8.48525202 5.19549251 -6.21484375 1.94140625 C-3.88800681 0.42711554 -2.74526837 -0.04289482 0 0 Z " fill="#000000" transform="translate(256,148.5)"/>
<path d="M0 0 C0.66 -0.0103125 1.32 -0.020625 2 -0.03125 C5.10985426 0.79480504 6.15005808 1.84855151 8 4.5 C8.61451234 7.65611717 8.60383252 10.73058296 8.5625 13.9375 C8.58634766 14.78376953 8.61019531 15.63003906 8.63476562 16.50195312 C8.6242777 20.96631364 8.44608348 22.91882968 5.65234375 26.55859375 C3 28.5 3 28.5 0 29.125 C-4.14911416 28.26060122 -5.42356219 26.85665691 -8 23.5 C-8.70181637 20.29211741 -8.65468105 17.20868168 -8.5625 13.9375 C-8.57345703 13.08736328 -8.58441406 12.23722656 -8.59570312 11.36132812 C-8.54979387 7.45904138 -8.48525202 5.19549251 -6.21484375 1.94140625 C-3.88800681 0.42711554 -2.74526837 -0.04289482 0 0 Z " fill="#000000" transform="translate(256,-0.5)"/>
</svg>
