<?xml version="1.0" encoding="UTF-8"?>
<svg version="1.1" xmlns="http://www.w3.org/2000/svg" width="512" height="512">
<path d="M0 0 C8.77642831 6.32138053 15.45677074 14.73708128 17.58203125 25.4921875 C18.00180436 31.17914448 17.76457309 36.78775491 17.58203125 42.4921875 C12.30203125 42.4921875 7.02203125 42.4921875 1.58203125 42.4921875 C1.411875 41.33460937 1.24171875 40.17703125 1.06640625 38.984375 C0.82238904 37.44518952 0.57755389 35.90613356 0.33203125 34.3671875 C0.22246094 33.60664062 0.11289063 32.84609375 0 32.0625 C-1.31197965 24.052519 -4.97243372 19.22768262 -11.41796875 14.4921875 C-17.22738186 11.67640054 -23.09351411 11.75038327 -29.41796875 12.4921875 C-35.73926543 14.8412499 -40.63714713 19.76124079 -43.52734375 25.81640625 C-45.53944154 31.86152462 -45.48208199 39.01649106 -42.85546875 44.8671875 C-39.63073581 50.35609464 -34.60781094 54.7899809 -28.41796875 56.4921875 C-3.47028207 61.01147468 24.74030397 47.92008329 48.02940369 40.03335571 C135.37626517 10.51852537 135.37626517 10.51852537 173.10546875 10.2890625 C173.88482285 10.28195755 174.66417694 10.2748526 175.46714783 10.26753235 C207.88058333 10.03900025 207.88058333 10.03900025 221.58203125 13.4921875 C222.52191895 13.72325195 223.46180664 13.95431641 224.43017578 14.19238281 C248.46809098 20.225577 270.46796345 29.40470394 292.58203125 40.4921875 C293.39188477 40.8958252 294.20173828 41.29946289 295.03613281 41.71533203 C305.10888431 46.76926377 314.66641974 52.50591117 324.14453125 58.59765625 C324.87542969 59.06478027 325.60632813 59.5319043 326.359375 60.01318359 C327.90247423 61.03999545 329.41427941 62.11479473 330.8984375 63.22509766 C335.50953098 66.71308916 335.50953098 66.71308916 341.09765625 67.38671875 C342.82242188 66.94392578 342.82242188 66.94392578 344.58203125 66.4921875 C358.15228686 65.36563678 369.74657204 66.44578538 380.515625 75.51953125 C389.03366175 83.65111643 393.58452653 92.30021243 394.05273438 104.12744141 C394.20777426 116.64174426 391.39054078 126.26505573 382.58203125 135.4921875 C373.96590041 143.71741637 365.16239685 146.85545867 353.39453125 146.7421875 C350.81640625 146.6596875 348.23828125 146.5771875 345.58203125 146.4921875 C345.58203125 141.2121875 345.58203125 135.9321875 345.58203125 130.4921875 C346.73960937 130.32203125 347.8971875 130.151875 349.08984375 129.9765625 C350.62902923 129.73254529 352.16808519 129.48771014 353.70703125 129.2421875 C354.46757812 129.13261719 355.228125 129.02304688 356.01171875 128.91015625 C364.02169975 127.5981766 368.84653613 123.93772253 373.58203125 117.4921875 C376.48102946 111.45091851 376.72195672 104.59455402 374.9296875 98.14453125 C372.32427674 92.34106264 367.94659455 88.13495246 362.25390625 85.35546875 C356.55499706 83.51415452 349.78100507 83.30341414 344.1328125 85.40234375 C338.19780994 88.91812622 333.65029643 93.83382503 331.58203125 100.4921875 C329.428389 119.38528746 334.2988425 136.7302973 345.8203125 151.890625 C352.70822615 160.36982943 360.83636499 167.79825346 368.6706543 175.38891602 C385.38142993 191.61454626 398.90777889 208.99119853 401.875 232.84765625 C402.47048579 234.73568554 402.47048579 234.73568554 404.76953125 235.51171875 C405.69765625 235.77339844 406.62578125 236.03507813 407.58203125 236.3046875 C417.9366204 239.765159 425.83155357 247.05155945 430.75073242 256.81079102 C433.97536455 264.87118957 434.21455936 272.62714068 434.08203125 281.1796875 C434.07582764 281.88939697 434.06962402 282.59910645 434.06323242 283.33032227 C433.85673447 303.44231545 429.40131859 322.54843222 414.83984375 337.33203125 C414.09476562 338.04488281 413.3496875 338.75773437 412.58203125 339.4921875 C411.91945313 340.17410156 411.256875 340.85601562 410.57421875 341.55859375 C396.42017893 355.30900125 376.10858114 361.85503477 357.71484375 367.63671875 C356.82415695 367.91677765 355.93347015 368.19683655 355.01579285 368.48538208 C350.50510889 369.89853104 345.98960296 371.29291551 341.46508789 372.66113281 C315.34133973 380.6029908 315.34133973 380.6029908 295.58203125 398.4921875 C294.78574577 400.39006406 294.0528115 402.31566959 293.3828125 404.26171875 C293.04032471 405.24374268 292.69783691 406.2257666 292.3449707 407.23754883 C292.09320068 407.98157959 291.84143066 408.72561035 291.58203125 409.4921875 C293.20044922 409.50620605 293.20044922 409.50620605 294.8515625 409.52050781 C298.88501063 409.56061958 302.91771288 409.62643523 306.95068359 409.69970703 C308.69049439 409.72779453 310.4304299 409.74906944 312.17041016 409.76318359 C314.68326095 409.78478403 317.19463158 409.83151736 319.70703125 409.8828125 C320.85909058 409.88465546 320.85909058 409.88465546 322.03442383 409.88653564 C328.63167338 410.06229235 333.84047557 412.08974411 338.82421875 416.45703125 C339.36304688 417.10800781 339.901875 417.75898438 340.45703125 418.4296875 C341.01132812 419.07808594 341.565625 419.72648437 342.13671875 420.39453125 C345.46126117 425.21961038 345.84987512 429.56346261 345.70703125 435.3046875 C345.69800781 435.99755859 345.68898438 436.69042969 345.6796875 437.40429688 C345.65629282 439.10041145 345.62042766 440.79634621 345.58203125 442.4921875 C346.7215625 442.47124023 347.86109375 442.45029297 349.03515625 442.42871094 C353.29169994 442.35592136 357.54818939 442.31024708 361.80517578 442.27246094 C363.64218418 442.25243377 365.47912954 442.22520368 367.31591797 442.19042969 C369.96728127 442.14151685 372.61779666 442.11912987 375.26953125 442.1015625 C376.08131836 442.08091736 376.89310547 442.06027222 377.72949219 442.03900146 C384.52487919 442.03637004 389.69193561 443.95957756 394.82421875 448.45703125 C395.36304688 449.10800781 395.901875 449.75898438 396.45703125 450.4296875 C397.01132812 451.07808594 397.565625 451.72648437 398.13671875 452.39453125 C405.96427658 463.75506789 401.58203125 476.14303558 401.58203125 490.4921875 C322.38203125 490.4921875 243.18203125 490.4921875 161.58203125 490.4921875 C161.58203125 456.05679983 161.58203125 456.05679983 167.546875 449.25 C168.19785156 448.71117187 168.84882813 448.17234375 169.51953125 447.6171875 C170.16792969 447.06289063 170.81632813 446.50859375 171.484375 445.9375 C176.75271131 442.30754761 181.41388204 442.21966599 187.6015625 442.296875 C188.88941902 442.30111984 188.88941902 442.30111984 190.20329285 442.30545044 C192.93385 442.3166068 195.66407395 442.34170291 198.39453125 442.3671875 C200.25064629 442.37722318 202.10676649 442.386348 203.96289062 442.39453125 C208.50273171 442.41653124 213.04232506 442.45102969 217.58203125 442.4921875 C217.55592773 440.9462793 217.55592773 440.9462793 217.52929688 439.36914062 C217.51522234 438.00391034 217.50157286 436.63867563 217.48828125 435.2734375 C217.46942871 434.25685059 217.46942871 434.25685059 217.45019531 433.21972656 C217.40026078 426.37869606 218.7850304 422.4234911 223.453125 417.53125 C229.93490312 411.52733454 234.9392825 410.18878829 243.6015625 410.296875 C244.88941902 410.30111984 244.88941902 410.30111984 246.20329285 410.30545044 C248.93385 410.3166068 251.66407395 410.34170291 254.39453125 410.3671875 C256.25064629 410.37722318 258.10676649 410.386348 259.96289062 410.39453125 C264.50273171 410.41653124 269.04232506 410.45102969 273.58203125 410.4921875 C273.56245361 409.36574829 273.56245361 409.36574829 273.54248047 408.21655273 C273.19491926 373.15424717 285.45410735 339.55589813 309.80859375 314.23046875 C320.36048189 303.81233694 332.93251519 295.43065672 345.33203125 287.3671875 C345.92862549 286.97660156 346.52521973 286.58601563 347.13989258 286.18359375 C351.34032138 283.4921875 351.34032138 283.4921875 353.58203125 283.4921875 C353.535625 282.32042969 353.48921875 281.14867187 353.44140625 279.94140625 C353.08702385 267.29547901 354.18337696 257.61172518 362.59375 247.5625 C367.79053425 242.15131011 373.43735601 237.87374591 380.58203125 235.4921875 C381.90203125 235.4921875 383.22203125 235.4921875 384.58203125 235.4921875 C379.41586766 212.29258333 366.39339874 197.40502326 349.12548828 181.89208984 C331.13395634 165.57392405 314.84059052 144.22914048 313.44116211 118.94726562 C313.33892217 115.89902924 313.29775257 112.85447175 313.26953125 109.8046875 C313.24052734 108.77923828 313.21152344 107.75378906 313.18164062 106.69726562 C313.10243174 97.05206035 315.13473797 88.86052268 321.58203125 81.4921875 C321.58203125 80.5021875 321.58203125 79.5121875 321.58203125 78.4921875 C319.99780318 77.06167126 319.99780318 77.06167126 317.83203125 75.8125 C317.00848145 75.30243408 316.18493164 74.79236816 315.33642578 74.2668457 C314.42747559 73.7224585 313.51852539 73.17807129 312.58203125 72.6171875 C311.64085449 72.04637451 310.69967773 71.47556152 309.72998047 70.88745117 C251.08872419 35.68243969 193.03954618 18.6365872 125.45800781 35.50537109 C117.64597032 37.49878445 109.87419198 39.63474406 102.11865234 41.8371582 C99.58203125 42.4921875 99.58203125 42.4921875 97.58203125 42.4921875 C97.58203125 58.3321875 97.58203125 74.1721875 97.58203125 90.4921875 C102.53203125 90.4921875 107.48203125 90.4921875 112.58203125 90.4921875 C119.99721129 92.96391418 124.93334959 97.78729244 128.76953125 104.6015625 C130.00267917 108.98872338 129.79029021 113.27347885 129.70703125 117.8046875 C129.69800781 118.73603516 129.68898437 119.66738281 129.6796875 120.62695312 C129.65621388 122.9156311 129.62337854 125.20377422 129.58203125 127.4921875 C130.14180664 127.59523193 130.70158203 127.69827637 131.27832031 127.80444336 C136.73288876 128.89822787 141.40138011 130.49895419 146.33203125 133.0546875 C147.01813477 133.40619873 147.70423828 133.75770996 148.41113281 134.11987305 C175.05124015 148.1031531 194.9410998 171.0102894 204.58203125 199.4921875 C210.27486065 218.00730953 214.43426499 242.36261274 205.58203125 260.4921875 C204.90012532 261.65977469 204.20946835 262.82228006 203.51171875 263.98046875 C201.48502538 267.41118002 199.69800937 270.6357631 198.58203125 274.4921875 C200.01765226 278.85114969 202.75912222 281.92893063 205.58203125 285.4921875 C211.14892377 295.38364342 211.07283832 307.92347466 208.921875 318.84375 C205.3136715 329.93389927 197.2689276 338.23986186 187.1953125 343.8125 C177.42029132 348.0937497 164.7208908 348.21818827 154.58203125 344.9921875 C148.91429319 342.54435636 143.93501172 338.85412472 139.58203125 334.4921875 C139.25203125 333.5021875 138.92203125 332.5121875 138.58203125 331.4921875 C137.92203125 331.4921875 137.26203125 331.4921875 136.58203125 331.4921875 C136.35644531 332.06839844 136.13085938 332.64460938 135.8984375 333.23828125 C132.37194608 339.27622056 124.05220719 344.242639 117.3515625 346.08984375 C105.18185046 347.8577991 93.15974437 347.65126068 82.73046875 340.55078125 C75.84668153 335.28613835 75.84668153 335.28613835 74.58203125 331.4921875 C73.92203125 331.4921875 73.26203125 331.4921875 72.58203125 331.4921875 C72.35644531 332.06839844 72.13085938 332.64460938 71.8984375 333.23828125 C68.37194608 339.27622056 60.05220719 344.242639 53.3515625 346.08984375 C41.18185046 347.8577991 29.15974437 347.65126068 18.73046875 340.55078125 C11.84668153 335.28613835 11.84668153 335.28613835 10.58203125 331.4921875 C9.92203125 331.4921875 9.26203125 331.4921875 8.58203125 331.4921875 C8.35644531 332.06839844 8.13085938 332.64460938 7.8984375 333.23828125 C4.37194608 339.27622056 -3.94779281 344.242639 -10.6484375 346.08984375 C-23.83436337 348.0054296 -36.09000244 347.28379221 -47.16796875 339.3046875 C-55.28873328 332.46232597 -61.52814663 324.14118057 -62.64111328 313.32324219 C-63.27373612 303.69706269 -63.3236563 294.09092073 -58.41796875 285.4921875 C-57.35835937 284.285625 -57.35835937 284.285625 -56.27734375 283.0546875 C-53.78365632 280.11249514 -52.36508046 278.25829678 -51.41796875 274.4921875 C-52.68533437 269.2810105 -55.39480284 264.68189238 -58.0078125 260.04296875 C-66.3235325 244.97898847 -64.12296612 222.67729334 -59.67578125 206.55859375 C-59.26524862 205.20045292 -58.8459717 203.84492437 -58.41796875 202.4921875 C-58.09650879 201.46327393 -58.09650879 201.46327393 -57.76855469 200.41357422 C-48.81062889 172.62053371 -29.09279711 148.473959 -3.05102539 135.02368164 C12.06722356 127.4921875 12.06722356 127.4921875 17.58203125 127.4921875 C17.55061035 126.64624023 17.55061035 126.64624023 17.51855469 125.78320312 C17.43454624 123.18638501 17.38310896 120.58985388 17.33203125 117.9921875 C17.29851562 117.1053125 17.265 116.2184375 17.23046875 115.3046875 C17.12238143 107.95474956 18.67006155 102.8151907 23.546875 97.25 C24.19785156 96.71117188 24.84882812 96.17234375 25.51953125 95.6171875 C26.16792969 95.06289062 26.81632812 94.50859375 27.484375 93.9375 C34.95017871 88.79346392 39.52542059 90.4921875 49.58203125 90.4921875 C49.58203125 79.9321875 49.58203125 69.3721875 49.58203125 58.4921875 C43.67296875 60.5340625 43.67296875 60.5340625 37.64453125 62.6171875 C-18.63714125 81.66679416 -18.63714125 81.66679416 -40.171875 71.8125 C-50.15697458 65.94299799 -58.11630873 57.9856086 -61.7578125 46.77734375 C-64.16499055 34.79842815 -63.46202486 22.58097178 -56.91015625 12.07421875 C-43.83447136 -6.07969724 -19.37214163 -12.08020463 0 0 Z M65.58203125 52.4921875 C65.58203125 65.0321875 65.58203125 77.5721875 65.58203125 90.4921875 C70.86203125 90.4921875 76.14203125 90.4921875 81.58203125 90.4921875 C81.58203125 76.3021875 81.58203125 62.1121875 81.58203125 47.4921875 C75.99434638 47.4921875 70.88297456 50.7252064 65.58203125 52.4921875 Z M35.58203125 109.4921875 C32.60126769 114.09882209 33.58203125 117.59892357 33.58203125 123.4921875 C59.98203125 123.4921875 86.38203125 123.4921875 113.58203125 123.4921875 C113.96346784 115.07678832 113.96346784 115.07678832 110.58203125 108.4921875 C106.74700788 106.51462858 103.51287414 106.23532351 99.23461914 106.2175293 C97.97303482 106.20799728 96.7114505 106.19846527 95.41163635 106.18864441 C94.04265312 106.18890586 92.67366987 106.189843 91.3046875 106.19140625 C89.89131037 106.18751584 88.47793441 106.18318046 87.06455994 106.17842102 C84.10655929 106.17097271 81.14867804 106.17124 78.19067383 106.17651367 C74.41007557 106.1823073 70.62996738 106.16537366 66.84945011 106.142169 C63.93168812 106.12739926 61.01404329 106.12656432 58.09625053 106.12967873 C56.70286526 106.12916717 55.30947315 106.12396052 53.91612434 106.11386681 C51.96373393 106.10145784 50.01124406 106.1102575 48.05883789 106.11987305 C46.95028946 106.11924362 45.84174103 106.1186142 44.69960022 106.1179657 C41.09289715 106.5509014 38.68453308 107.62969055 35.58203125 109.4921875 Z M-25.328125 175.84375 C-41.00672004 195.71307231 -47.7349512 219.47181904 -45.41796875 244.4921875 C-44.63131611 248.9188541 -43.3413426 252.45776752 -41.41796875 256.4921875 C-41.04800781 257.37600098 -40.67804687 258.25981445 -40.296875 259.17041016 C-38.62888756 262.32860026 -37.23182418 264.25929247 -34.41796875 266.4921875 C-28.49133375 268.16674214 -22.05454096 267.42801672 -15.98046875 267.1171875 C-14.27812515 267.06698043 -12.57563969 267.02136107 -10.87304688 266.98046875 C-6.71783241 266.87071119 -2.56946486 266.69847696 1.58203125 266.4921875 C1.62166992 265.82501709 1.66130859 265.15784668 1.70214844 264.47045898 C3.13144224 241.36683286 6.14215264 219.46425324 13.58203125 197.4921875 C13.82179687 196.77450195 14.0615625 196.05681641 14.30859375 195.31738281 C20.53367891 176.94141027 30.10864102 160.72602508 42.6015625 145.8671875 C44.33564989 143.78765074 45.98059942 141.6745804 47.58203125 139.4921875 C18.81169445 137.66549945 -7.18590987 155.04417605 -25.328125 175.84375 Z M99.58203125 139.4921875 C102.51477906 143.5314299 105.47218154 147.4164419 108.89453125 151.0546875 C136.1406389 181.84158887 143.18660827 227.12829542 145.58203125 266.4921875 C150.58044426 266.74056059 155.5752286 266.92134009 160.57836914 267.04150391 C162.2772479 267.09160879 163.97569926 267.15972096 165.6730957 267.24658203 C175.52390035 268.07858823 175.52390035 268.07858823 184.21069336 264.40625 C186.05420543 261.82028239 187.35768547 259.41707279 188.58203125 256.4921875 C189.01717041 255.57945068 189.45230957 254.66671387 189.90063477 253.72631836 C196.66594677 238.70623333 193.26392318 218.37637093 187.81835938 203.390625 C177.91513185 177.64698318 158.94207451 157.73176005 133.83203125 146.2421875 C122.89204392 141.77339803 111.45219055 138.73852659 99.58203125 139.4921875 Z M81.58203125 147.4921875 C81.58203125 186.7621875 81.58203125 226.0321875 81.58203125 266.4921875 C97.09203125 266.4921875 112.60203125 266.4921875 128.58203125 266.4921875 C128.58203125 223.01912074 115.52773493 182.94192981 86.52734375 150.35546875 C84.6273271 148.26959179 84.6273271 148.26959179 81.58203125 147.4921875 Z M57.58203125 153.4921875 C30.32953963 184.89001294 18.58203125 225.35402836 18.58203125 266.4921875 C34.09203125 266.4921875 49.60203125 266.4921875 65.58203125 266.4921875 C65.58203125 227.2221875 65.58203125 187.9521875 65.58203125 147.4921875 C62.72590309 147.4921875 59.5059722 151.57840821 57.58203125 153.4921875 Z M373.80859375 261.6484375 C369.87648698 267.55912028 369.88339848 273.61334174 370.58203125 280.4921875 C372.3788231 287.22447087 377.06523973 291.5121375 382.58203125 295.4921875 C388.69478176 298.69410444 394.74118863 298.4921875 401.58203125 298.4921875 C401.58203125 303.7721875 401.58203125 309.0521875 401.58203125 314.4921875 C384.10690062 313.93298332 373.25020416 311.2710488 360.58203125 298.4921875 C333.11505383 315.93114635 308.69128539 333.69322152 297.58203125 365.4921875 C297.11707721 367.83334125 296.83026745 370.11402344 296.58203125 372.4921875 C297.5359375 371.98171875 298.48984375 371.47125 299.47265625 370.9453125 C310.45231172 365.31451727 321.76096953 361.20527754 333.45703125 357.3671875 C334.24392334 357.10873047 335.03081543 356.85027344 335.84155273 356.58398438 C343.21907857 354.16745667 350.61116853 351.79811573 358.01171875 349.453125 C378.76558759 342.82209139 400.13229997 333.91162718 410.89453125 313.6796875 C415.27763451 304.17502337 416.80342075 295.18125658 417.39453125 284.8046875 C417.47441284 283.48609741 417.47441284 283.48609741 417.5559082 282.14086914 C417.90713617 273.70426243 417.09354087 266.19537488 411.58203125 259.4921875 C405.99176087 253.94184762 401.33138117 251.21882097 393.26953125 251.0546875 C384.20964203 251.21829724 379.48694592 254.92323828 373.80859375 261.6484375 Z M-41.19776249 289.1976099 C-41.60043056 289.95482051 -42.00309862 290.71203112 -42.41796875 291.4921875 C-42.79413299 292.16682006 -43.17029722 292.84145262 -43.55786037 293.53652859 C-46.70718324 299.78187018 -46.5344311 308.23699137 -44.796875 314.859375 C-42.12763311 320.9571098 -36.96126753 325.75527634 -31.02734375 328.6640625 C-25.02106723 330.57024607 -17.91505317 330.55657437 -12.10546875 327.9921875 C-6.38402356 324.63576558 -1.12741088 318.98806761 0.58203125 312.4921875 C1.66991572 307.59670737 1.58203125 303.70426939 1.58203125 298.4921875 C6.86203125 298.4921875 12.14203125 298.4921875 17.58203125 298.4921875 C17.58203125 301.1321875 17.58203125 303.7721875 17.58203125 306.4921875 C18.59086284 315.1203524 22.18918862 320.57307506 28.703125 326.1953125 C34.56455683 330.24104091 40.70083559 330.19105893 47.58203125 329.4921875 C54.31431462 327.69539565 58.60198125 323.00897902 62.58203125 317.4921875 C65.78394819 311.37943699 65.58203125 305.33303012 65.58203125 298.4921875 C70.86203125 298.4921875 76.14203125 298.4921875 81.58203125 298.4921875 C81.58203125 301.1321875 81.58203125 303.7721875 81.58203125 306.4921875 C82.59086284 315.1203524 86.18918862 320.57307506 92.703125 326.1953125 C98.56455683 330.24104091 104.70083559 330.19105893 111.58203125 329.4921875 C118.31431462 327.69539565 122.60198125 323.00897902 126.58203125 317.4921875 C129.78394819 311.37943699 129.58203125 305.33303012 129.58203125 298.4921875 C134.86203125 298.4921875 140.14203125 298.4921875 145.58203125 298.4921875 C145.58203125 301.1321875 145.58203125 303.7721875 145.58203125 306.4921875 C146.59086284 315.1203524 150.18918862 320.57307506 156.703125 326.1953125 C162.56455683 330.24104091 168.70083559 330.19105893 175.58203125 329.4921875 C182.22676039 327.71876317 186.75571084 323.0455228 190.58203125 317.4921875 C193.71008312 311.18394955 193.64680842 303.68116116 191.9296875 296.92578125 C190.99582466 294.62118411 189.84695576 292.63144954 188.58203125 290.4921875 C188.23595038 289.79193231 187.88986952 289.09167711 187.53330135 288.37020206 C185.49291097 285.17060619 183.49159148 282.958697 179.68722463 282.02928233 C173.52051417 281.22092035 167.2923269 281.39294514 161.08618164 281.44116211 C158.97005547 281.4286796 156.85394698 281.41281085 154.73786926 281.39381409 C148.99790597 281.35309465 143.25906976 281.36308952 137.51904225 281.3846519 C132.72517633 281.39784655 127.93151401 281.38572944 123.13765615 281.37344652 C111.82766008 281.34463351 100.51820713 281.35621497 89.20825195 281.39428711 C77.54429237 281.43297399 65.8816338 281.41009376 54.21776587 281.35575861 C44.19879366 281.31089692 34.18022027 281.30107928 24.16116518 281.32002836 C18.17926486 281.33118776 12.19806505 281.32983021 6.21623421 281.29609489 C0.5907007 281.26616091 -5.03305477 281.28018829 -10.65844917 281.32787132 C-12.7207621 281.33815865 -14.78321726 281.33317704 -16.84544373 281.31167221 C-30.89544103 280.72965275 -30.89544103 280.72965275 -41.19776249 289.1976099 Z M235.58203125 429.4921875 C232.80142944 433.9158722 233.58203125 436.85343381 233.58203125 442.4921875 C265.26203125 442.4921875 296.94203125 442.4921875 329.58203125 442.4921875 C329.8351637 434.68500839 329.8351637 434.68500839 326.58203125 428.4921875 C322.42023526 426.24575792 318.38585191 426.20164708 313.76586914 426.2175293 C312.60880211 426.2098629 312.60880211 426.2098629 311.42835999 426.20204163 C308.88705616 426.18818008 306.34602456 426.18909974 303.8046875 426.19140625 C302.03258667 426.18751753 300.26048676 426.18318249 298.48838806 426.17842102 C294.77714006 426.17096628 291.0659872 426.17124475 287.35473633 426.17651367 C282.60563039 426.18230836 277.85691444 426.16537377 273.10787296 426.142169 C269.44894647 426.12741711 265.7901136 426.12656192 262.13116264 426.12967873 C260.38052027 426.12916628 258.62987256 426.12394295 256.87925911 426.11386681 C254.42844624 426.10149088 251.97838922 426.10830054 249.52758789 426.11987305 C248.44963959 426.10840744 248.44963959 426.10840744 247.34991455 426.09671021 C242.70724421 426.14501537 239.52217474 427.0370366 235.58203125 429.4921875 Z M179.58203125 461.4921875 C176.80142944 465.9158722 177.58203125 468.85343381 177.58203125 474.4921875 C246.22203125 474.4921875 314.86203125 474.4921875 385.58203125 474.4921875 C385.8351637 466.68500839 385.8351637 466.68500839 382.58203125 460.4921875 C378.40905196 458.23576441 374.3644808 458.20745587 369.73207092 458.23149109 C368.94799014 458.22766554 368.16390936 458.22383999 367.35606855 458.21989852 C364.73218363 458.20959051 362.10851843 458.21355647 359.48461914 458.2175293 C357.60201312 458.21318162 355.71940887 458.20799828 353.83680725 458.20204163 C348.72527331 458.18864675 343.61381329 458.18807348 338.50226521 458.19060493 C334.23526521 458.19167425 329.96828019 458.18679228 325.7012834 458.1819995 C315.63523549 458.17090274 305.56922489 458.17046795 295.50317383 458.17651367 C285.11771133 458.1825553 274.73238426 458.17023801 264.34694487 458.1489436 C255.4304671 458.13133321 246.51403246 458.12532534 237.59753793 458.12858135 C232.27205533 458.13039516 226.94666933 458.12774817 221.62120247 458.11386681 C216.61349265 458.10130219 211.60599411 458.10321967 206.59828758 458.11627769 C204.76087498 458.11864596 202.92344757 458.11589987 201.08605194 458.10765457 C198.57678067 458.09720653 196.0682209 458.10527191 193.55897522 458.1179657 C192.83280079 458.11059141 192.10662637 458.10321713 191.35844666 458.09561938 C186.71347517 458.14501503 183.52416451 459.03411598 179.58203125 461.4921875 Z " fill="#000000" transform="translate(70.41796875,13.5078125)"/>
<path d="M0 0 C2.5 1.5 2.5 1.5 4 4 C4.791013 8.02098277 4.62153384 10.96411027 2.5 14.5 C-1.03588973 16.62153384 -3.97901723 16.791013 -8 16 C-10.5 14.5 -10.5 14.5 -12 12 C-12.791013 7.97901723 -12.62153384 5.03588973 -10.5 1.5 C-6.96411027 -0.62153384 -4.02098277 -0.791013 0 0 Z " fill="#000000" transform="translate(244,312)"/>
<path d="M0 0 C2.5 1.5 2.5 1.5 4 4 C4.791013 8.02098277 4.62153384 10.96411027 2.5 14.5 C-1.03588973 16.62153384 -3.97901723 16.791013 -8 16 C-10.5 14.5 -10.5 14.5 -12 12 C-12.791013 7.97901723 -12.62153384 5.03588973 -10.5 1.5 C-6.96411027 -0.62153384 -4.02098277 -0.791013 0 0 Z " fill="#000000" transform="translate(180,312)"/>
<path d="M0 0 C2.5 1.5 2.5 1.5 4 4 C4.791013 8.02098277 4.62153384 10.96411027 2.5 14.5 C-1.03588973 16.62153384 -3.97901723 16.791013 -8 16 C-10.5 14.5 -10.5 14.5 -12 12 C-12.791013 7.97901723 -12.62153384 5.03588973 -10.5 1.5 C-6.96411027 -0.62153384 -4.02098277 -0.791013 0 0 Z " fill="#000000" transform="translate(116,312)"/>
<path d="M0 0 C2.5 1.5 2.5 1.5 4 4 C4.791013 8.02098277 4.62153384 10.96411027 2.5 14.5 C-1.03588973 16.62153384 -3.97901723 16.791013 -8 16 C-10.5 14.5 -10.5 14.5 -12 12 C-12.791013 7.97901723 -12.62153384 5.03588973 -10.5 1.5 C-6.96411027 -0.62153384 -4.02098277 -0.791013 0 0 Z " fill="#000000" transform="translate(52,312)"/>
</svg>
