<?xml version="1.0" encoding="UTF-8"?>
<svg version="1.1" xmlns="http://www.w3.org/2000/svg" width="512" height="512">
<path d="M0 0 C1.87709656 -0.01429802 1.87709656 -0.01429802 3.79211426 -0.02888489 C5.15893583 -0.02862349 6.52575742 -0.02768656 7.89257812 -0.02612305 C9.2935804 -0.03000994 10.69458149 -0.0343446 12.09558105 -0.03910828 C15.03104474 -0.04656869 17.96638814 -0.04628025 20.90185547 -0.04101562 C24.66487141 -0.03521651 28.42739586 -0.05216292 32.19033051 -0.0753603 C35.08309816 -0.09008549 37.97574704 -0.09097111 40.86854553 -0.08785057 C42.25603714 -0.08836425 43.64353531 -0.09361074 45.0309906 -0.10366249 C46.96984102 -0.11598662 48.90879068 -0.10730689 50.84765625 -0.09765625 C52.50287292 -0.09860039 52.50287292 -0.09860039 54.19152832 -0.0995636 C56.92382812 0.2746582 56.92382812 0.2746582 58.68305969 1.38644409 C60.45648854 4.08526627 61.07065589 6.7270384 61.85229492 9.85839844 C62.01934024 10.51868011 62.18638556 11.17896177 62.35849285 11.85925198 C62.89357549 13.99469505 63.41092963 16.13378546 63.92382812 18.2746582 C64.1751972 19.31503172 64.1751972 19.31503172 64.43164444 20.37642288 C65.67788701 25.55478978 66.87847054 30.74324857 68.06835938 35.93481445 C68.25349279 36.74101164 68.43862621 37.54720882 68.62936974 38.37783623 C69.60409093 42.62451952 70.57529843 46.87198883 71.54370117 51.12011719 C72.54066619 55.48991142 73.55077893 59.85656124 74.56363392 64.22269535 C75.34574505 67.60536651 76.1178957 70.99025522 76.88736534 74.37582207 C77.25558309 75.98778037 77.6275752 77.59888152 78.00348854 79.20906258 C78.5263665 81.45269838 79.03496854 83.69913057 79.5402832 85.94677734 C79.97852165 87.85747765 79.97852165 87.85747765 80.4256134 89.80677795 C80.93080529 93.32322353 80.80203969 95.8473256 79.92382812 99.2746582 C78.13495888 101.47386086 76.81831928 102.17024024 74.00390625 102.4987793 C71.71862401 102.57064031 69.45893385 102.53605466 67.17382812 102.4621582 C65.98466797 102.44185547 65.98466797 102.44185547 64.77148438 102.42114258 C62.82197248 102.38591044 60.87281187 102.33210641 58.92382812 102.2746582 C58.9473938 104.24257324 58.9473938 104.24257324 58.97143555 106.25024414 C59.02573844 111.11802022 59.06017966 115.98576952 59.08862305 120.85375977 C59.10370881 122.9605764 59.12418005 125.06736164 59.15014648 127.17407227 C59.18653865 130.2024714 59.20355662 133.23045529 59.21679688 136.2590332 C59.23228073 137.20083435 59.24776459 138.1426355 59.26371765 139.11297607 C59.26405754 140.43389252 59.26405754 140.43389252 59.2644043 141.78149414 C59.27439705 142.94065338 59.27439705 142.94065338 59.28459167 144.12322998 C58.81867992 146.90171385 57.87757012 148.26445272 55.92382812 150.2746582 C49.94110065 151.02249914 49.94110065 151.02249914 47.22636414 149.02677917 C45.56881317 146.79710584 45.56004914 145.56435741 45.58325195 142.80322266 C45.58347855 141.90251541 45.58370514 141.00180817 45.5839386 140.07380676 C45.59942245 139.10497055 45.61490631 138.13613434 45.63085938 137.13793945 C45.63510422 136.14336227 45.63934906 135.1487851 45.64372253 134.12406921 C45.6605266 130.94482446 45.69818236 127.76621164 45.73632812 124.5871582 C45.75137271 122.43287048 45.76506151 120.27857282 45.77734375 118.12426758 C45.81043586 112.84082065 45.86223041 107.5578466 45.92382812 102.2746582 C41.30382812 102.2746582 36.68382812 102.2746582 31.92382812 102.2746582 C32.25382813 153.0946582 32.58382812 203.9146582 32.92382812 256.2746582 C35.23382813 255.2846582 37.54382813 254.2946582 39.92382812 253.2746582 C40.91382813 253.2746582 41.90382812 253.2746582 42.92382812 253.2746582 C42.90811768 252.38270752 42.89240723 251.49075684 42.8762207 250.57177734 C42.82470821 247.22259561 42.78729365 243.87384254 42.7590332 240.52441406 C42.74406304 239.08228865 42.72367944 237.64020784 42.69750977 236.19824219 C42.49071299 224.5000326 43.25662598 215.58727785 50.96679688 206.28637695 C56.69434748 200.39877504 63.45414226 197.58226645 71.66206074 197.0173893 C73.02784456 197.00395627 74.39376141 197.0011591 75.75959778 197.00723267 C76.51806383 197.00270155 77.27652989 196.99817044 78.05797976 196.99350202 C80.58339397 196.98090592 83.10859119 196.98247527 85.6340332 196.98413086 C87.45133235 196.97814262 89.26862896 196.97133639 91.08592224 196.96377563 C96.01165557 196.9461387 100.93731936 196.94142123 105.86308122 196.94014406 C108.94354042 196.93872062 112.02398205 196.93444736 115.10443687 196.92914963 C125.85975641 196.9106571 136.61502642 196.90247806 147.37036133 196.90405273 C157.38205469 196.90525397 167.39353241 196.884153 177.40517122 196.85256541 C186.01262637 196.82637982 194.6200112 196.8156864 203.22750586 196.81696355 C208.36309534 196.81747251 213.49849309 196.81182614 218.63404274 196.79060745 C223.46619411 196.77118658 228.29797162 196.77112691 233.13013649 196.78564072 C234.89814808 196.78772512 236.66618331 196.78304996 238.43415451 196.7709198 C250.76018021 196.69186339 260.83908992 197.51596181 270.16992188 206.35668945 C279.15944524 216.18710365 279.21166652 226.48558147 279.04882812 239.2746582 C279.0387779 240.6353287 279.02965566 241.99600638 279.02148438 243.35668945 C278.99803632 246.66286468 278.96521669 249.96866701 278.92382812 253.2746582 C279.52420898 253.45424072 280.12458984 253.63382324 280.74316406 253.81884766 C289.63411527 256.60423562 295.01591901 261.13735111 299.91601562 269.0871582 C303.4398522 276.73579572 303.23038924 284.07685154 303.22460938 292.38793945 C303.22850405 293.76645535 303.23284029 295.14497007 303.2375946 296.52348328 C303.2450304 299.40566912 303.24478544 302.28773242 303.23950195 305.16992188 C303.23371958 308.83797466 303.25062084 312.50552046 303.27384663 316.17348957 C303.28868194 319.01935185 303.28944232 321.86509489 303.2863369 324.710989 C303.28709044 326.71264756 303.30088612 328.71428779 303.3150177 330.71589661 C303.25554544 342.53587616 301.43675965 351.69389456 292.92382812 360.2746582 C285.13405663 366.44030745 277.76087953 367.5707377 268.04882812 367.3996582 C267.07429688 367.39063477 266.09976562 367.38161133 265.09570312 367.37231445 C262.7049714 367.34887591 260.31436713 367.3130091 257.92382812 367.2746582 C257.92382812 373.5446582 257.92382812 379.8146582 257.92382812 386.2746582 C259.84163086 386.25894775 261.75943359 386.2432373 263.73535156 386.22705078 C270.07362795 386.1786645 276.41186059 386.144199 282.75027084 386.11922169 C286.59305899 386.10356941 290.43564722 386.08233948 294.27832031 386.04833984 C297.98712375 386.01573025 301.69573497 385.99780189 305.40467072 385.99002647 C306.81926754 385.98448579 308.23385391 385.97366608 309.64836884 385.95746803 C311.6303836 385.93567519 313.61259202 385.93443264 315.59472656 385.93408203 C316.72279724 385.9274202 317.85086792 385.92075836 319.01312256 385.91389465 C322.2635153 386.31676028 323.64415762 386.94991198 325.92382812 389.2746582 C326.44140625 392.3215332 326.44140625 392.3215332 326.45507812 396.0246582 C326.45890503 396.67917969 326.46273193 397.33370117 326.4666748 398.00805664 C326.46939304 399.38990825 326.46203763 400.77181139 326.4453125 402.15356445 C326.42389543 404.26801317 326.44511052 406.37906507 326.47070312 408.4934082 C326.46805983 409.8371657 326.46293479 411.18092108 326.45507812 412.5246582 C326.45056641 413.74668945 326.44605469 414.9687207 326.44140625 416.2277832 C325.92382812 419.2746582 325.92382812 419.2746582 324.38420773 420.94149268 C320.97324031 422.78973763 317.82227728 422.6876561 314.04017639 422.65218163 C313.23647027 422.65654195 312.43276416 422.66090227 311.60470331 422.66539472 C308.8945844 422.676398 306.18496925 422.66590546 303.47485352 422.65560913 C301.51909403 422.65906369 299.56333649 422.66382689 297.60758305 422.66979086 C292.21994428 422.68235824 286.83246416 422.67610446 281.4448247 422.66683221 C275.63970882 422.66006548 269.83462089 422.67051111 264.0295105 422.67877197 C252.65202462 422.69213695 241.27459799 422.68921927 229.89710975 422.68053405 C220.65333554 422.67376877 211.40957797 422.67283577 202.165802 422.6761055 C200.19506544 422.67679505 200.19506544 422.67679505 198.18451601 422.67749853 C196.1848266 422.67821722 194.18513719 422.67893596 192.18544779 422.6796792 C167.18529428 422.68886061 142.18517314 422.68052884 117.18502463 422.66438851 C94.96350169 422.6501512 72.74203031 422.65142506 50.52050781 422.66577148 C25.56670433 422.68182796 0.61292945 422.68820952 -24.34087849 422.67893469 C-26.99996757 422.67797901 -29.65905666 422.6770359 -32.31814575 422.6761055 C-33.62659122 422.67564267 -34.93503669 422.67517985 -36.28313202 422.67470299 C-45.51964346 422.67210882 -54.75613665 422.6764933 -63.99264526 422.68354416 C-75.24335359 422.69194351 -86.4939991 422.68971204 -97.74470019 422.67370193 C-103.48891455 422.66579811 -109.23302404 422.66276346 -114.9772377 422.67264938 C-120.23009491 422.68155318 -125.4827495 422.67673501 -130.73558819 422.66071673 C-132.6413125 422.65735055 -134.54705373 422.65910387 -136.45276725 422.66634409 C-139.03293211 422.67539884 -141.61239276 422.66617951 -144.19252014 422.65218163 C-144.94132844 422.65920512 -145.69013673 422.66622862 -146.46163619 422.67346495 C-149.5803709 422.63938975 -151.77117774 422.43992037 -154.53655148 420.94149268 C-156.95150466 418.32699938 -156.59453582 416.01493945 -156.60742188 412.5246582 C-156.61124878 411.87013672 -156.61507568 411.21561523 -156.61901855 410.54125977 C-156.62173679 409.15940815 -156.61438138 407.77750502 -156.59765625 406.39575195 C-156.57623918 404.28130324 -156.59745427 402.17025134 -156.62304688 400.0559082 C-156.62040358 398.71215071 -156.61527854 397.36839533 -156.60742188 396.0246582 C-156.60291016 394.80262695 -156.59839844 393.5805957 -156.59375 392.3215332 C-156.07617188 389.2746582 -156.07617188 389.2746582 -154.65319824 387.59594727 C-150.64756398 385.54218452 -146.75340835 385.9596381 -142.32617188 386.0871582 C-141.43800781 386.10069336 -140.54984375 386.11422852 -139.63476562 386.12817383 C-137.4479461 386.16344511 -135.26237221 386.21273068 -133.07617188 386.2746582 C-133.07893725 385.69081989 -133.08170263 385.10698158 -133.08455181 384.5054512 C-133.15079969 370.30054833 -133.20044659 356.09566861 -133.23160839 341.89064407 C-133.24707849 335.02119652 -133.26817062 328.15185208 -133.30249023 321.2824707 C-133.33558071 314.65595477 -133.35301413 308.02951798 -133.3608036 301.40291595 C-133.36635634 298.871898 -133.37719915 296.34088607 -133.39336205 293.80991364 C-133.41506739 290.27101352 -133.41814163 286.73255924 -133.41674805 283.19360352 C-133.42753387 282.14200043 -133.4383197 281.09039734 -133.44943237 280.00692749 C-133.44530838 279.04221527 -133.44118439 278.07750305 -133.43693542 277.08355713 C-133.4397008 276.2465691 -133.44246618 275.40958107 -133.44531536 274.54722977 C-132.97997946 271.68246533 -132.11843363 270.32324179 -130.07617188 268.2746582 C-127.01129722 267.91967552 -124.3112813 267.80862639 -121.25195312 267.8840332 C-120.39055222 267.88969299 -119.52915131 267.89535278 -118.64164734 267.90118408 C-115.89009039 267.9235769 -113.13983525 267.9737774 -110.38867188 268.0246582 C-108.52345631 268.0447195 -106.65822033 268.06297092 -104.79296875 268.0793457 C-100.22020145 268.12345108 -95.64840738 268.19249764 -91.07617188 268.2746582 C-93.15656203 263.13309524 -95.23789142 257.99191385 -97.32006836 252.85107422 C-98.02735405 251.10443244 -98.73438903 249.35768911 -99.44116211 247.61083984 C-100.46075605 245.09095546 -101.48126971 242.57144521 -102.50195312 240.05200195 C-102.81457596 239.27880112 -103.12719879 238.50560028 -103.44929504 237.70896912 C-103.74937973 236.96873001 -104.04946442 236.22849091 -104.35864258 235.46582031 C-104.64470367 234.75835663 -104.93076477 234.05089294 -105.22549438 233.32199097 C-106.04557882 231.34828677 -106.9212791 229.40696968 -107.8034668 227.46044922 C-109.37358659 223.53018006 -109.24273357 221.31873875 -108.07617188 217.2746582 C-106.01367188 215.3371582 -106.01367188 215.3371582 -104.07617188 214.2746582 C-105.08679688 213.5115332 -106.09742188 212.7484082 -107.13867188 211.9621582 C-116.49867353 203.92847257 -123.09342633 190.26680156 -124.29907227 178.00830078 C-124.41306645 175.67695967 -124.44728189 173.35864966 -124.45117188 171.0246582 C-124.47566406 170.23575195 -124.50015625 169.4468457 -124.52539062 168.6340332 C-124.54392948 164.97569849 -124.46728044 162.88399401 -122.45898438 159.75512695 C-116.14914921 155.83475396 -106.65622711 157.92317875 -99.76367188 159.5246582 C-94.63780509 160.96265305 -89.83889908 162.90532169 -85.07617188 165.2746582 C-84.9653125 164.39551758 -84.85445313 163.51637695 -84.74023438 162.6105957 C-83.02160045 153.97698764 -77.31616723 146.31520165 -71.07617188 140.2746582 C-70.4909375 139.7074707 -69.90570313 139.1402832 -69.30273438 138.5559082 C-66.03708169 136.67672561 -63.77950854 136.80361977 -60.07617188 137.2746582 C-51.95780012 142.73522968 -44.35698617 152.9803708 -42.39257812 162.6340332 C-42.23595703 163.94114258 -42.23595703 163.94114258 -42.07617188 165.2746582 C-41.06296875 164.85313477 -40.04976563 164.43161133 -39.00585938 163.99731445 C-37.65443007 163.44360384 -36.30286004 162.8902366 -34.95117188 162.3371582 C-34.28601563 162.05936523 -33.62085938 161.78157227 -32.93554688 161.49536133 C-26.55892502 158.90095146 -20.79369412 158.12416261 -13.88867188 158.0871582 C-12.67824219 158.07297852 -11.4678125 158.05879883 -10.22070312 158.04418945 C-7.07617188 158.2746582 -7.07617188 158.2746582 -4.07617188 160.2746582 C-0.03491655 172.39842418 -3.97252694 186.48395889 -9.32617188 197.5246582 C-12.85167358 204.27689028 -16.68723276 210.01536546 -23.07617188 214.2746582 C-22.11710937 214.8315332 -22.11710937 214.8315332 -21.13867188 215.3996582 C-18.29645721 217.98348972 -18.27649194 219.45243092 -18.07617188 223.2746582 C-18.81197037 226.21144784 -19.96439988 228.92911835 -21.15429688 231.70825195 C-21.48153748 232.50441422 -21.80877808 233.30057648 -22.14593506 234.12086487 C-23.19226993 236.65725303 -24.25884399 239.18454267 -25.32617188 241.7121582 C-26.02933892 243.40756489 -26.73117589 245.10352388 -27.43164062 246.80004883 C-30.26548788 253.64544011 -33.15021411 260.46816297 -36.07617188 267.2746582 C-34.94598633 267.28400391 -33.81580078 267.29334961 -32.65136719 267.30297852 C-28.45402766 267.34288212 -24.25742084 267.40864147 -20.06054688 267.48217773 C-18.24488749 267.5103853 -16.42910535 267.53160094 -14.61328125 267.5456543 C-12.00131398 267.56708729 -9.39082213 267.61373705 -6.77929688 267.6652832 C-5.9687384 267.66651184 -5.15817993 267.66774048 -4.32305908 267.66900635 C-1.10717509 267.7523909 1.36362236 267.93326258 4.1418457 269.62634277 C7.00399887 273.87996745 6.44643967 278.183883 6.37792969 283.19360352 C6.37851379 284.30609467 6.3790979 285.41858582 6.37969971 286.56478882 C6.37691149 290.24443693 6.3457831 293.92327648 6.31445312 297.6027832 C6.3069934 300.15296994 6.3012992 302.70316241 6.29730225 305.25335693 C6.28358667 311.28118357 6.25205694 317.30866278 6.21190429 323.3363502 C6.16279063 330.87302207 6.1409092 338.40974123 6.11914062 345.9465332 C6.08019304 359.38946781 6.00006379 372.83176852 5.92382812 386.2746582 C25.06382812 386.2746582 44.20382813 386.2746582 63.92382812 386.2746582 C63.92382812 380.0046582 63.92382812 373.7346582 63.92382812 367.2746582 C62.52390625 367.32106445 61.12398437 367.3674707 59.68164062 367.4152832 C46.48037274 367.72714285 36.65975212 367.59885479 26.61132812 358.13793945 C24.09299551 355.35728053 22.55450953 352.66145805 20.92382812 349.2746582 C20.565273 348.58193723 20.20671787 347.88921625 19.83729744 347.17550373 C18.50399059 342.94140724 18.65558348 338.89971815 18.68331909 334.48612976 C18.68161024 333.49363797 18.67990139 332.50114617 18.67814076 331.47857887 C18.67484398 328.14970852 18.6858528 324.82103931 18.69677734 321.4921875 C18.69734142 319.1072439 18.69702498 316.72229996 18.69589233 314.33735657 C18.69537735 308.53136639 18.70405357 302.72544221 18.71676765 296.91946711 C18.73106827 290.16303773 18.73405829 283.40661771 18.73634399 276.65017531 C18.74072 264.60140502 18.75402655 252.55266183 18.77294922 240.50390625 C18.79131045 228.80045711 18.80546577 217.09701533 18.81396484 205.39355469 C18.81449029 204.67201538 18.81501574 203.95047606 18.81555711 203.20707192 C18.8181672 199.5872799 18.82069461 195.96748782 18.82318091 192.34769571 C18.84391048 162.32333089 18.87928225 132.29899772 18.92382812 102.2746582 C18.36894714 102.28132004 17.81406616 102.28798187 17.24237061 102.29484558 C11.46746616 102.36121318 5.69267006 102.40646461 -0.08251953 102.43945312 C-2.23783773 102.45454003 -4.39312524 102.47501209 -6.54833984 102.50097656 C-9.64623592 102.53736364 -12.7437261 102.55438559 -15.84179688 102.56762695 C-16.8054718 102.58311081 -17.76914673 102.59859467 -18.76202393 102.61454773 C-19.66265564 102.61477432 -20.56328735 102.61500092 -21.49121094 102.61523438 C-22.67701752 102.62522713 -22.67701752 102.62522713 -23.88677979 102.63542175 C-26.69469961 102.17273847 -28.05606311 101.26138873 -30.07617188 99.2746582 C-30.6395762 93.50882966 -29.66944649 88.33730577 -28.36376953 82.73486328 C-28.18166428 81.92242661 -27.99955902 81.10998993 -27.81193542 80.27293396 C-27.21306496 77.61138179 -26.60193 74.95282072 -25.99023438 72.29418945 C-25.56840718 70.43444437 -25.14722382 68.57455316 -24.72665405 66.71452332 C-23.84587275 62.82749228 -22.95936404 58.94182898 -22.06835938 55.05712891 C-20.92756351 50.08256598 -19.79800203 45.10553812 -18.67231178 40.12753773 C-17.8040532 36.29119394 -16.93145627 32.45584791 -16.05738449 28.62082481 C-15.63939155 26.78585481 -15.22237306 24.95066255 -14.80635452 23.11524391 C-14.22418542 20.55127937 -13.63657324 17.98862393 -13.04736328 15.42626953 C-12.79165306 14.29389359 -12.79165306 14.29389359 -12.53077698 13.13864136 C-9.49683346 0.03965248 -9.49683346 0.03965248 0 0 Z M0.92382812 13.2746582 C-4.68617188 38.3546582 -10.29617187 63.4346582 -16.07617188 89.2746582 C10.98382813 89.2746582 38.04382813 89.2746582 65.92382812 89.2746582 C64.28900258 80.24318437 64.28900258 80.24318437 62.42749023 71.27441406 C62.15057846 70.02039291 61.87366669 68.76637177 61.58836365 67.47434998 C61.29275709 66.14603969 60.99702361 64.81775765 60.70117188 63.48950195 C60.3924351 62.09756309 60.08380776 60.70559995 59.77528381 59.31361389 C59.13373682 56.42149011 58.49063437 53.52971781 57.84643555 50.63818359 C57.02047435 46.93002499 56.198879 43.22091419 55.37845516 39.51152706 C54.74464954 36.6484492 54.10838217 33.78592277 53.47137642 30.92355537 C53.16715449 29.55496679 52.86374748 28.18619679 52.56117058 26.81724358 C52.14024067 24.91438338 51.71559785 23.01234564 51.29077148 21.11035156 C51.05031601 20.02878281 50.80986053 18.94721405 50.56211853 17.83287048 C50.03013188 15.30611241 50.03013188 15.30611241 48.92382812 13.2746582 C33.08382812 13.2746582 17.24382812 13.2746582 0.92382812 13.2746582 Z M-64.07617188 152.2746582 C-72.6108831 163.14656727 -76.12277903 174.57905602 -75.07617188 188.2746582 C-73.35479426 197.27559655 -69.78814092 204.16678662 -64.07617188 211.2746582 C-56.38864137 204.90499007 -52.81859398 194.52755108 -51.82226562 184.79418945 C-51.27691968 172.6030689 -55.75008392 161.86971828 -63.07617188 152.2746582 C-63.40617187 152.2746582 -63.73617187 152.2746582 -64.07617188 152.2746582 Z M-111.07617188 171.2746582 C-112.01967103 181.65314889 -107.52273779 190.76426071 -101.28320312 198.7980957 C-95.84457692 204.90090812 -89.52126108 209.0092682 -82.07617188 212.2746582 C-81.41617188 212.2746582 -80.75617188 212.2746582 -80.07617188 212.2746582 C-80.98669962 209.46719766 -81.9074782 206.68533051 -83.02929688 203.9543457 C-85.27184453 198.34797656 -86.30687312 193.50139365 -86.76367188 187.4621582 C-87.30167011 182.36694236 -87.30167011 182.36694236 -89.84570312 178.09106445 C-95.9725564 173.78831811 -103.61483534 171.2746582 -111.07617188 171.2746582 Z M-25.88867188 173.0246582 C-27.38333984 173.51192383 -27.38333984 173.51192383 -28.90820312 174.0090332 C-30.47634766 174.63551758 -30.47634766 174.63551758 -32.07617188 175.2746582 C-32.69975586 175.51120117 -33.32333984 175.74774414 -33.96582031 175.99145508 C-36.79668701 177.27781491 -38.65575334 178.21034194 -39.83032227 181.18383789 C-40.2683181 183.55146757 -40.51223051 185.87444649 -40.70117188 188.2746582 C-41.6381012 196.42190347 -43.35652522 202.90226502 -47.07617188 210.2746582 C-47.40617187 210.9346582 -47.73617187 211.5946582 -48.07617188 212.2746582 C-38.62400479 210.71860968 -29.92313951 204.60122878 -24.34960938 196.8840332 C-19.11175655 188.472506 -16.6633569 181.15556477 -16.07617188 171.2746582 C-19.93416586 171.2746582 -22.27673632 171.81913414 -25.88867188 173.0246582 Z M59.54882812 216.7121582 C56.45507223 221.59077327 55.67759658 225.32737783 55.72851562 231.10668945 C55.73496094 232.39897461 55.74140625 233.69125977 55.74804688 235.02270508 C55.76475485 236.37752551 55.78168471 237.73234321 55.79882812 239.0871582 C55.8088681 240.46150071 55.81799217 241.83585024 55.82617188 243.21020508 C55.84971571 246.56520137 55.88260246 249.91984019 55.92382812 253.2746582 C56.75527344 253.6787793 57.58671875 254.08290039 58.44335938 254.49926758 C59.53003906 255.03358398 60.61671875 255.56790039 61.73632812 256.1184082 C63.35474609 256.91021484 63.35474609 256.91021484 65.00585938 257.71801758 C70.53995061 260.67027375 73.81543322 264.91535664 76.92382812 270.2746582 C80.23190857 281.85293976 79.50884737 294.24021634 79.92382812 306.2746582 C133.38382813 306.2746582 186.84382813 306.2746582 241.92382812 306.2746582 C242.25382813 296.0446582 242.58382812 285.8146582 242.92382812 275.2746582 C251.04577934 259.03075576 251.04577934 259.03075576 261.15820312 255.1184082 C262.05249023 254.7697168 262.94677734 254.42102539 263.86816406 254.06176758 C264.5465332 253.80202148 265.22490234 253.54227539 265.92382812 253.2746582 C266.01155391 248.94145426 266.06446392 244.60848152 266.11132812 240.2746582 C266.13646484 239.05391602 266.16160156 237.83317383 266.1875 236.57543945 C266.25085314 228.76188549 266.27166503 222.2097165 260.98632812 215.99731445 C260.30570313 215.44946289 259.62507812 214.90161133 258.92382812 214.3371582 C258.24320313 213.77125977 257.56257812 213.20536133 256.86132812 212.62231445 C252.99861078 209.93554533 249.21787383 210.12628891 244.70747375 210.12748718 C243.96734848 210.12381049 243.2272232 210.12013381 242.46466988 210.1163457 C239.97749755 210.10530747 237.49036699 210.10146478 235.00317383 210.09765625 C233.22262947 210.09139167 231.44208642 210.08474487 229.6615448 210.07774353 C223.80757559 210.05669887 217.95360611 210.04634028 212.09960938 210.03637695 C210.08426589 210.03232945 208.06892254 210.02821253 206.05357933 210.02402687 C196.58475506 210.00497376 187.11593859 209.99074337 177.64709884 209.9824149 C166.71848953 209.97264374 155.79008283 209.94632783 144.86154491 209.90591401 C136.41386917 209.87574705 127.96625148 209.86094544 119.51852292 209.85763389 C114.47346745 209.85528392 109.42862841 209.84633039 104.38363075 209.82117271 C99.63527244 209.79787713 94.88727281 209.79366477 90.13887215 209.8039341 C88.39904334 209.80442922 86.65919679 209.79811577 84.91942215 209.78437805 C71.00890956 209.47307628 71.00890956 209.47307628 59.54882812 216.7121582 Z M-92.07617188 228.2746582 C-90.25981647 234.32917623 -88.5840878 239.80900259 -86.19335938 245.55981445 C-85.93362335 246.18697861 -85.67388733 246.81414276 -85.40628052 247.46031189 C-84.86578418 248.76259244 -84.32296533 250.06391148 -83.77783203 251.36425781 C-82.94049884 253.36263038 -82.11134567 255.36425859 -81.28320312 257.36645508 C-79.30034468 263.23307893 -79.30034468 263.23307893 -76.07617188 268.2746582 C-74.22247576 268.36203465 -72.36549647 268.38163973 -70.50976562 268.37231445 C-69.38505859 268.3690918 -68.26035156 268.36586914 -67.1015625 268.36254883 C-65.91755859 268.35416992 -64.73355469 268.34579102 -63.51367188 268.3371582 C-62.32580078 268.33264648 -61.13792969 268.32813477 -59.9140625 268.32348633 C-56.96804962 268.31165495 -54.02213507 268.29517107 -51.07617188 268.2746582 C-47.23352742 260.01450209 -43.6965427 251.6499622 -40.26367188 243.2121582 C-39.756623 241.97838797 -39.24946209 240.74466377 -38.7421875 239.51098633 C-38.26845703 238.34889648 -37.79472656 237.18680664 -37.30664062 235.98950195 C-36.87762451 234.93883545 -36.4486084 233.88816895 -36.0065918 232.80566406 C-34.96116055 230.41122877 -34.96116055 230.41122877 -35.07617188 228.2746582 C-53.88617188 228.2746582 -72.69617188 228.2746582 -92.07617188 228.2746582 Z M34.98632812 272.3371582 C32.06438513 276.49871338 31.79369936 279.33372599 31.76269531 284.30322266 C31.75308777 285.54493729 31.74348022 286.78665192 31.73358154 288.06599426 C31.72873306 289.42330745 31.72445436 290.78062278 31.72070312 292.13793945 C31.71494849 293.53175355 31.7091908 294.92556764 31.70343018 296.31938171 C31.6929285 299.24222176 31.68708061 302.16503437 31.68359375 305.08789062 C31.67811517 308.82367592 31.65409767 312.55909561 31.6256218 316.29476643 C31.60694827 319.1747695 31.60178729 322.0546854 31.60025787 324.93474388 C31.59724069 326.31139306 31.5892438 327.68804104 31.57607269 329.06463051 C31.55891784 330.9956497 31.56275084 332.92682032 31.56738281 334.85791016 C31.56373718 335.9547261 31.56009155 337.05154205 31.55633545 338.18159485 C32.17789527 343.41305665 34.36161655 347.28215712 38.42382812 350.5871582 C39.01164063 351.07829102 39.59945312 351.56942383 40.20507812 352.07543945 C44.41248208 355.01105994 49.13525649 354.42581153 54.03837585 354.42855835 C54.98267875 354.4329406 55.92698165 354.43732286 56.89989978 354.44183791 C60.0780439 354.45523938 63.25616028 354.46140781 66.43432617 354.4675293 C68.70747504 354.47542919 70.98062264 354.48369807 73.25376892 354.49230957 C80.73101603 354.51854237 88.20826878 354.53383831 95.68554688 354.5480957 C98.25809038 354.55345483 100.83063384 354.55883234 103.40317726 354.56422806 C114.1030659 354.58585847 124.80295167 354.60474698 135.50285625 354.61585045 C138.27916658 354.61878008 141.05547687 354.62174176 143.83178711 354.62475586 C144.52181475 354.62550191 145.21184239 354.62624796 145.92277995 354.62701662 C157.09788683 354.63966709 168.27283448 354.67288656 179.44786694 354.71455769 C190.92441826 354.75700189 202.40084886 354.78014084 213.87748557 354.78577101 C220.31984848 354.78942682 226.76194147 354.80147316 233.20422935 354.83387375 C239.26584858 354.86392256 245.32703413 354.87027724 251.38871193 354.85848999 C253.61231222 354.85826899 255.83593245 354.86659549 258.0594635 354.88414383 C261.0982852 354.90681915 264.13553218 354.89854722 267.17436218 354.88265991 C268.0517131 354.896542 268.92906401 354.91042409 269.83300132 354.92472684 C275.98315069 354.84565003 280.1836227 353.24350466 284.92382812 349.2746582 C288.80154238 344.30322967 290.04263618 340.6854341 290.10083008 334.46142578 C290.11366531 333.26620804 290.12650055 332.0709903 290.13972473 330.83955383 C290.14711166 329.54583359 290.1544986 328.25211334 290.16210938 326.91918945 C290.1661849 326.25893957 290.17026043 325.59868969 290.17445946 324.91843224 C290.19530534 321.42088512 290.20961106 317.92337701 290.21899414 314.42578125 C290.2300307 310.82907646 290.26440176 307.23299511 290.30416584 303.6365099 C290.33043082 300.85764998 290.33869483 298.07893609 290.34227562 295.299963 C290.34946119 293.33471712 290.37586086 291.36957146 290.40266418 289.40449524 C290.38402078 281.68743935 290.04221872 275.44414635 284.33979797 269.67097473 C280.49470278 266.34277754 276.42886512 265.33836832 271.41601562 265.0793457 C265.77152186 265.52170415 261.66253707 268.13577656 257.98632812 272.3371582 C254.73228321 276.97170702 254.77799676 280.84014968 254.74804688 286.30200195 C254.72485416 287.91464529 254.70073705 289.52727556 254.67578125 291.13989258 C254.64063585 293.67896355 254.61129967 296.21755101 254.59790039 298.75683594 C254.58242688 301.20998313 254.54223269 303.66172589 254.49804688 306.11450195 C254.49995529 306.8719017 254.50186371 307.62930145 254.50382996 308.40965271 C254.42864203 311.65026398 254.25917885 313.80746477 252.34422398 316.47528172 C249.01683076 318.94894036 246.79411639 318.7752056 242.66746521 318.77586365 C241.5690799 318.78416524 241.5690799 318.78416524 240.44850498 318.79263455 C237.9938896 318.80625218 235.54028908 318.79126671 233.08569336 318.77636719 C231.32644213 318.78014994 229.56719388 318.78564963 227.80795288 318.79273987 C223.02908875 318.80671643 218.25058376 318.79550975 213.47173953 318.77902865 C208.47497689 318.76519382 203.47823544 318.77163636 198.48146057 318.77516174 C190.09085287 318.77786486 181.70038814 318.7643787 173.30981445 318.74121094 C163.60196274 318.71459191 153.89434997 318.71285648 144.18647426 318.7245993 C134.85538 318.73536858 125.52437237 318.72919726 116.19328499 318.71504402 C112.21844503 318.70927771 108.24366834 318.70937194 104.26882744 318.71410942 C99.59105946 318.7188726 94.91355404 318.70880502 90.23583603 318.68715477 C88.51650312 318.68157803 86.79714503 318.68112971 85.07781029 318.68610764 C82.7359821 318.69203886 80.39496258 318.67959796 78.0532074 318.66233826 C76.7411605 318.65990836 75.4291136 318.65747847 74.0773077 318.65497494 C70.92382812 318.2746582 70.92382812 318.2746582 69.00129795 316.97032261 C67.14416153 314.0476606 67.52508012 310.74183798 67.55273438 307.38793945 C67.53533923 305.7935364 67.517755 304.19913541 67.5 302.60473633 C67.48996724 300.10119615 67.48632083 297.59779763 67.48803711 295.09423828 C67.48443842 292.67088324 67.45697919 290.2486014 67.42773438 287.82543945 C67.4359169 287.08868484 67.44409943 286.35193024 67.45252991 285.59284973 C67.36625201 279.4848682 65.68210049 274.10489636 61.34010315 269.64961243 C52.91178255 262.47257732 41.97265459 264.3527851 34.98632812 272.3371582 Z M-120.07617188 281.2746582 C-120.07617188 300.7446582 -120.07617188 320.2146582 -120.07617188 340.2746582 C-82.78617188 340.2746582 -45.49617188 340.2746582 -7.07617188 340.2746582 C-7.07617188 320.8046582 -7.07617188 301.3346582 -7.07617188 281.2746582 C-44.36617187 281.2746582 -81.65617187 281.2746582 -120.07617188 281.2746582 Z M-120.07617188 353.2746582 C-120.07617188 364.1646582 -120.07617188 375.0546582 -120.07617188 386.2746582 C-82.78617188 386.2746582 -45.49617188 386.2746582 -7.07617188 386.2746582 C-7.07617188 375.3846582 -7.07617188 364.4946582 -7.07617188 353.2746582 C-44.36617187 353.2746582 -81.65617187 353.2746582 -120.07617188 353.2746582 Z M76.92382812 367.2746582 C76.92382812 373.5446582 76.92382812 379.8146582 76.92382812 386.2746582 C84.61057261 387.18996203 84.61057261 387.18996203 87.78710938 383.5715332 C88.63006267 382.40802021 89.44617902 381.22465701 90.23632812 380.0246582 C90.65205078 379.43813477 91.06777344 378.85161133 91.49609375 378.24731445 C92.65801348 376.60326269 93.79184206 374.93946186 94.92382812 373.2746582 C95.51550781 372.51668945 96.1071875 371.7587207 96.71679688 370.9777832 C98.11656979 369.35061188 98.11656979 369.35061188 97.92382812 367.2746582 C90.99382812 367.2746582 84.06382812 367.2746582 76.92382812 367.2746582 Z M104.92382812 380.2746582 C104.06123383 381.40861275 104.06123383 381.40861275 103.18121338 382.56547546 C101.72630008 384.18951641 101.72630008 384.18951641 101.92382812 386.2746582 C140.86382812 386.2746582 179.80382812 386.2746582 219.92382812 386.2746582 C217.61382812 382.6446582 215.30382812 379.0146582 212.92382812 375.2746582 C211.49970612 372.98882561 211.49970612 372.98882561 210.04681396 370.65681458 C207.83633496 367.80207763 206.36289159 366.74740697 202.7769165 366.22514343 C201.17102408 366.16285587 199.56307214 366.14387369 197.95605469 366.16015625 C197.07391296 366.13810623 196.19177124 366.11605621 195.28289795 366.09333801 C192.37568192 366.0327947 189.47224622 366.03160846 186.56445312 366.03637695 C184.53430712 366.01827615 182.50417509 365.99854174 180.47406006 365.97724915 C176.22025237 365.94291659 171.96776617 365.9400354 167.71386719 365.95703125 C162.28021548 365.97459387 156.8527049 365.89663259 151.42020035 365.79245281 C147.22636817 365.72576891 143.03399913 365.71935306 138.83971405 365.72974586 C136.83824806 365.72586308 134.83670689 365.70148015 132.83576202 365.65564537 C118.3445274 365.36122446 112.0007104 367.38631896 104.92382812 380.2746582 Z M222.92382812 367.2746582 C224.90382813 370.2446582 226.88382812 373.2146582 228.92382812 376.2746582 C229.51808594 377.28657227 230.11234375 378.29848633 230.72460938 379.34106445 C231.22347656 380.16477539 231.72234375 380.98848633 232.23632812 381.8371582 C232.72746094 382.68407227 233.21859375 383.53098633 233.72460938 384.40356445 C236.58503929 387.24666086 236.58503929 387.24666086 244.92382812 386.2746582 C244.92382812 380.0046582 244.92382812 373.7346582 244.92382812 367.2746582 C237.66382813 367.2746582 230.40382813 367.2746582 222.92382812 367.2746582 Z M-144.07617188 399.2746582 C-144.07617188 402.5746582 -144.07617188 405.8746582 -144.07617188 409.2746582 C7.06382813 409.2746582 158.20382813 409.2746582 313.92382812 409.2746582 C313.92382812 405.9746582 313.92382812 402.6746582 313.92382812 399.2746582 C162.78382813 399.2746582 11.64382812 399.2746582 -144.07617188 399.2746582 Z " fill="#000000" transform="translate(171.076171875,44.725341796875)"/>
<path d="M0 0 C0.85428589 -0.00287018 1.70857178 -0.00574036 2.58874512 -0.00869751 C4.39429385 -0.01073831 6.19986469 -0.00520733 8.00537109 0.00732422 C10.77101012 0.02337806 13.53518775 0.00747651 16.30078125 -0.01171875 C18.05469073 -0.00973632 19.8085993 -0.00589265 21.5625 0 C22.39068237 -0.00607269 23.21886475 -0.01214539 24.07214355 -0.0184021 C29.8264654 0.05218509 29.8264654 0.05218509 31.99597168 1.70394897 C34.1487337 4.54211288 33.70811269 6.98353601 33.28125 10.3984375 C30.80676803 13.18182853 29.2336154 13.40332011 25.49414062 13.78662109 C23.97538485 13.8063613 22.45633756 13.80875878 20.9375 13.796875 C19.72833923 13.80118027 19.72833923 13.80118027 18.49475098 13.80557251 C16.79353125 13.80761042 15.09228795 13.80209964 13.39111328 13.78955078 C10.79015609 13.77349249 8.19075273 13.78940793 5.58984375 13.80859375 C3.93489241 13.80661127 2.27994204 13.80276749 0.625 13.796875 C-0.15113647 13.80294769 -0.92727295 13.80902039 -1.72692871 13.8152771 C-4.94634692 13.77343233 -7.33647864 13.59862855 -10.21289062 12.09228516 C-11.71875 10.3984375 -11.71875 10.3984375 -12.15625 6.8984375 C-11.71875 3.3984375 -11.71875 3.3984375 -10.43347168 1.70394897 C-7.41636061 -0.59314283 -3.64578378 -0.02673291 0 0 Z " fill="#000000" transform="translate(96.71875,348.6015625)"/>
</svg>
