<?xml version="1.0" encoding="UTF-8"?>
<svg version="1.1" xmlns="http://www.w3.org/2000/svg" width="512" height="512">
<path d="M0 0 C3.59108892 0.00913798 7.18210314 -0.00496208 10.77317667 -0.01591969 C17.788705 -0.0336172 24.80406124 -0.02990434 31.81959605 -0.01826912 C37.52612204 -0.0092003 43.23260012 -0.00802563 48.93913126 -0.01236439 C49.75427499 -0.01297732 50.56941873 -0.01359025 51.40926379 -0.01422176 C53.06570682 -0.01550078 54.72214984 -0.01679764 56.37859285 -0.01811212 C71.87626554 -0.02949223 87.37384326 -0.01644469 102.87150037 0.00508934 C116.14161959 0.02295799 129.4115988 0.01985316 142.68171549 0.0014143 C158.12755016 -0.02003797 173.57330181 -0.02839383 189.0191493 -0.01613665 C190.66917339 -0.01486258 192.31919748 -0.01360509 193.96922159 -0.01236439 C194.78086273 -0.01174729 195.59250388 -0.01113018 196.4287402 -0.01049438 C202.12208435 -0.00705452 207.81537541 -0.01284024 213.50871134 -0.0222826 C220.45607853 -0.03355255 227.40326517 -0.03035838 234.35061193 -0.00915962 C237.88879094 0.00128417 241.42666998 0.00558829 244.96484613 -0.00775623 C262.0472305 -0.06685429 277.42548202 0.12628122 292.82917643 8.33539867 C293.49417154 8.67869213 294.15916666 9.02198559 294.84431314 9.37568188 C300.18741586 12.21025199 304.89572042 15.54542236 309.45417643 19.52289867 C310.42355143 20.29762524 311.39292643 21.0723518 312.39167643 21.87055492 C326.13384976 33.34675448 333.81733609 51.19116687 336.45417643 68.52289867 C337.43644205 68.36241039 337.43644205 68.36241039 338.43855143 68.19867992 C347.54099088 67.0030205 356.16559421 67.82810598 363.82917643 73.27289867 C371.10109009 79.4132905 376.81019755 86.16574534 377.7977128 95.9141798 C378.08092796 108.84955095 375.33390658 120.58172997 372.19636393 133.07367992 C371.64893029 135.30718199 371.10282295 137.5410095 370.55796671 139.77514172 C369.41860734 144.42836335 368.26580624 149.07797156 367.10261393 153.72529125 C365.62012461 159.6514773 364.16816547 165.58463219 362.72575045 171.52068329 C361.6041559 176.12444792 360.46828094 180.72459598 359.32799006 185.32376194 C358.78749303 187.5094474 358.25089621 189.69610152 357.71845484 191.88376331 C353.32888938 209.85493016 349.04524787 224.60120794 333.50495768 235.84711742 C329.03033841 238.30500688 324.27594765 239.8749784 319.45417643 241.52289867 C319.68080973 242.25291088 319.90744303 242.98292309 320.140944 243.73505688 C321.18477873 247.10124428 322.22574208 250.46831331 323.26667643 253.83539867 C323.62310221 254.98330883 323.97952799 256.13121899 324.34675455 257.3139143 C326.01725641 262.72388822 327.66544065 268.13966643 329.21589518 273.58539867 C329.45654703 274.42844555 329.69719889 275.27149242 329.94514322 276.14008617 C331.18356948 281.93722777 330.17548317 286.73321985 327.26667643 291.83539867 C324.20865284 296.28504459 320.57779504 298.8150258 315.45417643 300.52289867 C308.75459995 301.24878529 302.90542955 300.74395182 297.45417643 296.52289867 C292.45417643 290.52289867 292.45417643 290.52289867 283.45417643 268.52289867 C176.53417643 268.19289867 69.61417643 267.86289867 -40.54582357 267.52289867 C-41.53582357 270.49289867 -42.52582357 273.46289867 -43.54582357 276.52289867 C-50.22831189 294.17194578 -50.22831189 294.17194578 -59.85832357 299.89789867 C-66.65845517 301.47932463 -72.7557956 301.24893601 -78.86222982 297.71039867 C-83.50572883 294.43516967 -85.24847069 290.25826878 -87.12785482 285.09711742 C-88.15048643 278.79885362 -86.13459073 272.49400551 -84.26066732 266.52289867 C-84.04012182 265.80174877 -83.81957632 265.08059887 -83.59234762 264.33759594 C-82.895513 262.06407674 -82.18959899 259.79350055 -81.48332357 257.52289867 C-81.00550345 255.96969973 -80.52828433 254.41631577 -80.05168295 252.86274242 C-78.88999274 249.08062225 -77.72015854 245.30111087 -76.54582357 241.52289867 C-77.42190268 241.20474194 -78.29798178 240.8865852 -79.20060873 240.55878735 C-80.93770102 239.91260448 -80.93770102 239.91260448 -82.70988607 239.25336742 C-83.85409018 238.83208569 -84.99829428 238.41080395 -86.17717123 237.9767561 C-97.32257329 233.16657569 -104.62836648 223.84659214 -109.04582357 212.77289867 C-110.37756142 208.68544356 -111.25406177 205.64276726 -109.54582357 201.52289867 C-107.42082357 199.08539867 -107.42082357 199.08539867 -104.54582357 197.52289867 C-101.17474214 197.58102077 -98.71297963 197.63156308 -95.97551107 199.72211742 C-94.10725735 202.07530039 -93.31335431 204.44960916 -92.29582357 207.27289867 C-89.19647731 214.91057339 -85.41126521 219.38908714 -77.92082357 222.89789867 C-72.62788742 225.09532704 -67.72422191 225.64823058 -62.01109266 225.65711975 C-61.04247661 225.6606481 -61.04247661 225.6606481 -60.05429256 225.66424772 C-57.88762404 225.6709117 -55.72101586 225.67048029 -53.55433798 225.67006969 C-51.98631246 225.67336993 -50.41828778 225.67709584 -48.85026419 225.68121117 C-44.53879678 225.69122095 -40.22734328 225.69494632 -35.9158659 225.69760048 C-31.26675053 225.70150652 -26.61764615 225.7110846 -21.96853781 225.71981335 C-10.74021809 225.73956842 0.48810251 225.74964238 11.71643525 225.75854114 C17.0048186 225.76292527 22.29320094 225.76829172 27.5815835 225.77353001 C45.16225142 225.79054069 62.74291873 225.80503504 80.32359362 225.81227875 C84.88502487 225.81418862 89.44645613 225.81610896 94.00788736 225.81806469 C95.70845432 225.8187903 95.70845432 225.8187903 97.44337617 225.81953057 C115.81029318 225.82783156 134.17714508 225.85317038 152.54403366 225.88564537 C171.40302333 225.91871851 190.26197991 225.93672771 209.12099874 225.93992299 C219.70881541 225.94208775 230.2965371 225.95083166 240.8843255 225.97638416 C249.90088787 225.99809454 258.91733218 226.00613986 267.93391772 225.99641738 C272.53276264 225.9918738 277.131364 225.99376238 281.7301755 226.01317883 C285.94472024 226.03081892 290.15884389 226.02980601 294.37339316 226.01428153 C295.89362292 226.01190676 297.4138819 226.01622228 298.93406703 226.02811018 C310.55410691 226.11331112 321.07359814 224.96100078 329.76414347 216.51806164 C337.07306737 207.88953508 338.86673658 196.0980277 341.43073893 185.40961742 C341.88620941 183.54908159 342.34272054 181.68880023 342.80021524 179.8287611 C343.99661896 174.95213681 345.1785164 170.07210972 346.3574357 165.19123363 C347.55240609 160.25593014 348.76192702 155.32419713 349.96980143 150.3920393 C352.31121721 140.81682166 354.6473658 131.24039033 356.94292307 121.65405941 C357.27356532 120.27577647 357.60575162 118.89786263 357.93979502 117.52040005 C358.37140411 115.73950978 358.79654428 113.95705531 359.22126627 112.17451 C359.56754572 110.73208683 359.56754572 110.73208683 359.92082071 109.2605238 C361.10678442 103.17317165 361.50895354 97.75415794 358.82917643 92.08539867 C355.25758803 88.23184277 352.17083118 85.99974722 347.07917643 84.58539867 C342.68581009 84.50965098 339.18041997 85.13371899 335.45417643 87.52289867 C330.95095517 92.06060095 329.1662218 96.26571968 327.39167643 102.33539867 C327.11203043 103.24467113 326.83238443 104.1539436 326.54426432 105.09076977 C324.73559206 111.0345633 323.02510929 117.00608505 321.31719828 122.97942638 C320.27520661 126.6203724 319.22614088 130.25927456 318.1780839 133.89847851 C317.40621522 136.59706846 316.64927237 139.29953203 315.89338541 142.002635 C311.15531354 158.70348716 305.8533859 172.18054727 290.68855143 181.88227367 C281.54257416 186.52153751 273.66434858 188.10905817 263.4365983 188.03083324 C262.16905962 188.03707321 260.90152094 188.04331317 259.59557199 188.04974222 C256.10702669 188.06632052 252.61892344 188.05824236 249.13037729 188.04579735 C245.35660789 188.03670155 241.58291152 188.0507389 237.80915689 188.06171703 C230.42812602 188.07945878 223.04725828 188.07568173 215.66622114 188.06406647 C209.66494332 188.05501526 203.66371107 188.05381543 197.66242838 188.05816174 C196.80673274 188.05877467 195.95103709 188.0593876 195.06941128 188.06001911 C193.33082118 188.06129807 191.5922311 188.06259492 189.85364103 188.06390947 C173.5692356 188.07530254 157.2849204 188.06222158 141.00052977 188.04070801 C127.04232516 188.02283818 113.08425363 188.02594264 99.12605143 188.04438305 C82.89800944 188.06581229 66.67004644 188.07420402 50.44199228 188.06193399 C48.70996969 188.06065986 46.97794709 188.05940238 45.24592447 188.05816174 C44.39384299 188.05754463 43.5417615 188.05692753 42.66385937 188.05629173 C36.67312863 188.05284499 30.6824482 188.05865257 24.69172525 188.06807995 C17.38622342 188.07932416 10.0808934 188.07620916 2.77541113 188.05495697 C-0.94856418 188.04447898 -4.67225352 188.04026871 -8.39622641 188.05355358 C-12.4404793 188.06776231 -16.48401662 188.05074257 -20.52824545 188.03083324 C-21.69489485 188.03975613 -22.86154425 188.04867902 -24.06354666 188.0578723 C-36.88160532 187.93576395 -47.98194897 183.24472965 -57.58097982 174.71430492 C-66.06999675 165.74020132 -69.67868611 153.85102273 -72.92863607 142.21821117 C-73.31272286 140.88172077 -73.69815763 139.54561711 -74.08485556 138.20987988 C-75.29319104 134.02622116 -76.48300371 129.83742027 -77.67082357 125.64789867 C-79.05663082 120.76477066 -80.45024487 115.88408115 -81.86066961 111.00800228 C-82.41651583 109.07290603 -82.95948225 107.13412487 -83.50215292 105.19529247 C-85.63427186 97.79788403 -87.27975643 92.20833166 -93.35832357 87.21039867 C-97.52048614 85.00690084 -100.88211573 83.99422384 -105.59269857 84.92914867 C-110.8626825 86.59335413 -113.39751147 89.03893901 -116.54582357 93.52289867 C-120.3903872 101.21202593 -116.57463382 111.87972931 -114.55212355 119.69490337 C-113.99810936 121.8370809 -113.4608181 123.98288927 -112.92730856 126.13025951 C-111.79358072 130.68145749 -110.63999465 135.22748549 -109.48332357 139.77289867 C-108.13803838 145.05982908 -106.80122728 150.34860881 -105.48585844 155.64306927 C-104.95833958 157.74793512 -104.41554842 159.8484607 -103.87198019 161.94922924 C-103.54757679 163.2473592 -103.2238947 164.5456697 -102.90104818 165.84418774 C-102.61458929 166.96794811 -102.3281304 168.09170849 -102.03299093 169.24952221 C-101.39589165 173.53032174 -101.49188864 177.60101732 -103.60832357 181.46039867 C-106.73610343 183.17563279 -110.13287559 183.35484569 -113.54582357 182.52289867 C-117.3436 179.4418166 -118.38224725 176.68989973 -119.56047201 172.00458813 C-119.72686682 171.35831463 -119.89326162 170.71204113 -120.0646987 170.04618359 C-120.60949764 167.91291035 -121.13316763 165.77512981 -121.65519857 163.63617992 C-122.02996146 162.13545946 -122.4054003 160.63490765 -122.78148031 159.13451672 C-123.56752537 155.98363283 -124.34267297 152.83030457 -125.11076498 149.67499828 C-126.08510262 145.67770531 -127.0896751 141.68876704 -128.10349798 137.70133209 C-128.88807305 134.59788344 -129.6537507 131.48998622 -130.41448355 128.38061619 C-130.77670462 126.9110572 -131.14490532 125.44295611 -131.51975393 123.97656727 C-133.5245971 116.09508401 -134.8664764 108.55353334 -134.92961264 100.3986311 C-134.9376227 99.70743081 -134.94563276 99.01623053 -134.95388556 98.30408478 C-134.81549954 89.66360053 -130.90479208 82.77094711 -125.17082357 76.52289867 C-118.63689443 70.63376517 -110.3595488 67.31956891 -101.53019857 67.62836742 C-98.8563299 67.86490196 -96.20454061 68.1551509 -93.54582357 68.52289867 C-93.36019857 67.30280102 -93.36019857 67.30280102 -93.17082357 66.05805492 C-90.52370221 51.34998682 -84.5416992 38.6780334 -74.54582357 27.52289867 C-73.80332357 26.51227367 -73.06082357 25.50164867 -72.29582357 24.46039867 C-66.26572901 17.3954364 -57.90510936 12.42815926 -49.73332357 8.21039867 C-49.14317465 7.89731762 -48.55302572 7.58423656 -47.9449935 7.26166821 C-32.50259914 -0.34680335 -16.84133151 -0.06351846 0 0 Z M-62.03801107 37.64008617 C-71.5577595 48.58334838 -76.1504522 61.03769124 -78.87004232 75.13617992 C-78.51506959 78.84414815 -78.01536877 79.45228551 -75.71525717 82.17621899 C-72.44313555 86.39154951 -70.9216724 90.35507523 -69.51066732 95.45649242 C-69.14166059 96.71079807 -69.14166059 96.71079807 -68.76519918 97.99044323 C-67.98876722 100.64280392 -67.23560744 103.30110065 -66.48332357 105.96039867 C-65.97640837 107.70759343 -65.46795492 109.45434266 -64.95793295 111.20063305 C-63.95867974 114.63093225 -62.96847714 118.06362008 -61.98674154 121.49897289 C-60.57277525 126.44227396 -59.12869334 131.37638773 -57.67472982 136.30805492 C-57.45912909 137.03955257 -57.24352835 137.77105022 -57.02139425 138.52471447 C-56.52997443 140.19090484 -56.03797254 141.85692353 -55.54582357 143.52289867 C-52.62490783 143.84351618 -52.62490783 143.84351618 -51.14347982 142.35102367 C-50.63687826 141.83024242 -50.1302767 141.30946117 -49.60832357 140.77289867 C-34.27298912 127.25107887 -2.26096972 128.58229243 16.87507486 129.65912914 C26.09316252 130.30043481 35.16571781 131.46520598 44.20417643 133.39789867 C44.91823648 133.54710766 45.63229654 133.69631664 46.36799479 133.85004711 C52.81616608 135.33720936 58.88410701 137.58926109 63.45417643 142.52289867 C66.03306575 141.2850318 68.3468131 139.95026383 70.76667643 138.39789867 C74.40115616 136.30318777 77.24372662 136.03707754 81.45417643 136.52289867 C84.45417643 138.52289867 84.45417643 138.52289867 85.32917643 141.33539867 C85.48334374 145.2666652 84.94024805 146.49299888 82.45417643 149.52289867 C81.30450831 150.33905457 80.13607787 151.12916193 78.95417643 151.89789867 C75.0782357 154.5528771 73.72097224 156.90281982 72.45417643 161.52289867 C72.45417643 165.15289867 72.45417643 168.78289867 72.45417643 172.52289867 C106.11417643 172.52289867 139.77417643 172.52289867 174.45417643 172.52289867 C174.94326785 162.12144775 174.94326785 162.12144775 170.45417643 153.52289867 C165.08291656 149.84093107 160.06038899 148.48358646 153.70417643 147.33539867 C152.87402018 147.17104321 152.04386393 147.00668774 151.18855143 146.8373518 C138.8251228 144.4810502 126.77159688 144.44455189 114.22175455 144.82563305 C113.02099283 144.84303539 111.82023111 144.86043774 110.58308268 144.87836742 C109.50099527 144.90567944 108.41890787 144.93299145 107.30402994 144.9611311 C103.74779738 144.41427618 102.6080272 143.35247984 100.45417643 140.52289867 C99.86342563 136.97839392 99.98878856 135.2715661 101.89167643 132.21039867 C115.68292701 123.12835561 146.32275347 130.31349091 161.51667643 133.27289867 C167.95333012 134.60178983 173.16700869 136.40853249 178.54402018 140.35102367 C180.64893036 141.87151859 180.64893036 141.87151859 184.45417643 141.52289867 C185.38230143 140.78039867 186.31042643 140.03789867 187.26667643 139.27289867 C206.57350241 124.67908803 244.13313002 128.18487874 266.94782877 131.15473461 C271.06518206 131.75954357 275.13514683 132.52781849 279.20417643 133.39789867 C279.91823648 133.54710766 280.63229654 133.69631664 281.36799479 133.85004711 C287.68105042 135.30604721 293.07561362 137.93719014 298.45417643 141.52289867 C300.78080416 135.55510071 302.68924885 129.55401826 304.45027018 123.39789867 C305.01445896 121.45511356 305.5789204 119.5124076 306.14362955 117.56977367 C307.0199811 114.54268993 307.89395007 111.51497371 308.76301432 108.4857893 C309.61025182 105.53779498 310.46710836 102.59272857 311.32527018 99.64789867 C311.579573 98.7518391 311.83387583 97.85577953 312.0958848 96.93256664 C315.89851563 83.95014554 315.89851563 83.95014554 320.07671976 79.98188305 C321.78221938 78.50601745 321.78221938 78.50601745 321.48542643 75.62446117 C318.41636347 55.54015213 309.78043423 39.5904834 293.41902018 27.22992992 C278.69305008 17.5038555 263.3074062 15.36293026 246.01966715 15.38918591 C244.91027458 15.38692035 243.80088201 15.38465479 242.65787148 15.38232058 C238.96268372 15.37602075 235.26753301 15.37680736 231.57234049 15.377635 C228.91381047 15.37464101 226.25528329 15.3712659 223.59675455 15.36745739 C217.13773213 15.3591785 210.67871883 15.35640381 204.21969154 15.35584501 C198.9654722 15.35536856 193.71125585 15.35330736 188.45703745 15.35014439 C173.53522897 15.34134549 158.61342766 15.33672383 143.69161656 15.33747486 C142.88848593 15.33751482 142.08535529 15.33755477 141.25788736 15.33759594 C140.05170758 15.33765726 140.05170758 15.33765726 138.82116053 15.33771982 C125.79472442 15.33812611 112.76831725 15.32855876 99.74188951 15.31445757 C86.34181622 15.30006725 72.94175701 15.29318884 59.54167581 15.29405135 C52.02844997 15.29438239 44.51525446 15.29167604 37.00203562 15.2808733 C30.60463713 15.27173328 24.20728274 15.26962165 17.80988052 15.27638272 C14.55141251 15.2796303 11.29304575 15.2786652 8.03458261 15.27102947 C-19.10826187 15.21156812 -42.18806069 16.88529475 -62.03801107 37.64008617 Z M-14.98332357 145.83539867 C-15.97743246 145.95302563 -16.97154135 146.07065258 -17.99577475 146.19184399 C-26.68431928 147.32756347 -35.64587484 148.58576922 -42.27238607 154.76117992 C-44.52516853 157.87775934 -44.48062853 160.74158625 -44.54582357 164.52289867 C-43.12369122 165.50389236 -41.68181759 166.45626493 -40.23332357 167.39789867 C-39.43281576 167.93157055 -38.63230795 168.46524242 -37.80754232 169.01508617 C-27.62032391 173.72438714 -15.93665347 172.78642862 -4.97160482 172.71821117 C-3.1937083 172.7144738 -1.4158097 172.71163026 0.36208963 172.70963573 C5.00626833 172.70205623 9.65031883 172.68245759 14.29444742 172.66022778 C19.04754258 172.63964587 23.80065877 172.6306078 28.5537858 172.62055492 C37.85397185 172.59920549 47.15406341 172.56513948 56.45417643 172.52289867 C56.49814489 170.43063885 56.52961245 168.3381136 56.55573893 166.24555492 C56.57459146 165.08032299 56.593444 163.91509106 56.61286783 162.71454906 C56.40466107 158.52703064 55.370788 156.51626318 52.45417643 153.52289867 C47.37943738 149.45047978 42.61434584 148.40497759 36.26667643 147.33539867 C35.32340494 147.16814281 34.38013346 147.00088696 33.40827799 146.82856274 C27.10139472 145.73635793 20.85912621 144.74155983 14.45417643 144.52289867 C13.26952799 144.47133617 12.08487955 144.41977367 10.86433268 144.36664867 C2.16221313 144.11285898 -6.34458397 144.78973003 -14.98332357 145.83539867 Z M192.45417643 155.52289867 C190.11069073 159.04355652 190.24604253 162.11620364 190.32917643 166.27289867 C190.3472233 167.44336742 190.36527018 168.61383617 190.38386393 169.81977367 C190.40706705 170.71180492 190.43027018 171.60383617 190.45417643 172.52289867 C200.17335179 172.5694274 209.89248826 172.60487158 219.61175108 172.62652302 C224.12575411 172.63691941 228.63968042 172.65100209 233.15363932 172.67377758 C237.51733186 172.6956548 241.88095104 172.7074984 246.24469423 172.71265316 C247.90189311 172.71632239 249.55908839 172.72348676 251.21625566 172.73435879 C267.7567448 173.21726523 267.7567448 173.21726523 282.95417643 167.64789867 C283.74823893 167.1554768 284.54230143 166.66305492 285.36042643 166.15571117 C287.54618827 164.45114317 288.98778954 162.87005467 290.45417643 160.52289867 C290.68417841 157.99860372 290.68417841 157.99860372 289.45417643 155.52289867 C277.69363694 144.14968235 254.89216193 144.18029471 239.25984049 144.28852367 C213.99190559 144.63575594 213.99190559 144.63575594 192.45417643 155.52289867 Z M-59.54582357 242.52289867 C-69.41363642 263.05756167 -69.41363642 263.05756167 -70.54582357 283.52289867 C-68.89582357 283.85289867 -67.24582357 284.18289867 -65.54582357 284.52289867 C-63.00435243 281.44833176 -61.61773795 278.50253977 -60.24113607 274.76899242 C-59.61271811 273.11673656 -59.61271811 273.11673656 -58.97160482 271.4311018 C-58.1040905 269.1164277 -57.24471113 266.79868845 -56.39347982 264.4779768 C-55.97195639 263.37776196 -55.55043295 262.27754711 -55.11613607 261.14399242 C-54.74246908 260.13779858 -54.36880209 259.13160473 -53.98381186 258.09492016 C-52.21578869 254.9325901 -50.7791505 254.10933464 -47.54582357 252.52289867 C-44.76331854 252.14685118 -44.76331854 252.14685118 -41.66587973 252.14537525 C-39.88949055 252.13364039 -39.88949055 252.13364039 -38.07721472 252.12166846 C-36.13146614 252.13170671 -36.13146614 252.13170671 -34.14640951 252.14194775 C-32.75147145 252.13849089 -31.35653612 252.13372614 -29.9616065 252.12776601 C-26.12875009 252.11523003 -22.29611745 252.12143813 -18.46326017 252.13072467 C-14.3295923 252.13750421 -10.19596326 252.12703938 -6.06230307 252.1187849 C2.03540466 252.10543366 10.13302905 252.1083315 18.23074007 252.11702283 C24.81096313 252.1237935 31.3911628 252.12471877 37.97138834 252.12145138 C39.37531489 252.12076183 39.37531489 252.12076183 40.8076036 252.12005835 C42.70887328 252.11909919 44.61014295 252.11812655 46.51141262 252.11714058 C64.34644872 252.10858261 82.18143858 252.1184272 100.01646709 252.13454168 C115.32515378 252.14794522 130.63377222 252.14561725 145.94245768 252.13178539 C163.71296548 252.11573677 181.48343274 252.10940662 199.25394678 252.11862218 C201.14828602 252.11957785 203.04262526 252.12052096 204.93696451 252.12145138 C205.86905528 252.1219142 206.80114605 252.12237703 207.761482 252.12285388 C214.33504139 252.12544592 220.90857511 252.12106816 227.48213053 252.11401272 C235.49132812 252.10560549 243.50043749 252.10786147 251.50962496 252.12385495 C255.5973164 252.13174816 259.68486065 252.13481146 263.77255106 252.12490749 C267.51303793 252.11598171 271.2532409 252.12085824 274.99370193 252.13684015 C276.99099075 252.14178971 278.9882992 252.1319725 280.98556757 252.12166846 C282.16982702 252.1294917 283.35408648 252.13731494 284.57423258 252.14537525 C285.59638739 252.14586231 286.61854219 252.14634937 287.67167139 252.14685118 C290.94506929 252.58924142 292.8113468 253.56592991 295.45417643 255.52289867 C296.99983072 258.31025219 296.99983072 258.31025219 298.27839518 261.65180492 C298.74954752 262.85127758 299.22069986 264.05075024 299.70612955 265.28657055 C300.18550509 266.5525213 300.66401147 267.8188015 301.14167643 269.08539867 C302.09650529 271.56883987 303.06165274 274.04794399 304.02839518 276.52680492 C304.44693766 277.6283894 304.86548014 278.72997387 305.29670572 279.86493969 C306.30073263 282.6134442 306.30073263 282.6134442 308.45417643 284.52289867 C311.05698211 284.2024847 311.05698211 284.2024847 313.45417643 283.52289867 C317.92879621 270.09903932 306.71518233 256.01608403 302.45417643 242.52289867 C182.99417643 242.52289867 63.53417643 242.52289867 -59.54582357 242.52289867 Z " fill="#000000" transform="translate(134.54582357406616,105.47710132598877)"/>
<path d="M0 0 C2.375 1.0625 2.375 1.0625 4 3 C4.75 6.6875 4.75 6.6875 5 10 C6.093125 10.061875 7.18625 10.12375 8.3125 10.1875 C12 11 12 11 14 13.1875 C15.25267688 16.71065374 15.20482868 18.46081576 14 22 C11.6875 24.375 11.6875 24.375 9 26 C7.68 26 6.36 26 5 26 C4.9071875 27.36125 4.9071875 27.36125 4.8125 28.75 C4 32 4 32 1.875 34.4375 C-1.91688439 36.49830673 -3.89418083 36.14050533 -8 35 C-9.9375 33.8125 -9.9375 33.8125 -11 32 C-11.1875 28.8125 -11.1875 28.8125 -11 26 C-12.093125 25.896875 -13.18625 25.79375 -14.3125 25.6875 C-18 25 -18 25 -19.9375 23.9375 C-21.69220303 20.73774742 -21.626852 17.5005106 -21 14 C-19.375 11.5 -19.375 11.5 -17 10 C-13.75 9.75 -13.75 9.75 -11 10 C-11.0825 9.0925 -11.165 8.185 -11.25 7.25 C-11 4 -11 4 -9.4375 1.625 C-6.08716465 -0.6085569 -3.9518567 -0.49398209 0 0 Z " fill="#000000" transform="translate(375,155)"/>
<path d="M0 0 C2.4375 1.625 2.4375 1.625 4 4 C4.25 7.25 4.25 7.25 4 10 C4.9075 9.9175 5.815 9.835 6.75 9.75 C10 10 10 10 12.375 11.5 C14.34789171 14.53521802 14.63971021 16.52197594 14.453125 20.09375 C14 22 14 22 11.8125 24.5 C8.86008015 26.07462392 7.28423071 26.37534065 4 26 C4.103125 26.9075 4.20625 27.815 4.3125 28.75 C4 32 4 32 1.9375 34.4375 C-1.89546344 36.47631034 -3.86607156 36.14831346 -8 35 C-9.875 33.8125 -9.875 33.8125 -11 32 C-11.6875 28.8125 -11.6875 28.8125 -12 26 C-12.928125 25.896875 -13.85625 25.79375 -14.8125 25.6875 C-19.20472441 24.74015748 -19.20472441 24.74015748 -21 22 C-22.0631832 18.50668376 -22.22917707 16.6445605 -21 13.1875 C-18.24664065 10.17601321 -15.97094299 10.22477036 -12 10 C-11.9175 8.906875 -11.835 7.81375 -11.75 6.6875 C-11 3 -11 3 -9.375 1.0625 C-6.02317947 -0.43699866 -3.63019782 -0.45377473 0 0 Z " fill="#000000" transform="translate(144,155)"/>
<path d="M0 0 C2.4375 1.625 2.4375 1.625 4 4 C4.25 7.25 4.25 7.25 4 10 C4.9075 9.9175 5.815 9.835 6.75 9.75 C10 10 10 10 12.375 11.5 C14.34789171 14.53521802 14.63971021 16.52197594 14.453125 20.09375 C14 22 14 22 11.8125 24.5 C8.86008015 26.07462392 7.28423071 26.37534065 4 26 C4.103125 26.9075 4.20625 27.815 4.3125 28.75 C4 32 4 32 1.9375 34.4375 C-1.89546344 36.47631034 -3.86607156 36.14831346 -8 35 C-9.875 33.8125 -9.875 33.8125 -11 32 C-11.6875 28.8125 -11.6875 28.8125 -12 26 C-12.928125 25.896875 -13.85625 25.79375 -14.8125 25.6875 C-18.08902627 24.98079826 -19.15538519 24.71837973 -21 22 C-22.25618344 18.68008663 -22.05411455 17.17587227 -21 13.75 C-19 11 -19 11 -15.3125 10.125 C-14.219375 10.08375 -13.12625 10.0425 -12 10 C-11.9175 9.0925 -11.835 8.185 -11.75 7.25 C-10.19917288 0.52974917 -6.63337192 -0.94762456 0 0 Z " fill="#000000" transform="translate(221,155)"/>
<path d="M0 0 C3.18750407 2.18092383 3.87868068 3.47428296 4.75 7.25 C4.87375 8.61125 4.87375 8.61125 5 10 C6.093125 10.020625 7.18625 10.04125 8.3125 10.0625 C12 11 12 11 14.0625 14.25 C15 18 15 18 14.4375 20.75 C12.84278098 23.24608194 11.58466307 24.55562946 9 26 C7.68 26 6.36 26 5 26 C4.7525 27.093125 4.505 28.18625 4.25 29.3125 C3 33 3 33 1.3125 35 C-2.10768008 36.47899679 -4.44454479 35.90502496 -8 35 C-9.9375 33.8125 -9.9375 33.8125 -11 32 C-11.1875 28.8125 -11.1875 28.8125 -11 26 C-12.093125 25.896875 -13.18625 25.79375 -14.3125 25.6875 C-18 25 -18 25 -19.9375 23.9375 C-21.69220303 20.73774742 -21.626852 17.5005106 -21 14 C-19.375 11.5 -19.375 11.5 -17 10 C-13.75 9.75 -13.75 9.75 -11 10 C-11.0825 9.0925 -11.165 8.185 -11.25 7.25 C-11 4 -11 4 -9.4375 1.625 C-6.06489221 -0.62340519 -3.97487617 -0.56783945 0 0 Z " fill="#000000" transform="translate(298,155)"/>
</svg>
