<?xml version="1.0" encoding="UTF-8"?>
<svg version="1.1" xmlns="http://www.w3.org/2000/svg" width="512" height="512">
<path d="M0 0 C5.7928039 2.98159024 7.86639326 6.54382843 10.4375 12.25 C10.81801514 13.07846436 11.19853027 13.90692871 11.59057617 14.76049805 C18.86350343 31.22156182 22.71686339 48.72262874 25.57275391 66.41650391 C26.32326938 70.95476377 27.16478555 75.47668558 28 80 C34.22193919 73.14722383 34.22193919 73.14722383 40.25 66.125 C44.33599658 61.39149576 47.60722439 58.38931325 54.0078125 57.90625 C57.33741783 58.06293731 59.3199623 59.0678798 62 61 C65.16828908 66.02422313 65.71195268 70.72275751 66.1875 76.5 C66.26645508 77.39146729 66.34541016 78.28293457 66.42675781 79.20141602 C68.62354781 105.57953835 64.47332368 131.46071971 57 156.75 C56.77538086 157.51062744 56.55076172 158.27125488 56.31933594 159.05493164 C54.3087733 165.54684329 51.68138231 171.76022199 49 178 C49.81678223 177.97381592 50.63356445 177.94763184 51.47509766 177.9206543 C55.19153454 177.81643787 58.90766361 177.75159201 62.625 177.6875 C64.55279297 177.6246582 64.55279297 177.6246582 66.51953125 177.56054688 C77.18363997 177.42241075 77.18363997 177.42241075 80.80859375 180.37890625 C83.48093185 183.57523221 85.11889645 185.6546465 84.90149021 189.94320583 C84.30669916 195.1864096 83.38881432 200.24044639 82.14233398 205.36547852 C81.95687012 206.1470784 81.77140625 206.92867828 81.58032227 207.73396301 C80.97401691 210.28352584 80.36013392 212.83119632 79.74609375 215.37890625 C79.32106634 217.1595503 78.89651836 218.94030884 78.47242737 220.72117615 C77.36094396 225.38291641 76.24299924 230.04308328 75.12365723 234.70294189 C73.98019007 239.46833769 72.84290209 244.23520739 71.70507812 249.00195312 C69.47606405 258.33608021 67.24021454 267.66855521 65 277 C66.13018555 277.07782715 66.13018555 277.07782715 67.28320312 277.15722656 C68.27255859 277.23424805 69.26191406 277.31126953 70.28125 277.390625 C71.26158203 277.46313477 72.24191406 277.53564453 73.25195312 277.61035156 C78.10214895 278.2980659 80.81814763 280.58177716 83.875 284.25 C87.17786997 292.32368215 83.74838656 300.20738589 81 308 C80.67 308.66 80.34 309.32 80 310 C139.4 310 198.8 310 260 310 C251.39787679 274.87270543 251.39787679 274.87270543 242.79296875 239.74609375 C241.64166922 234.10101219 241.67595026 229.17522457 244.75 224.125 C248.00027768 221.0552933 250.54459426 220 255 220 C254.60167969 219.28457031 254.20335937 218.56914062 253.79296875 217.83203125 C246.88429405 204.8383438 243.97246799 191.69774576 247.25 177.19921875 C248.42478644 173.75440225 250.06005503 172.09062753 253 170 C265.90267626 165.57934942 279.82764753 167.56545226 292.0625 173.125 C299.11205675 176.87791937 306.63955584 182.19310203 311 189 C311 189.66 311 190.32 311 191 C311.61875 190.360625 312.2375 189.72125 312.875 189.0625 C313.91495644 188.03992445 314.95693911 187.01940871 316 186 C316.68191406 185.31035156 317.36382812 184.62070312 318.06640625 183.91015625 C330.30711743 172.11309522 343.60028171 167.51644652 360.46484375 167.8203125 C370.02211873 168.30609664 370.02211873 168.30609664 373.55078125 171.328125 C379.77942478 178.276133 378.52312837 187.85226417 378.18798828 196.61474609 C377.54652557 204.75382487 374.41494915 212.21989952 370 219 C370.53109375 219.23074219 371.0621875 219.46148437 371.609375 219.69921875 C376.11246172 221.77819857 379.62589639 223.44963475 382 228 C383.31337975 236.94425487 380.41431013 245.90106636 378.28125 254.5078125 C377.89911158 256.08511713 377.51798395 257.66266695 377.13781738 259.240448 C376.14173578 263.36264323 375.13208999 267.48139523 374.1194458 271.59954834 C373.08563497 275.81434693 372.06487646 280.03230276 371.04296875 284.25 C369.041305 292.50312008 367.02528005 300.75264363 365 309 C365.72590332 309.01458252 366.45180664 309.02916504 367.19970703 309.04418945 C370.50865732 309.11894859 373.81662952 309.2155179 377.125 309.3125 C378.26710938 309.33505859 379.40921875 309.35761719 380.5859375 309.38085938 C391.60083617 309.73307997 391.60083617 309.73307997 396 313 C399.27036468 316.94273578 399.38518536 320.28930973 399.3984375 325.3125 C399.40130768 326.00384033 399.40417786 326.69518066 399.40713501 327.4074707 C399.40916839 328.86312687 399.40368938 330.31881081 399.39111328 331.77441406 C399.37504732 333.99346425 399.39098461 336.21069347 399.41015625 338.4296875 C399.40817369 339.84896232 399.40432974 341.26823602 399.3984375 342.6875 C399.39505371 343.97011719 399.39166992 345.25273437 399.38818359 346.57421875 C398.96382799 350.31922367 398.3976976 352.10934742 396 355 C390.83471482 358.29705026 386.5107905 358.43992098 380.58569336 358.41992188 C379.19191216 358.43262619 379.19191216 358.43262619 377.76997375 358.44558716 C374.70978985 358.46891698 371.65010971 358.46998048 368.58984375 358.46875 C366.45805155 358.47585243 364.32626126 358.48355154 362.19447327 358.49182129 C357.73172689 358.50525573 353.26915741 358.50683878 348.80639648 358.50097656 C343.08736788 358.49507216 337.36918576 358.52570803 331.65032101 358.56609344 C327.25024338 358.59193529 322.85037079 358.59485121 318.45022774 358.59120178 C316.3414859 358.59289536 314.23273482 358.60256067 312.12406731 358.62034607 C309.17710367 358.64247303 306.23186964 358.63286655 303.28491211 358.61523438 C302.41464386 358.62849762 301.54437561 358.64176086 300.6477356 358.65542603 C296.27713135 358.59464241 294.52649475 358.40699259 290.95875549 355.64904785 C289 353 289 353 288.375 350 C289.23402365 345.87668647 290.6888056 344.58054983 294 342 C296.95083405 341.30066273 299.80880461 341.36644414 302.8293457 341.43237305 C303.70789719 341.43164291 304.58644867 341.43091278 305.49162292 341.43016052 C308.3869769 341.43363577 311.28070937 341.4724936 314.17578125 341.51171875 C316.18644838 341.52104711 318.19712689 341.52816311 320.20780945 341.53315735 C325.49349481 341.55222528 330.77849048 341.60132477 336.06390381 341.65667725 C341.45982534 341.70787387 346.85585859 341.7306723 352.25195312 341.75585938 C362.83493803 341.80944333 373.41741161 341.89475404 384 342 C384 336.72 384 331.44 384 326 C224.94 326 65.88 326 -98 326 C-98 331.28 -98 336.56 -98 342 C-96.13380414 341.99539104 -94.26760828 341.99078207 -92.34486103 341.98603344 C-48.07099172 341.87780496 -3.79713689 341.79532791 40.47683747 341.74467335 C45.92311649 341.73841962 51.36939523 341.73194803 56.81567383 341.7253418 C57.89995544 341.72403024 58.98423705 341.72271869 60.10137568 341.7213674 C77.67082683 341.69959544 95.24019641 341.66016405 112.80959912 341.61423602 C130.82992593 341.5675212 148.85020993 341.53971514 166.8705948 341.52955753 C177.99518461 341.52268804 189.11954384 341.50097138 200.2440627 341.46041767 C207.86677667 341.4340407 215.489371 341.42598754 223.11212733 341.43249311 C227.51380922 341.43570389 231.91508748 341.43069287 236.31669807 341.40397263 C240.34431197 341.37970065 244.37124955 341.37837245 248.39889411 341.39550553 C249.85793719 341.39762404 251.31702191 341.39122961 252.77598264 341.37558409 C254.75577487 341.35558328 256.73582247 341.36929532 258.71565533 341.38476086 C259.81646456 341.38286225 260.9172738 341.38096365 262.05144089 341.37900752 C265.98885736 342.20826206 267.50169412 343.91648 270 347 C270.625 350 270.625 350 270 353 C267.49087975 356.1032084 265.97920689 357.79482073 262.01987273 358.62444448 C260.90408935 358.6241721 259.78830597 358.62389972 258.63871098 358.62361908 C257.34708296 358.63542442 256.05545494 358.64722976 254.72468668 358.65939283 C253.29326559 358.64720094 251.86184843 358.63453978 250.43043518 358.62145996 C248.9083372 358.62578851 247.38624413 358.6323041 245.86416382 358.64082003 C241.67965415 358.65783925 237.49574135 358.64361129 233.31126297 358.62430525 C228.79924108 358.60889981 224.28729336 358.62227458 219.77526855 358.63204956 C210.93521133 358.64659022 202.09538344 358.63432769 193.25534791 358.61293632 C182.96411343 358.58894591 172.67293172 358.59063951 162.38167547 358.59324223 C144.02059729 358.59693412 125.65962728 358.57609257 107.29858398 358.54199219 C89.47629054 358.50890459 71.65411065 358.49473289 53.83178711 358.50097656 C34.43261978 358.5077392 15.03350005 358.50528355 -4.36566025 358.48561716 C-5.39132927 358.48457768 -6.41699829 358.48353819 -7.4737482 358.4824672 C-9.53383834 358.48037628 -11.59392846 358.47826531 -13.65401856 358.47613403 C-20.8297332 358.46923536 -28.00543318 358.46856965 -35.18115044 358.47001648 C-43.92521165 358.47145558 -52.66918021 358.46177643 -61.41321068 358.43807012 C-65.87568897 358.4262024 -70.33803805 358.4190901 -74.80053139 358.42490768 C-78.88463582 358.43007468 -82.96846713 358.42140844 -87.05252481 358.40163308 C-88.53093047 358.39688843 -90.00936269 358.39719954 -91.48776441 358.40304345 C-93.49613107 358.41021581 -95.50453954 358.39716369 -97.51286983 358.38311005 C-98.62881556 358.38153884 -99.74476129 358.37996764 -100.89452356 358.37834883 C-105.48645911 357.81890055 -108.8802845 356.34992357 -111.85009766 352.76953125 C-113.30567947 349.26377327 -113.38842726 346.48185727 -113.3984375 342.6875 C-113.40130768 341.99615967 -113.40417786 341.30481934 -113.40713501 340.5925293 C-113.40916839 339.13687313 -113.40368938 337.68118919 -113.39111328 336.22558594 C-113.37504732 334.00653575 -113.39098461 331.78930653 -113.41015625 329.5703125 C-113.40817369 328.15103768 -113.40432974 326.73176398 -113.3984375 325.3125 C-113.39505371 324.02988281 -113.39166992 322.74726563 -113.38818359 321.42578125 C-112.97396974 317.77027885 -112.20832925 315.90658005 -110 313 C-104.99157612 309.5332081 -100.47506645 309.63056013 -94.625 309.8125 C-93.37783203 309.83280273 -93.37783203 309.83280273 -92.10546875 309.85351562 C-90.07002934 309.88860941 -88.03492709 309.94240772 -86 310 C-86.27714844 309.32453125 -86.55429688 308.6490625 -86.83984375 307.953125 C-87.20207031 307.06109375 -87.56429687 306.1690625 -87.9375 305.25 C-88.29714844 304.36828125 -88.65679687 303.4865625 -89.02734375 302.578125 C-91.09228086 297.10479771 -91.82790696 291.83214461 -91 286 C-89.0183117 282.11589093 -86.04592469 279.57502068 -82 278 C-79.203125 277.8046875 -79.203125 277.8046875 -76.25 277.875 C-75.26515625 277.89304687 -74.2803125 277.91109375 -73.265625 277.9296875 C-72.14414063 277.96449219 -72.14414063 277.96449219 -71 278 C-71.25056152 276.96318588 -71.50112305 275.92637177 -71.75927734 274.85813904 C-74.12216136 265.07606787 -76.47666558 255.29201277 -78.82302856 245.50596523 C-80.02951802 240.47520418 -81.23892524 235.44518255 -82.45507812 230.41674805 C-83.62911937 225.56195813 -84.79539442 220.70536206 -85.95635986 215.84742928 C-86.40013857 213.99646976 -86.84668843 212.14617233 -87.29608154 210.29656792 C-87.92614179 207.70129432 -88.54621344 205.10381887 -89.1640625 202.50561523 C-89.35107727 201.74532013 -89.53809204 200.98502502 -89.73077393 200.20169067 C-91.09249028 194.40461725 -92.18665318 189.20378447 -89.25 183.75 C-86.39734459 180.26342117 -84.62531818 178.23963024 -80.06738281 177.56762695 C-78.4020752 177.52835083 -78.4020752 177.52835083 -76.703125 177.48828125 C-75.49785156 177.45283203 -74.29257813 177.41738281 -73.05078125 177.38085938 C-71.79652344 177.35830078 -70.54226562 177.33574219 -69.25 177.3125 C-67.98027344 177.27833984 -66.71054688 177.24417969 -65.40234375 177.20898438 C-62.26831726 177.12650999 -59.13457045 177.05735516 -56 177 C-56.27674561 176.21689453 -56.55349121 175.43378906 -56.83862305 174.62695312 C-62.8045898 157.61184213 -68.11225017 140.85486745 -71 123 C-71.12842285 122.20770996 -71.2568457 121.41541992 -71.38916016 120.59912109 C-73.90521078 104.20432409 -77.66635873 77.50484491 -69.0625 62.65625 C-66.73326652 59.65647961 -65.69832072 58.75647469 -62 58 C-56.55129135 57.97089365 -53.87399917 58.67664069 -49.859375 62.421875 C-48.47124696 63.84694941 -47.10172095 65.29034696 -45.75 66.75 C-45.05648437 67.46671875 -44.36296875 68.1834375 -43.6484375 68.921875 C-40.2342238 72.47998276 -37.05253342 76.12427375 -34 80 C-33.81993408 78.80177612 -33.81993408 78.80177612 -33.63623047 77.5793457 C-23.92246215 13.88242935 -23.92246215 13.88242935 -9 1 C-5.64870516 -0.11709828 -3.51689744 -0.34479387 0 0 Z M-4 24 C-11.52460589 44.81735348 -16.553445 65.87566697 -18 88 C-18.06654785 88.79245117 -18.1330957 89.58490234 -18.20166016 90.40136719 C-19.17123024 102.64004165 -17.18334029 110.47510342 -11.06933594 121.02539062 C-9.24543561 124.39336 -7.87679061 127.93104619 -6.5 131.5 C-6.24524902 132.15387695 -5.99049805 132.80775391 -5.72802734 133.48144531 C-5.14584214 134.98525376 -4.5719045 136.49225178 -4 138 C-3.34 138 -2.68 138 -2 138 C-1.78907715 137.45698242 -1.5781543 136.91396484 -1.36083984 136.35449219 C-0.37142031 133.81732632 0.62595431 131.28339086 1.625 128.75 C1.98529297 127.83065674 2.34558594 126.91131348 2.71679688 125.96411133 C4.69594592 120.99128043 6.82721337 116.33610258 9.5 111.6875 C12.98520219 104.81206027 12.65210349 98.51493053 12 91 C11.88906006 89.56213135 11.88906006 89.56213135 11.77587891 88.09521484 C10.08341952 67.11838964 7.10428691 44.26414332 -2 25 C-2.66 24.67 -3.32 24.34 -4 24 Z M-56 81 C-65.07982948 108.23948843 -50.13503521 151.03620402 -38.73193359 175.74804688 C-37.19731017 178.24120037 -37.19731017 178.24120037 -34.45629883 178.56762695 C-33.46654053 178.54144287 -32.47678223 178.51525879 -31.45703125 178.48828125 C-29.84731445 178.46411133 -29.84731445 178.46411133 -28.20507812 178.43945312 C-27.08552734 178.39755859 -25.96597656 178.35566406 -24.8125 178.3125 C-23.68134766 178.28994141 -22.55019531 178.26738281 -21.38476562 178.24414062 C-18.58852024 178.18514811 -15.79491903 178.1028824 -13 178 C-10.83310984 169.82361428 -11.08812951 164.08416296 -13.8125 156.125 C-14.1336377 155.13612793 -14.45477539 154.14725586 -14.78564453 153.12841797 C-23.20483995 127.89494398 -35.39264646 99.71899448 -55 81 C-55.33 81 -55.66 81 -56 81 Z M47.28515625 82.66015625 C40.58970993 89.89688646 35.25524964 97.6856563 30 106 C29.39414063 106.93070313 28.78828125 107.86140625 28.1640625 108.8203125 C16.78428585 127.14549273 3 155.79564215 3 178 C12.24 178 21.48 178 31 178 C45.00051018 149.99897964 55.44899181 112.33170288 50 81 C48.72194526 80.88407371 48.72194526 80.88407371 47.28515625 82.66015625 Z M263 184 C260.33779184 189.32441633 262.37405781 195.75789292 263.9609375 201.15625 C266.64721636 208.50817108 270.8672937 216.21446393 278 220 C282.34219239 220.71179299 286.55262602 220.56944012 290.9375 220.375 C292.09830078 220.34792969 293.25910156 220.32085937 294.45507812 220.29296875 C297.30532275 220.22259234 300.15167719 220.12418624 303 220 C304.89759797 214.3072061 304.33625417 210.19824095 301.75 204.875 C296.02031952 194.35206881 287.1830515 187.73009639 275.6875 184.3125 C271.46444586 183.82144719 267.24615876 183.92579528 263 184 Z M328.25390625 196.87890625 C322.67153506 203.7698632 320.07903395 211.27157689 319 220 C323.56228541 220.11625936 328.12418928 220.18727408 332.6875 220.25 C333.98107422 220.28351563 335.27464844 220.31703125 336.60742188 220.3515625 C337.85458984 220.36445313 339.10175781 220.37734375 340.38671875 220.390625 C341.53358154 220.41157227 342.68044434 220.43251953 343.86206055 220.45410156 C348.59208797 219.7696037 350.91073839 217.28710708 353.9140625 213.73828125 C360.99333182 203.70123503 362.51203644 196.26991021 362 184 C348.47256121 183.04136261 337.53954715 186.886975 328.25390625 196.87890625 Z M-74 194 C-71.51890526 205.16492632 -69.01666142 216.31057595 -66.36328125 227.43359375 C-66.03501184 228.8131375 -65.70682254 230.19270032 -65.37870789 231.57228088 C-64.7015064 234.41826924 -64.02335832 237.26402975 -63.34448242 240.10961914 C-62.47515505 243.75386096 -61.60831722 247.39868993 -60.74215412 251.04368496 C-60.06970688 253.87229034 -59.39597742 256.70058909 -58.72185326 259.52879524 C-58.40130149 260.87431461 -58.08114836 262.21992902 -57.76140785 263.5656414 C-57.31791343 265.43136064 -56.87250338 267.29662421 -56.42700195 269.16186523 C-56.04872002 270.7492173 -56.04872002 270.7492173 -55.66279602 272.36863708 C-55.01428366 275.08203234 -55.01428366 275.08203234 -54 278 C-53.2947821 278.00364563 -52.58956421 278.00729126 -51.86297607 278.01104736 C-45.21225402 278.04893673 -38.56199532 278.10579939 -31.91161728 278.18390274 C-28.4926539 278.2233884 -25.07394846 278.25557099 -21.65478516 278.27099609 C-17.72264629 278.28905691 -13.79122235 278.33900351 -9.859375 278.390625 C-8.63321472 278.39185364 -7.40705444 278.39308228 -6.14373779 278.39434814 C-5.00285706 278.41406677 -3.86197632 278.4337854 -2.68652344 278.45410156 C-1.68280701 278.46298401 -0.67909058 278.47186646 0.3550415 278.48101807 C3.71988193 279.14125201 4.91675373 280.32312301 7 283 C7.5 286 7.5 286 7 289 C5.43890381 291.15338135 5.43890381 291.15338135 3 293 C0.35599114 293.40308395 -1.87909222 293.56474286 -4.52246094 293.54589844 C-5.27406998 293.55623611 -6.02567902 293.56657379 -6.80006409 293.57722473 C-9.27838608 293.60666554 -11.75589184 293.60815211 -14.234375 293.609375 C-15.95503295 293.62435586 -17.67567651 293.64108281 -19.39630127 293.65948486 C-23.92051858 293.7031815 -28.44454191 293.72316251 -32.96893311 293.73822021 C-37.58747845 293.75778302 -42.20581404 293.79975393 -46.82421875 293.83984375 C-55.88274784 293.91517083 -64.94123005 293.96544713 -74 294 C-73.36074247 298.38848784 -72.57746639 301.17554623 -70 304.8125 C-69.46375 305.58207031 -68.9275 306.35164063 -68.375 307.14453125 C-67.13183234 308.91720504 -67.13183234 308.91720504 -66 310 C-64.38189568 310.11560954 -62.75879106 310.1618409 -61.13667297 310.18081665 C-59.5573423 310.20238831 -59.5573423 310.20238831 -57.94610596 310.22439575 C-56.78093445 310.23493988 -55.61576294 310.24548401 -54.4152832 310.25634766 C-53.19582504 310.27095032 -51.97636688 310.28555298 -50.71995544 310.30059814 C-39.46163506 310.42663368 -28.20255111 310.4967627 -16.94366169 310.54844093 C-8.61972544 310.58734186 -0.29714345 310.65566251 8.02619809 310.76298869 C13.87677249 310.83588436 19.72697698 310.87428239 25.57798702 310.88746679 C29.07321445 310.89632875 32.56676935 310.92054314 36.06149864 310.98213577 C39.96416554 311.05013309 43.86502508 311.04687911 47.76831055 311.03759766 C48.9233609 311.06838409 50.07841125 311.09917053 51.26846313 311.13088989 C57.20169211 311.1374986 57.20169211 311.1374986 62.01584816 308.06733322 C63.58347574 305.76732011 64.8296237 303.52243766 66 301 C66.37868571 300.30524378 66.75737143 299.61048756 67.14753246 298.89467812 C68.2051548 296.8902969 68.2051548 296.8902969 68 294 C66.93040039 293.9906543 65.86080078 293.98130859 64.75878906 293.97167969 C60.7850603 293.93176488 56.81210456 293.86600279 52.83886719 293.79248047 C51.12021831 293.76427933 49.40143995 293.74306046 47.68261719 293.72900391 C45.20961253 293.70756167 42.73816325 293.66090844 40.265625 293.609375 C39.49881409 293.60814636 38.73200317 293.60691772 37.94195557 293.60565186 C34.42443435 293.50937706 32.37250027 293.27736268 29.51464844 291.14941406 C27.44079449 288.20644015 27.41251509 286.52490945 28 283 C29.515625 280.859375 29.515625 280.859375 32 279 C34.86596259 278.55111429 37.3815111 278.30574802 40.25 278.25 C40.99507813 278.22035156 41.74015625 278.19070313 42.5078125 278.16015625 C44.33796672 278.0897657 46.16898769 278.04258168 48 278 C50.6090088 267.19573591 53.21680361 256.39117961 55.82302856 245.58624363 C57.0331091 240.56963846 58.24361507 235.55313673 59.45507812 230.53686523 C60.62316247 225.70014332 61.79014913 220.86315781 62.95635986 216.02598381 C63.40253223 214.17622286 63.84910689 212.3265589 64.29608154 210.47699165 C64.91979221 207.89580178 65.54209963 205.31427751 66.1640625 202.73266602 C66.35107727 201.96014999 66.53809204 201.18763397 66.73077393 200.39170837 C67.61843447 197.23058403 67.61843447 197.23058403 68 194 C21.14 194 -25.72 194 -74 194 Z M259 236 C265.23341016 273.14680261 265.23341016 273.14680261 277 310 C300.43 310 323.86 310 348 310 C349.876875 302.348125 351.75375 294.69625 353.6875 286.8125 C354.26846436 284.44553955 354.84942871 282.0785791 355.44799805 279.63989258 C356.71528271 274.47336816 357.97678922 269.30545053 359.23529053 264.13677979 C359.74359885 262.05173792 360.25339658 259.96705856 360.76470947 257.88275146 C361.479084 254.96846598 362.18756403 252.05280867 362.89453125 249.13671875 C363.10865158 248.26827835 363.32277191 247.39983795 363.54338074 246.50508118 C363.73636246 245.70378281 363.92934418 244.90248444 364.12817383 244.0769043 C364.29746902 243.38235641 364.46676422 242.68780853 364.64118958 241.97221375 C365.11932975 239.67819792 365.11932975 239.67819792 365 236 C330.02 236 295.04 236 259 236 Z " fill="#000000" transform="translate(113,121)"/>
<path d="M0 0 C1.68616928 -0.00788544 1.68616928 -0.00788544 3.40640259 -0.01593018 C7.12133691 -0.02913143 10.83584258 -0.02039125 14.55078125 -0.01025391 C17.13240644 -0.01227459 19.71403107 -0.01518599 22.2956543 -0.01895142 C27.70595257 -0.02337496 33.1160898 -0.01722895 38.52636719 -0.00292969 C44.77544988 0.01339612 51.0242389 0.00810729 57.27331448 -0.0084089 C63.29240911 -0.02367866 69.31136041 -0.02204288 75.33047485 -0.0132637 C77.8885604 -0.01126144 80.44665342 -0.01372187 83.00473022 -0.02070236 C86.57887672 -0.02831493 90.15245812 -0.01671444 93.7265625 0 C94.78541656 -0.00607269 95.84427063 -0.01214539 96.93521118 -0.0184021 C106.15862611 0.06156723 106.15862611 0.06156723 109.86328125 3.38818359 C112.54700279 7.14675606 113.23918161 9.7153784 113.24423218 14.30871582 C113.25269165 15.49475906 113.26115112 16.68080231 113.26986694 17.90278625 C113.2607579 19.84172005 113.2607579 19.84172005 113.25146484 21.81982422 C113.25553212 23.20159825 113.26087488 24.58336903 113.26739502 25.96513367 C113.28105604 29.71100293 113.27577509 33.45662395 113.26625776 37.20249748 C113.25865484 41.12528012 113.26570853 45.04804171 113.27041626 48.9708252 C113.27587197 55.55806285 113.26868706 62.14519955 113.25439453 68.73242188 C113.23806832 76.34477596 113.24335696 83.95688899 113.25987375 91.56923723 C113.27349389 98.10866116 113.2754057 104.64801258 113.26755774 111.18744612 C113.26288411 115.09158243 113.26224779 118.99560549 113.27216721 122.8997345 C113.28084233 126.57044047 113.27480527 130.24083607 113.25748444 133.91150856 C113.25163463 135.89886169 113.26053049 137.88624112 113.26986694 139.87358093 C113.25717773 141.6526458 113.25717773 141.6526458 113.24423218 143.46765137 C113.2431011 144.4963308 113.24197002 145.52501022 113.24080467 146.58486176 C112.68019815 150.74767766 110.96809871 153.39610641 107.87182617 156.17642212 C103.21334034 158.05273569 98.70255635 157.80490529 93.7265625 157.77636719 C92.04039322 157.78425262 92.04039322 157.78425262 90.32015991 157.79229736 C86.60522559 157.80549862 82.89071992 157.79675844 79.17578125 157.78662109 C76.59415606 157.78864178 74.01253143 157.79155318 71.4309082 157.7953186 C66.02060993 157.79974215 60.6104727 157.79359614 55.20019531 157.77929688 C48.95111262 157.76297107 42.7023236 157.7682599 36.45324802 157.78477609 C30.43415339 157.80004585 24.41520209 157.79841007 18.39608765 157.78963089 C15.8380021 157.78762863 13.27990908 157.79008906 10.72183228 157.79706955 C7.14768578 157.80468212 3.57410438 157.79308163 0 157.77636719 C-1.05885406 157.78243988 -2.11770813 157.78851257 -3.20864868 157.79476929 C-12.43206361 157.71479996 -12.43206361 157.71479996 -16.13671875 154.38818359 C-18.82044029 150.62961112 -19.51261911 148.06098878 -19.51766968 143.46765137 C-19.52612915 142.28160812 -19.53458862 141.09556488 -19.54330444 139.87358093 C-19.53723175 138.5809584 -19.53115906 137.28833588 -19.52490234 135.95654297 C-19.52896962 134.57476894 -19.53431238 133.19299816 -19.54083252 131.81123352 C-19.55449354 128.06536425 -19.54921259 124.31974324 -19.53969526 120.57386971 C-19.53209234 116.65108707 -19.53914603 112.72832548 -19.54385376 108.80554199 C-19.54930947 102.21830434 -19.54212456 95.63116764 -19.52783203 89.04394531 C-19.51150582 81.43159123 -19.51679446 73.8194782 -19.53331125 66.20712996 C-19.54693139 59.66770602 -19.5488432 53.1283546 -19.54099524 46.58892107 C-19.53632161 42.68478476 -19.53568529 38.7807617 -19.54560471 34.87663269 C-19.55427983 31.20592672 -19.54824277 27.53553112 -19.53092194 23.86485863 C-19.52507213 21.87750549 -19.53396799 19.89012607 -19.54330444 17.90278625 C-19.53484497 16.71674301 -19.5263855 15.53069977 -19.51766968 14.30871582 C-19.51597306 12.76569668 -19.51597306 12.76569668 -19.51424217 11.19150543 C-18.95363565 7.02868953 -17.24153621 4.38026078 -14.14526367 1.59994507 C-9.48677784 -0.2763685 -4.97599385 -0.0285381 0 0 Z M-3.13671875 16.38818359 C-3.13671875 57.63818359 -3.13671875 98.88818359 -3.13671875 141.38818359 C29.86328125 141.38818359 62.86328125 141.38818359 96.86328125 141.38818359 C96.86328125 100.13818359 96.86328125 58.88818359 96.86328125 16.38818359 C63.86328125 16.38818359 30.86328125 16.38818359 -3.13671875 16.38818359 Z " fill="#000000" transform="translate(229.13671875,147.61181640625)"/>
<path d="M0 0 C1.68616928 -0.00788544 1.68616928 -0.00788544 3.40640259 -0.01593018 C7.12133691 -0.02913143 10.83584258 -0.02039125 14.55078125 -0.01025391 C17.13240644 -0.01227459 19.71403107 -0.01518599 22.2956543 -0.01895142 C27.70595257 -0.02337496 33.1160898 -0.01722895 38.52636719 -0.00292969 C44.77544988 0.01339612 51.0242389 0.00810729 57.27331448 -0.0084089 C63.29240911 -0.02367866 69.31136041 -0.02204288 75.33047485 -0.0132637 C77.8885604 -0.01126144 80.44665342 -0.01372187 83.00473022 -0.02070236 C86.57887672 -0.02831493 90.15245812 -0.01671444 93.7265625 0 C94.78541656 -0.00607269 95.84427063 -0.01214539 96.93521118 -0.0184021 C105.90090771 0.05933275 105.90090771 0.05933275 109.86328125 3.38818359 C113.45856057 7.69228031 113.33070221 11.87671618 113.33203125 17.23193359 C113.33964478 18.07864624 113.3472583 18.92535889 113.35510254 19.79772949 C113.36587886 21.58289651 113.36876669 23.36812646 113.36425781 25.15332031 C113.36328424 27.87981335 113.40495609 30.60350191 113.44921875 33.32958984 C113.45442533 35.06786525 113.45711395 36.8061504 113.45703125 38.54443359 C113.47342651 39.35601929 113.48982178 40.16760498 113.50671387 41.00378418 C113.45469082 45.27665572 113.23144356 46.91596877 110.51367188 50.40185547 C107.86328125 52.38818359 107.86328125 52.38818359 104.86328125 53.01318359 C101.86328125 52.38818359 101.86328125 52.38818359 96.86328125 47.38818359 C96.86328125 37.15818359 96.86328125 26.92818359 96.86328125 16.38818359 C63.86328125 16.38818359 30.86328125 16.38818359 -3.13671875 16.38818359 C-3.13671875 57.63818359 -3.13671875 98.88818359 -3.13671875 141.38818359 C29.86328125 141.38818359 62.86328125 141.38818359 96.86328125 141.38818359 C96.66548696 120.22148218 96.66548696 120.22148218 96.4128418 99.05541992 C96.39823887 96.40202843 96.38549775 93.74862575 96.375 91.09521484 C96.36193314 90.40916672 96.34886627 89.72311859 96.33540344 89.01628113 C96.29867085 86.9853455 96.29658479 84.95387499 96.2956543 82.92260742 C96.28455124 81.77899246 96.27344818 80.6353775 96.26200867 79.45710754 C97.05335752 75.41802524 98.69820563 73.93103575 101.86328125 71.38818359 C104.86328125 70.76318359 104.86328125 70.76318359 107.86328125 71.38818359 C111.19891432 74.01952328 112.69763122 75.49817666 113.48474121 79.72717285 C113.48268677 80.99782593 113.48063232 82.268479 113.47851562 83.57763672 C113.48406464 84.28234604 113.48961365 84.98705536 113.49533081 85.71311951 C113.50710038 88.03259208 113.48288288 90.35009896 113.45703125 92.66943359 C113.45531932 94.2869864 113.45538667 95.90454198 113.45715332 97.52209473 C113.45550162 100.90822988 113.43683227 104.29370176 113.40527344 107.6796875 C113.36559585 112.01420979 113.36122903 116.34786382 113.36873627 120.68253326 C113.37180975 124.02150387 113.35967206 127.36028025 113.34260559 130.69920349 C113.33558772 132.29714235 113.33244959 133.89510321 113.33329773 135.49305725 C113.33149451 137.72868424 113.31006984 139.9632821 113.28320312 142.19873047 C113.27478394 143.46938354 113.26636475 144.74003662 113.25769043 146.04919434 C112.71068091 150.68006754 111.31513966 153.084479 107.87182617 156.17642212 C103.21334034 158.05273569 98.70255635 157.80490529 93.7265625 157.77636719 C92.04039322 157.78425262 92.04039322 157.78425262 90.32015991 157.79229736 C86.60522559 157.80549862 82.89071992 157.79675844 79.17578125 157.78662109 C76.59415606 157.78864178 74.01253143 157.79155318 71.4309082 157.7953186 C66.02060993 157.79974215 60.6104727 157.79359614 55.20019531 157.77929688 C48.95111262 157.76297107 42.7023236 157.7682599 36.45324802 157.78477609 C30.43415339 157.80004585 24.41520209 157.79841007 18.39608765 157.78963089 C15.8380021 157.78762863 13.27990908 157.79008906 10.72183228 157.79706955 C7.14768578 157.80468212 3.57410438 157.79308163 0 157.77636719 C-1.05885406 157.78243988 -2.11770813 157.78851257 -3.20864868 157.79476929 C-12.43206361 157.71479996 -12.43206361 157.71479996 -16.13671875 154.38818359 C-18.82044029 150.62961112 -19.51261911 148.06098878 -19.51766968 143.46765137 C-19.52612915 142.28160812 -19.53458862 141.09556488 -19.54330444 139.87358093 C-19.53723175 138.5809584 -19.53115906 137.28833588 -19.52490234 135.95654297 C-19.52896962 134.57476894 -19.53431238 133.19299816 -19.54083252 131.81123352 C-19.55449354 128.06536425 -19.54921259 124.31974324 -19.53969526 120.57386971 C-19.53209234 116.65108707 -19.53914603 112.72832548 -19.54385376 108.80554199 C-19.54930947 102.21830434 -19.54212456 95.63116764 -19.52783203 89.04394531 C-19.51150582 81.43159123 -19.51679446 73.8194782 -19.53331125 66.20712996 C-19.54693139 59.66770602 -19.5488432 53.1283546 -19.54099524 46.58892107 C-19.53632161 42.68478476 -19.53568529 38.7807617 -19.54560471 34.87663269 C-19.55427983 31.20592672 -19.54824277 27.53553112 -19.53092194 23.86485863 C-19.52507213 21.87750549 -19.53396799 19.89012607 -19.54330444 17.90278625 C-19.53484497 16.71674301 -19.5263855 15.53069977 -19.51766968 14.30871582 C-19.51597306 12.76569668 -19.51597306 12.76569668 -19.51424217 11.19150543 C-18.95363565 7.02868953 -17.24153621 4.38026078 -14.14526367 1.59994507 C-9.48677784 -0.2763685 -4.97599385 -0.0285381 0 0 Z " fill="#000000" transform="translate(373.13671875,102.61181640625)"/>
<path d="M0 0 C1.30485352 -0.00945648 2.60970703 -0.01891296 3.95410156 -0.02865601 C5.37044581 -0.02328599 6.78678728 -0.01713297 8.203125 -0.01025391 C9.66373846 -0.01227633 11.12435093 -0.01518917 12.58496094 -0.01895142 C15.64137415 -0.02336689 18.69752376 -0.01696902 21.75390625 -0.00292969 C25.66466251 0.01416207 29.57480105 0.00431667 33.48553467 -0.01364708 C36.5002098 -0.02450611 39.51473934 -0.02102893 42.52941895 -0.0132637 C43.97107009 -0.01126754 45.4127346 -0.01370043 46.85437012 -0.02070236 C48.87166072 -0.02835084 50.88899788 -0.01461935 52.90625 0 C54.05254883 0.00238678 55.19884766 0.00477356 56.37988281 0.00723267 C60.89413507 0.56680737 63.33596165 2.05445868 66.24136353 5.52307129 C67.91747352 9.48609822 67.87267611 12.96813381 67.84130859 17.22998047 C67.84656555 18.11025406 67.85182251 18.99052765 67.85723877 19.8974762 C67.87041857 22.80081034 67.86170779 25.70359408 67.8515625 28.60693359 C67.85358381 30.62805283 67.85649573 32.64917135 67.86026001 34.67028809 C67.86468063 38.90363517 67.85826066 43.13679221 67.84423828 47.37011719 C67.82714665 52.79416787 67.83698922 58.21777321 67.85495567 63.64180756 C67.86580052 67.81454824 67.86234392 71.98718349 67.8545723 76.15992737 C67.85257224 78.15979566 67.85502275 80.15967355 67.86201096 82.15953064 C67.86963687 84.95540698 67.85800513 87.7505639 67.84130859 90.54638672 C67.84738129 91.37147232 67.85345398 92.19655792 67.85971069 93.04664612 C67.80909029 97.62631635 67.51175353 100.73664141 64.453125 104.38818359 C60.62766562 107.39076133 57.70467812 107.76637608 52.90625 107.77636719 C51.60139648 107.78582367 50.29654297 107.79528015 48.95214844 107.80502319 C47.53580419 107.79965318 46.11946272 107.79350015 44.703125 107.78662109 C43.24251154 107.78864351 41.78189907 107.79155636 40.32128906 107.7953186 C37.26487585 107.79973408 34.20872624 107.79333621 31.15234375 107.77929688 C27.24158749 107.76220512 23.33144895 107.77205051 19.42071533 107.79001427 C16.4060402 107.80087329 13.39151066 107.79739612 10.37683105 107.78963089 C8.93517991 107.78763472 7.4935154 107.79006762 6.05187988 107.79706955 C4.03458928 107.80471803 2.01725212 107.79098654 0 107.77636719 C-1.14629883 107.77398041 -2.29259766 107.77159363 -3.47363281 107.76913452 C-7.98788507 107.20955982 -10.42971165 105.72190851 -13.33511353 102.2532959 C-15.01122352 98.29026897 -14.96642611 94.80823337 -14.93505859 90.54638672 C-14.94031555 89.66611313 -14.94557251 88.78583954 -14.95098877 87.87889099 C-14.96416857 84.97555685 -14.95545779 82.0727731 -14.9453125 79.16943359 C-14.94733381 77.14831436 -14.95024573 75.12719584 -14.95401001 73.1060791 C-14.95843063 68.87273201 -14.95201066 64.63957498 -14.93798828 60.40625 C-14.92089665 54.98219931 -14.93073922 49.55859398 -14.94870567 44.13455963 C-14.95955052 39.96181895 -14.95609392 35.7891837 -14.9483223 31.61643982 C-14.94632224 29.61657153 -14.94877275 27.61669363 -14.95576096 25.61683655 C-14.96338687 22.8209602 -14.95175513 20.02580329 -14.93505859 17.22998047 C-14.94113129 16.40489487 -14.94720398 15.57980927 -14.95346069 14.72972107 C-14.90284029 10.15005084 -14.60550353 7.03972578 -11.546875 3.38818359 C-7.72141562 0.38560586 -4.79842812 0.0099911 0 0 Z M11.453125 16.38818359 C13.46915625 20.42024609 15.91605914 23.50865453 18.828125 26.88818359 C19.55128906 27.74089844 19.55128906 27.74089844 20.2890625 28.61083984 C22.89704769 31.66530075 25.56270176 34.59365117 28.453125 37.38818359 C30.02041618 35.39178939 31.58192933 33.39127335 33.140625 31.38818359 C33.57568359 30.83517578 34.01074219 30.28216797 34.45898438 29.71240234 C37.81127687 25.3916698 40.51862923 21.08337682 43.453125 16.38818359 C32.893125 16.38818359 22.333125 16.38818359 11.453125 16.38818359 Z M1.453125 31.38818359 C1.453125 45.24818359 1.453125 59.10818359 1.453125 73.38818359 C5.51757482 69.32373377 8.91720357 65.44510244 12.328125 60.88818359 C13.09382813 59.91171875 13.09382813 59.91171875 13.875 58.91552734 C16.6514765 55.24755774 16.6514765 55.24755774 17.640625 50.86474609 C15.86007038 47.15135259 13.31814512 44.31121534 10.578125 41.26318359 C10.03542969 40.64314453 9.49273437 40.02310547 8.93359375 39.38427734 C6.50939013 36.62815342 4.05115014 33.98620874 1.453125 31.38818359 Z M50.453125 34.38818359 C48.66141637 36.65562176 46.92260976 38.94159605 45.203125 41.26318359 C44.6680835 41.98135254 44.13304199 42.69952148 43.58178711 43.43945312 C38.02494897 50.92127241 32.57551394 58.47997359 27.13818359 66.04882812 C25.38105218 68.4882418 23.61543541 70.92132036 21.84765625 73.35302734 C21.25847412 74.16465332 20.66929199 74.9762793 20.06225586 75.8125 C18.93564307 77.36403123 17.80762901 78.91454627 16.67797852 80.46386719 C15.91312134 81.51888428 15.91312134 81.51888428 15.1328125 82.59521484 C14.68663574 83.20856689 14.24045898 83.82191895 13.78076172 84.45385742 C12.23891585 86.70027979 10.8549444 89.05181793 9.453125 91.38818359 C23.313125 91.38818359 37.173125 91.38818359 51.453125 91.38818359 C51.453125 72.57818359 51.453125 53.76818359 51.453125 34.38818359 C51.123125 34.38818359 50.793125 34.38818359 50.453125 34.38818359 Z " fill="#000000" transform="translate(393.546875,127.61181640625)"/>
<path d="M0 0 C1.68616928 -0.00788544 1.68616928 -0.00788544 3.40640259 -0.01593018 C7.12133691 -0.02913143 10.83584258 -0.02039125 14.55078125 -0.01025391 C17.13240644 -0.01227459 19.71403107 -0.01518599 22.2956543 -0.01895142 C27.70595257 -0.02337496 33.1160898 -0.01722895 38.52636719 -0.00292969 C44.77544988 0.01339612 51.0242389 0.00810729 57.27331448 -0.0084089 C63.29240911 -0.02367866 69.31136041 -0.02204288 75.33047485 -0.0132637 C77.8885604 -0.01126144 80.44665342 -0.01372187 83.00473022 -0.02070236 C86.57887672 -0.02831493 90.15245812 -0.01671444 93.7265625 0 C94.78541656 -0.00607269 95.84427063 -0.01214539 96.93521118 -0.0184021 C106.15862611 0.06156723 106.15862611 0.06156723 109.86328125 3.38818359 C113.31515208 7.55349723 113.29147591 11.67299974 113.25146484 16.86279297 C113.25935028 18.12468193 113.25935028 18.12468193 113.26739502 19.4120636 C113.28057025 22.18554394 113.27186576 24.95844768 113.26171875 27.73193359 C113.2637402 29.66337189 113.26665223 31.59480943 113.27041626 33.52624512 C113.27483626 37.57128171 113.26841895 41.61611937 113.25439453 45.66113281 C113.23730289 50.84305405 113.2471458 56.02450913 113.26511192 61.20641327 C113.27595849 65.19386296 113.2724994 69.18120236 113.26472855 73.1686554 C113.26272896 75.07920894 113.26517734 76.98977253 113.27216721 78.90031433 C113.27979599 81.57167038 113.26815757 84.24227412 113.25146484 86.91357422 C113.25753754 87.70125687 113.26361023 88.48893951 113.26986694 89.30049133 C113.21736493 93.84150912 112.79265385 96.85335967 109.86328125 100.38818359 C105.23537663 104.54383712 99.59671273 103.81003341 93.7265625 103.77636719 C92.04039322 103.78425262 92.04039322 103.78425262 90.32015991 103.79229736 C86.60522559 103.80549862 82.89071992 103.79675844 79.17578125 103.78662109 C76.59415606 103.78864178 74.01253143 103.79155318 71.4309082 103.7953186 C66.02060993 103.79974215 60.6104727 103.79359614 55.20019531 103.77929688 C48.95111262 103.76297107 42.7023236 103.7682599 36.45324802 103.78477609 C30.43415339 103.80004585 24.41520209 103.79841007 18.39608765 103.78963089 C15.8380021 103.78762863 13.27990908 103.79008906 10.72183228 103.79706955 C7.14768578 103.80468212 3.57410438 103.79308163 0 103.77636719 C-1.05885406 103.78243988 -2.11770813 103.78851257 -3.20864868 103.79476929 C-12.43206361 103.71479996 -12.43206361 103.71479996 -16.13671875 100.38818359 C-19.58858958 96.22286996 -19.56491341 92.10336745 -19.52490234 86.91357422 C-19.5301593 86.07231491 -19.53541626 85.2310556 -19.54083252 84.36430359 C-19.55400775 81.59082325 -19.54530326 78.81791951 -19.53515625 76.04443359 C-19.5371777 74.1129953 -19.54008973 72.18155775 -19.54385376 70.25012207 C-19.54827376 66.20508548 -19.54185645 62.16024782 -19.52783203 58.11523438 C-19.51074039 52.93331314 -19.5205833 47.75185806 -19.53854942 42.56995392 C-19.54939599 38.58250422 -19.5459369 34.59516483 -19.53816605 30.60771179 C-19.53616646 28.69715825 -19.53861484 26.78659466 -19.54560471 24.87605286 C-19.55323349 22.20469681 -19.54159507 19.53409307 -19.52490234 16.86279297 C-19.53097504 16.07511032 -19.53704773 15.28742767 -19.54330444 14.47587585 C-19.49080243 9.93485807 -19.06609135 6.92300752 -16.13671875 3.38818359 C-11.50881413 -0.76746994 -5.87015023 -0.03366623 0 0 Z M-3.13671875 16.38818359 C-3.13671875 39.81818359 -3.13671875 63.24818359 -3.13671875 87.38818359 C29.86328125 87.38818359 62.86328125 87.38818359 96.86328125 87.38818359 C96.86328125 63.95818359 96.86328125 40.52818359 96.86328125 16.38818359 C63.86328125 16.38818359 30.86328125 16.38818359 -3.13671875 16.38818359 Z " fill="#000000" transform="translate(229.13671875,32.61181640625)"/>
<path d="M0 0 C1.30485352 -0.00945648 2.60970703 -0.01891296 3.95410156 -0.02865601 C5.37044581 -0.02328599 6.78678728 -0.01713297 8.203125 -0.01025391 C9.66373846 -0.01227633 11.12435093 -0.01518917 12.58496094 -0.01895142 C15.64137415 -0.02336689 18.69752376 -0.01696902 21.75390625 -0.00292969 C25.66466251 0.01416207 29.57480105 0.00431667 33.48553467 -0.01364708 C36.5002098 -0.02450611 39.51473934 -0.02102893 42.52941895 -0.0132637 C43.97107009 -0.01126754 45.4127346 -0.01370043 46.85437012 -0.02070236 C48.87166072 -0.02835084 50.88899788 -0.01461935 52.90625 0 C54.05254883 0.00238678 55.19884766 0.00477356 56.37988281 0.00723267 C60.89413507 0.56680737 63.33596165 2.05445868 66.24136353 5.52307129 C67.91747352 9.48609822 67.87267611 12.96813381 67.84130859 17.22998047 C67.84656555 18.11025406 67.85182251 18.99052765 67.85723877 19.8974762 C67.87041857 22.80081034 67.86170779 25.70359408 67.8515625 28.60693359 C67.85358381 30.62805283 67.85649573 32.64917135 67.86026001 34.67028809 C67.86468063 38.90363517 67.85826066 43.13679221 67.84423828 47.37011719 C67.82714665 52.79416787 67.83698922 58.21777321 67.85495567 63.64180756 C67.86580052 67.81454824 67.86234392 71.98718349 67.8545723 76.15992737 C67.85257224 78.15979566 67.85502275 80.15967355 67.86201096 82.15953064 C67.86963687 84.95540698 67.85800513 87.7505639 67.84130859 90.54638672 C67.84738129 91.37147232 67.85345398 92.19655792 67.85971069 93.04664612 C67.80909029 97.62631635 67.51175353 100.73664141 64.453125 104.38818359 C60.62766562 107.39076133 57.70467812 107.76637608 52.90625 107.77636719 C51.60139648 107.78582367 50.29654297 107.79528015 48.95214844 107.80502319 C47.53580419 107.79965318 46.11946272 107.79350015 44.703125 107.78662109 C43.24251154 107.78864351 41.78189907 107.79155636 40.32128906 107.7953186 C37.26487585 107.79973408 34.20872624 107.79333621 31.15234375 107.77929688 C27.24158749 107.76220512 23.33144895 107.77205051 19.42071533 107.79001427 C16.4060402 107.80087329 13.39151066 107.79739612 10.37683105 107.78963089 C8.93517991 107.78763472 7.4935154 107.79006762 6.05187988 107.79706955 C4.03458928 107.80471803 2.01725212 107.79098654 0 107.77636719 C-1.14629883 107.77398041 -2.29259766 107.77159363 -3.47363281 107.76913452 C-7.98788507 107.20955982 -10.42971165 105.72190851 -13.33511353 102.2532959 C-15.01122352 98.29026897 -14.96642611 94.80823337 -14.93505859 90.54638672 C-14.94031555 89.66611313 -14.94557251 88.78583954 -14.95098877 87.87889099 C-14.96416857 84.97555685 -14.95545779 82.0727731 -14.9453125 79.16943359 C-14.94733381 77.14831436 -14.95024573 75.12719584 -14.95401001 73.1060791 C-14.95843063 68.87273201 -14.95201066 64.63957498 -14.93798828 60.40625 C-14.92089665 54.98219931 -14.93073922 49.55859398 -14.94870567 44.13455963 C-14.95955052 39.96181895 -14.95609392 35.7891837 -14.9483223 31.61643982 C-14.94632224 29.61657153 -14.94877275 27.61669363 -14.95576096 25.61683655 C-14.96338687 22.8209602 -14.95175513 20.02580329 -14.93505859 17.22998047 C-14.94113129 16.40489487 -14.94720398 15.57980927 -14.95346069 14.72972107 C-14.90284029 10.15005084 -14.60550353 7.03972578 -11.546875 3.38818359 C-7.72141562 0.38560586 -4.79842812 0.0099911 0 0 Z M1.453125 16.38818359 C1.453125 32.88818359 1.453125 49.38818359 1.453125 66.38818359 C17.953125 66.38818359 34.453125 66.38818359 51.453125 66.38818359 C51.453125 49.88818359 51.453125 33.38818359 51.453125 16.38818359 C34.953125 16.38818359 18.453125 16.38818359 1.453125 16.38818359 Z M1.453125 81.38818359 C1.453125 84.68818359 1.453125 87.98818359 1.453125 91.38818359 C17.953125 91.38818359 34.453125 91.38818359 51.453125 91.38818359 C51.453125 88.08818359 51.453125 84.78818359 51.453125 81.38818359 C34.953125 81.38818359 18.453125 81.38818359 1.453125 81.38818359 Z " fill="#000000" transform="translate(249.546875,172.61181640625)"/>
<path d="M0 0 C1.30485352 -0.00945648 2.60970703 -0.01891296 3.95410156 -0.02865601 C5.37044581 -0.02328599 6.78678728 -0.01713297 8.203125 -0.01025391 C9.66373846 -0.01227633 11.12435093 -0.01518917 12.58496094 -0.01895142 C15.64137415 -0.02336689 18.69752376 -0.01696902 21.75390625 -0.00292969 C25.66466251 0.01416207 29.57480105 0.00431667 33.48553467 -0.01364708 C36.5002098 -0.02450611 39.51473934 -0.02102893 42.52941895 -0.0132637 C43.97107009 -0.01126754 45.4127346 -0.01370043 46.85437012 -0.02070236 C48.87166072 -0.02835084 50.88899788 -0.01461935 52.90625 0 C54.05254883 0.00238678 55.19884766 0.00477356 56.37988281 0.00723267 C60.79166093 0.55410495 63.42704654 2.14713595 66.24072266 5.55029297 C67.84578517 9.30728987 67.88331855 12.77916311 67.8515625 16.79443359 C67.85443268 17.59675415 67.85730286 18.39907471 67.86026001 19.22570801 C67.86229538 20.91675526 67.8568024 22.60782633 67.84423828 24.29882812 C67.82817635 26.87993257 67.84410404 29.45947131 67.86328125 32.04052734 C67.86129872 33.6876662 67.85745485 35.33480408 67.8515625 36.98193359 C67.85763519 37.74977173 67.86370789 38.51760986 67.8699646 39.30871582 C67.8107135 43.846631 67.37443815 46.85483898 64.453125 50.38818359 C60.52484597 53.26119994 57.7335137 53.76631604 52.90625 53.77636719 C51.60139648 53.78582367 50.29654297 53.79528015 48.95214844 53.80502319 C47.53580419 53.79965318 46.11946272 53.79350015 44.703125 53.78662109 C43.24251154 53.78864351 41.78189907 53.79155636 40.32128906 53.7953186 C37.26487585 53.79973408 34.20872624 53.79333621 31.15234375 53.77929688 C27.24158749 53.76220512 23.33144895 53.77205051 19.42071533 53.79001427 C16.4060402 53.80087329 13.39151066 53.79739612 10.37683105 53.78963089 C8.93517991 53.78763472 7.4935154 53.79006762 6.05187988 53.79706955 C4.03458928 53.80471803 2.01725212 53.79098654 0 53.77636719 C-1.14629883 53.77398041 -2.29259766 53.77159363 -3.47363281 53.76913452 C-7.88541093 53.22226224 -10.52079654 51.62923124 -13.33447266 48.22607422 C-14.93953517 44.46907732 -14.97706855 40.99720408 -14.9453125 36.98193359 C-14.94818268 36.17961304 -14.95105286 35.37729248 -14.95401001 34.55065918 C-14.95604538 32.85961193 -14.9505524 31.16854086 -14.93798828 29.47753906 C-14.92192635 26.89643462 -14.93785404 24.31689588 -14.95703125 21.73583984 C-14.95504872 20.08870099 -14.95120485 18.4415631 -14.9453125 16.79443359 C-14.95138519 16.02659546 -14.95745789 15.25875732 -14.9637146 14.46765137 C-14.9044635 9.92973619 -14.46818815 6.92152821 -11.546875 3.38818359 C-7.61859597 0.51516725 -4.8272637 0.01005114 0 0 Z M1.453125 16.38818359 C1.453125 23.31818359 1.453125 30.24818359 1.453125 37.38818359 C17.953125 37.38818359 34.453125 37.38818359 51.453125 37.38818359 C51.453125 30.45818359 51.453125 23.52818359 51.453125 16.38818359 C34.953125 16.38818359 18.453125 16.38818359 1.453125 16.38818359 Z " fill="#000000" transform="translate(249.546875,57.61181640625)"/>
</svg>
