<?xml version="1.0" encoding="UTF-8"?>
<svg version="1.1" xmlns="http://www.w3.org/2000/svg" width="512" height="512">
<path d="M0 0 C1.24907135 0.00081573 1.24907135 0.00081573 2.52337646 0.00164795 C16.53346149 0.04355918 29.96955522 1.03159373 43.625 4.375 C44.91712402 4.68848389 44.91712402 4.68848389 46.23535156 5.00830078 C69.9064197 10.97748778 92.57603233 22.13046751 111.625 37.375 C112.48996094 38.03628906 113.35492188 38.69757813 114.24609375 39.37890625 C151.49821717 68.54958834 174.84958569 111.8141286 181.23242188 158.44604492 C181.98461683 165.97407561 181.9715045 173.50315986 181.9375 181.0625 C181.93476578 182.32315781 181.93476578 182.32315781 181.93197632 183.60928345 C181.88752419 195.77367435 181.47834366 207.50104626 178.625 219.375 C178.45871094 220.12587891 178.29242188 220.87675781 178.12109375 221.65039062 C167.58111273 268.92415733 137.98615682 309.33404425 97.5 335.4375 C71.90353943 351.49972561 41.67357993 362.39452424 11.19921875 362.578125 C10.4181778 362.58513931 9.63713684 362.59215363 8.83242798 362.59938049 C6.32572605 362.61679225 3.81926018 362.62323267 1.3125 362.625 C0.45707611 362.62567474 -0.39834778 362.62634949 -1.2796936 362.62704468 C-13.56691324 362.61161554 -25.37920032 362.25762358 -37.375 359.375 C-38.12587891 359.20871094 -38.87675781 359.04242188 -39.65039062 358.87109375 C-86.92415733 348.33111273 -127.33404425 318.73615682 -153.4375 278.25 C-169.48585457 252.67564405 -180.29015105 222.55849695 -180.61328125 192.125 C-180.6230751 191.35767548 -180.63286896 190.59035095 -180.64295959 189.79977417 C-180.81994774 172.32277276 -180.55654305 155.45363944 -176.375 138.375 C-176.06151611 137.08287598 -176.06151611 137.08287598 -175.74169922 135.76464844 C-169.77251222 112.0935803 -158.61953249 89.42396767 -143.375 70.375 C-142.71371094 69.51003906 -142.05242187 68.64507812 -141.37109375 67.75390625 C-112.19358553 30.49306558 -68.92500113 7.14570948 -22.28198242 0.77197266 C-14.86442884 0.01830509 -7.45021054 -0.01837725 0 0 Z M-79.375 36.375 C-80.95087891 37.21998047 -80.95087891 37.21998047 -82.55859375 38.08203125 C-95.22574583 45.11567746 -105.92986035 54.44454839 -116.375 64.375 C-117.05820313 64.99375 -117.74140625 65.6125 -118.4453125 66.25 C-140.57190712 86.98789622 -154.20228794 116.32968632 -161.375 145.375 C-161.6946875 146.62667969 -162.014375 147.87835938 -162.34375 149.16796875 C-170.67187909 186.40884789 -162.94974477 228.50396291 -144.375 261.375 C-144.01792969 262.01759766 -143.66085938 262.66019531 -143.29296875 263.32226562 C-138.4123957 272.04003834 -133.00323752 279.860696 -126.375 287.375 C-125.6325 288.22707031 -124.89 289.07914062 -124.125 289.95703125 C-121.90820293 292.46247377 -119.65268726 294.92488219 -117.375 297.375 C-116.7253125 298.09042969 -116.075625 298.80585938 -115.40625 299.54296875 C-86.75879982 329.78806519 -44.15624706 345.99232934 -3.015625 347.30859375 C17.26977424 347.70774721 37.57143757 344.39071723 56.625 337.375 C57.65052979 336.99819092 57.65052979 336.99819092 58.69677734 336.61376953 C81.33983558 328.12717001 100.25943629 315.08575362 117.625 298.375 C118.30433594 297.75882812 118.98367188 297.14265625 119.68359375 296.5078125 C141.82570392 275.79274062 155.45446145 246.4115122 162.625 217.375 C162.9446875 216.12332031 163.264375 214.87164062 163.59375 213.58203125 C171.92187909 176.34115211 164.19974477 134.24603709 145.625 101.375 C145.08939453 100.41110352 145.08939453 100.41110352 144.54296875 99.42773438 C139.6623957 90.70996166 134.25323752 82.889304 127.625 75.375 C126.8825 74.52292969 126.14 73.67085937 125.375 72.79296875 C123.15820293 70.28752623 120.90268726 67.82511781 118.625 65.375 C117.9753125 64.65957031 117.325625 63.94414062 116.65625 63.20703125 C87.84023398 32.78396819 45.70273672 17.01308426 4.44140625 15.4765625 C-24.80733864 14.69628541 -53.83828339 22.18153744 -79.375 36.375 Z " fill="#000000" transform="translate(255.375,74.625)"/>
<path d="M0 0 C0.7734375 -0.00773437 1.546875 -0.01546875 2.34375 -0.0234375 C5.08586928 0.48325845 5.81938393 1.16482535 7.5 3.375 C7.86076355 5.89970398 7.86076355 5.89970398 7.84057617 8.94799805 C7.84034958 10.08895432 7.84012299 11.22991058 7.83988953 12.40544128 C7.82440567 13.63676285 7.80892181 14.86808441 7.79296875 16.13671875 C7.78872391 17.39764847 7.78447906 18.65857819 7.78010559 19.9577179 C7.76614627 23.30674943 7.73920104 26.65516758 7.70599365 30.00402832 C7.67528105 33.42255353 7.66159776 36.84114215 7.64648438 40.25976562 C7.61337212 46.96503537 7.56156651 53.66993357 7.5 60.375 C12.45 60.375 17.4 60.375 22.5 60.375 C22.48428955 58.66401123 22.4685791 56.95302246 22.45239258 55.19018555 C22.40402638 49.53843265 22.36954997 43.88670948 22.34456348 38.23480511 C22.32890426 34.80786777 22.30766196 31.38115423 22.27368164 27.9543457 C22.23486486 24.01516392 22.22029284 20.07607291 22.20703125 16.13671875 C22.19154739 14.90539719 22.17606354 13.67407562 22.16011047 12.40544128 C22.15988388 11.26448502 22.15965729 10.12352875 22.15942383 8.94799805 C22.15276199 7.942061 22.14610016 6.93612396 22.13923645 5.89970398 C22.5 3.375 22.5 3.375 23.88652039 1.55158997 C26.01183179 0.00175937 27.38873527 -0.02611265 30 0 C30.7734375 -0.00773437 31.546875 -0.01546875 32.34375 -0.0234375 C35.08586928 0.48325845 35.81938393 1.16482535 37.5 3.375 C37.86076355 5.89970398 37.86076355 5.89970398 37.84057617 8.94799805 C37.84023628 10.65943245 37.84023628 10.65943245 37.83988953 12.40544128 C37.82440567 13.63676285 37.80892181 14.86808441 37.79296875 16.13671875 C37.78872391 17.39764847 37.78447906 18.65857819 37.78010559 19.9577179 C37.76614627 23.30674943 37.73920104 26.65516758 37.70599365 30.00402832 C37.67528105 33.42255353 37.66159776 36.84114215 37.64648438 40.25976562 C37.61337212 46.96503537 37.56156651 53.66993357 37.5 60.375 C42.45 60.375 47.4 60.375 52.5 60.375 C52.48428955 58.66401123 52.4685791 56.95302246 52.45239258 55.19018555 C52.40402638 49.53843265 52.36954997 43.88670948 52.34456348 38.23480511 C52.32890426 34.80786777 52.30766196 31.38115423 52.27368164 27.9543457 C52.23486486 24.01516392 52.22029284 20.07607291 52.20703125 16.13671875 C52.19154739 14.90539719 52.17606354 13.67407562 52.16011047 12.40544128 C52.15988388 11.26448502 52.15965729 10.12352875 52.15942383 8.94799805 C52.15276199 7.942061 52.14610016 6.93612396 52.13923645 5.89970398 C52.5 3.375 52.5 3.375 53.88652039 1.55158997 C56.01183179 0.00175937 57.38873527 -0.02611265 60 0 C60.7734375 -0.00773437 61.546875 -0.01546875 62.34375 -0.0234375 C65.04919313 0.47648134 65.7988296 1.24304541 67.5 3.375 C67.88031673 5.34765434 67.88031673 5.34765434 67.88768005 7.63449097 C67.89758469 8.50331406 67.90748932 9.37213715 67.91769409 10.26728821 C67.91319244 11.21790634 67.9086908 12.16852448 67.90405273 13.14794922 C67.91091599 14.1516304 67.91777924 15.15531158 67.92485046 16.18940735 C67.94320211 19.51964339 67.93926558 22.84941153 67.93359375 26.1796875 C67.93815483 28.49838413 67.94346018 30.8170794 67.94947815 33.13577271 C67.95842813 38.00658641 67.95596848 42.87723639 67.94604492 47.74804688 C67.93461227 53.96285686 67.95466957 60.17709384 67.98396206 66.39182854 C68.00240361 71.18768868 68.00201475 75.98341394 67.99632454 80.77930069 C67.99617198 83.06841962 68.00216199 85.35754809 68.01461601 87.64663315 C68.07874018 101.37850388 68.13224897 113.40384746 61.10008717 125.62259865 C54.00458501 138.166991 52.07354888 148.06944033 52.33642578 162.33691406 C52.33593084 164.34656846 52.33095684 166.35622587 52.32191467 168.36585999 C52.31208194 172.64798733 52.33319576 176.92836127 52.37976456 181.21024323 C52.45332041 187.98567475 52.45573452 194.76006694 52.44967651 201.53582764 C52.44839794 212.24639075 52.49430518 222.95613949 52.56059444 233.66647792 C52.67834662 252.87212474 52.72400455 272.07796088 52.73868358 291.28394294 C52.74582698 298.01580819 52.77668391 304.74702584 52.82730412 311.47870016 C52.85543672 315.66036151 52.8675427 319.84196736 52.87589836 324.02371025 C52.88333594 325.95870134 52.8977109 327.89368038 52.91961479 329.82856178 C52.9487591 332.47432486 52.9531114 335.11905562 52.95169067 337.76495361 C52.9735631 338.90600253 52.9735631 338.90600253 52.99587739 340.07010293 C52.94904902 346.4345818 50.92671481 351.56283384 46.75390625 356.3984375 C46.19574219 356.84445312 45.63757812 357.29046875 45.0625 357.75 C44.22912109 358.44222656 44.22912109 358.44222656 43.37890625 359.1484375 C37.15471257 363.21163254 30.70751893 363.06433898 23.5 362.375 C16.5076084 360.48547023 12.32431159 355.6288232 8.43569756 349.77200603 C7.07961088 346.29807588 7.25418435 342.91423882 7.30227661 339.24165344 C7.304951 338.4146631 7.30762539 337.58767276 7.31038082 336.73562211 C7.32148956 333.95944079 7.34671363 331.18356024 7.37158203 328.4074707 C7.38192849 326.41791786 7.39122583 324.42835932 7.39955139 322.438797 C7.41857438 318.14777687 7.44273506 313.8568258 7.47012711 309.56585121 C7.51120029 302.75786835 7.52642618 295.94998374 7.53536987 289.14189148 C7.53698533 287.99117245 7.53860079 286.84045343 7.5402652 285.65486413 C7.54350288 283.30094219 7.54667258 280.94702016 7.54977584 278.59309804 C7.5715443 262.74640808 7.60903721 246.90028042 7.72265625 231.05395508 C7.79910839 220.36423465 7.83212278 209.67531441 7.81675422 198.98531979 C7.81032401 193.33823064 7.8249248 187.69307509 7.89282608 182.04635048 C8.43039608 148.76124 8.43039608 148.76124 -4.23230839 118.57471561 C-7.953189 112.11819331 -7.79364125 105.1424189 -7.7746582 97.87573242 C-7.77976913 96.85525818 -7.78488007 95.83478394 -7.79014587 94.78338623 C-7.80397353 91.43235306 -7.80309127 88.08152693 -7.80078125 84.73046875 C-7.80466984 82.39496281 -7.80900485 80.05945757 -7.81376648 77.72395325 C-7.82121242 72.84109192 -7.82094765 67.95830294 -7.81567383 63.07543945 C-7.80985895 56.80944447 -7.82686679 50.54374313 -7.8500185 44.27779675 C-7.86472004 39.4609249 -7.86563282 34.64412457 -7.86250877 29.82723427 C-7.86302305 27.51589688 -7.86828066 25.20455561 -7.87832069 22.89323997 C-7.89060818 19.67106078 -7.88394133 16.44946424 -7.87231445 13.22729492 C-7.87995819 12.26882156 -7.88760193 11.31034821 -7.89547729 10.3228302 C-7.88846298 9.44678131 -7.88144867 8.57073242 -7.8742218 7.6681366 C-7.87438954 6.90698642 -7.87455729 6.14583624 -7.87473011 5.3616209 C-7.03626301 0.91651169 -4.14850631 -0.04148506 0 0 Z M7.5 75.375 C7.45875 78.943125 7.4175 82.51125 7.375 86.1875 C7.35679199 87.28811768 7.33858398 88.38873535 7.31982422 89.52270508 C7.25345743 101.56613652 9.63388107 110.69842671 15.0625 121.4375 C15.56974609 122.46810547 16.07699219 123.49871094 16.59960938 124.56054688 C17.88727088 127.1718764 19.18866614 129.77550279 20.5 132.375 C22.07559194 135.52618389 21.64645481 138.90425172 21.64476013 142.36445618 C21.64828698 143.19976543 21.65181382 144.03507469 21.65544754 144.89569634 C21.66617115 147.71082455 21.66982186 150.52591896 21.67358398 153.34106445 C21.67988645 155.35292709 21.68665191 157.36478831 21.69384766 159.37664795 C21.70853904 163.71736167 21.72025507 168.05806993 21.72979546 172.39879799 C21.74521779 179.25996572 21.76916675 186.1210869 21.79469299 192.98222351 C21.86597588 212.49552473 21.92569436 232.00885269 21.97680664 251.5222168 C22.00509432 262.29289021 22.04046766 273.06351741 22.08346039 283.83414239 C22.1102634 290.65687417 22.12814992 297.47955364 22.13949764 304.30232775 C22.14861452 308.54616957 22.1659722 312.78994781 22.18567657 317.03375244 C22.19315901 319.00380137 22.19723355 320.97386659 22.19767189 322.94392967 C22.19875262 325.63094396 22.21198445 328.31763394 22.22825623 331.0045929 C22.22433094 332.17716683 22.22433094 332.17716683 22.22032636 333.37342912 C22.27046617 338.6651565 22.68031763 342.55531763 26.5 346.375 C31.18209994 346.88314856 31.18209994 346.88314856 35.375 345.125 C38.09950653 340.88687873 37.62542134 336.13017548 37.584198 331.25942993 C37.58137475 330.43440645 37.5785515 329.60938296 37.5756427 328.75935876 C37.56523017 325.99008646 37.54785258 323.22089866 37.53076172 320.45166016 C37.5223345 318.46708917 37.51450097 316.48251558 37.50721741 314.49794006 C37.49545588 311.32357461 37.48325292 308.14921592 37.46924853 304.97485948 C37.43464039 297.08351502 37.41851978 289.19228914 37.41360474 281.3008728 C37.41287205 280.15416032 37.41213936 279.00744785 37.41138446 277.8259865 C37.40871875 273.09283352 37.40667212 268.35968047 37.4049089 263.62652707 C37.39914047 250.2175515 37.37565103 236.80915912 37.29785156 223.40039062 C37.23614739 212.74475004 37.2139054 202.08982721 37.23666394 191.43402135 C37.24723998 185.80339926 37.23877128 180.17434644 37.18233871 174.54396439 C36.76369665 130.56474421 36.76369665 130.56474421 48.32640457 114.16352463 C53.56512458 106.1798707 52.63614841 95.49958205 52.5625 86.375 C52.541875 82.745 52.52125 79.115 52.5 75.375 C37.65 75.375 22.8 75.375 7.5 75.375 Z " fill="#000000" transform="translate(7.5,74.625)"/>
<path d="M0 0 C0.67224609 -0.020625 1.34449219 -0.04125 2.03710938 -0.0625 C6.92714597 -0.10134835 6.92714597 -0.10134835 9.12832981 1.41403562 C10.96348455 3.98763436 10.81469124 5.80575118 10.81781673 8.95355511 C10.82625668 10.14939934 10.83469662 11.34524358 10.84339231 12.57732552 C10.83759653 13.9110639 10.83151547 15.24480106 10.82518005 16.57853699 C10.82935049 17.99023546 10.8348264 19.40193058 10.84149987 20.81361943 C10.85601225 24.70220263 10.85169176 28.59057493 10.84433305 32.47916996 C10.83961775 36.66951394 10.85209688 40.8598112 10.86235046 45.05014038 C10.87957789 53.26409318 10.88037008 61.47796962 10.87513756 69.6919358 C10.87110083 76.3684824 10.87253351 83.04500638 10.87788582 89.7215519 C10.87863424 90.67078455 10.87938266 91.6200172 10.88015376 92.59801448 C10.88168521 94.52625503 10.88322356 96.45449558 10.88476873 98.38273612 C10.89850882 116.4815729 10.89304621 134.5803665 10.88158352 152.6792023 C10.87165642 169.23765759 10.88458008 185.79600106 10.90851771 202.3544391 C10.93290228 219.34997086 10.94251774 236.34545052 10.93586498 253.34099942 C10.93237045 262.8852506 10.9346199 272.42941583 10.95211601 281.97365379 C10.96683025 290.10140796 10.96748398 298.22901569 10.9500451 306.35676696 C10.941525 310.50359126 10.93940991 314.65015391 10.95469666 318.79696465 C10.96852459 322.59511969 10.96380534 326.39278848 10.94445742 330.19091526 C10.93891022 332.21193671 10.95298507 334.23298278 10.96781152 336.25395745 C10.90223875 344.33093535 10.12232626 349.97988813 4.69140625 356.2734375 C4.13324219 356.71945312 3.57507813 357.16546875 3 357.625 C2.16662109 358.31722656 2.16662109 358.31722656 1.31640625 359.0234375 C-4.90778743 363.08663254 -11.35498107 362.93933898 -18.5625 362.25 C-25.48446563 360.3795012 -30.05996559 355.49301835 -33.62764359 349.44406128 C-34.71326141 346.89617051 -34.78778445 345.12668643 -34.74676514 342.36376953 C-34.73769638 341.38062271 -34.72862762 340.39747589 -34.71928406 339.38453674 C-34.68953239 337.77493324 -34.68953239 337.77493324 -34.65917969 336.1328125 C-34.63337666 333.77742763 -34.60781448 331.42204011 -34.5824585 329.06665039 C-34.56555717 327.81514191 -34.54865585 326.56363342 -34.53124237 325.27420044 C-34.45935025 319.29302867 -34.44112681 313.31169184 -34.41820192 307.33017921 C-34.38268935 298.16577541 -34.33335837 289.0027713 -34.18896484 279.83935547 C-34.09165663 273.65080718 -34.04672337 267.46411434 -34.05756879 261.27478409 C-34.06137359 258.01339137 -34.03397936 254.75752489 -33.95821381 251.49688721 C-33.62418887 236.4961814 -35.02122678 225.827614 -42.56298828 212.7109375 C-51.53638121 196.88420081 -51.48575218 182.16917764 -51.1137414 164.30521011 C-51.0395309 160.04571306 -51.04456594 155.7861615 -51.03903198 151.52612305 C-51.01895429 144.39858426 -50.94736884 137.2731947 -50.83837891 130.14648438 C-50.69920822 121.03228479 -50.64440878 111.9196004 -50.61639595 102.80445862 C-50.59176243 94.89974525 -50.53239694 86.99534885 -50.46562719 79.09089279 C-50.44544057 76.57843928 -50.42924688 74.06598108 -50.41333389 71.55349731 C-50.38575749 67.59981679 -50.33647499 63.64693193 -50.27103806 59.6937027 C-50.24997238 58.25394986 -50.23525132 56.81408625 -50.22773743 55.37419891 C-50.13656888 39.90911235 -45.83508765 26.49669624 -35.3046875 14.90234375 C-25.60531092 5.70315923 -13.3318123 0.15638489 0 0 Z M-22.453125 25.125 C-34.15552863 36.9140881 -34.66105548 50.84815527 -34.89819336 66.49536133 C-34.92082748 67.79769211 -34.94346161 69.10002289 -34.96678162 70.44181824 C-35.16902271 82.46609111 -35.28115784 94.49175147 -35.37000179 106.51733875 C-35.43084346 114.57005408 -35.51785745 122.62062876 -35.67358398 130.67211914 C-35.81013974 137.733142 -35.89468221 144.79268071 -35.92040926 151.85500735 C-35.93554582 155.57427026 -35.97316588 159.2895817 -36.07328606 163.00760841 C-36.52561967 180.53002369 -34.44256281 193.38342487 -25.60929394 208.93952751 C-18.59126583 221.78794492 -18.71024742 233.71635736 -19.046875 248.05859375 C-19.0556626 250.69724963 -19.0586826 253.33529003 -19.05401611 255.97389221 C-19.05483113 262.12712571 -19.12406412 268.27735784 -19.22193456 274.42973524 C-19.36263503 283.49189353 -19.39103414 292.5546299 -19.42609024 301.61769962 C-19.45215643 308.11427746 -19.49378835 314.60974099 -19.5824585 321.1058197 C-19.59533401 322.29137451 -19.60820953 323.47692932 -19.62147522 324.69841003 C-19.64587548 326.90690518 -19.67796878 329.11533441 -19.71928406 331.32357788 C-19.72835281 332.29968521 -19.73742157 333.27579254 -19.74676514 334.28147888 C-19.76574419 335.54739695 -19.76574419 335.54739695 -19.78510666 336.83888912 C-19.42368604 340.75353025 -18.34205128 343.47044872 -15.5625 346.25 C-10.88040006 346.75814856 -10.88040006 346.75814856 -6.6875 345 C-4.40802897 341.45415617 -4.43785332 337.83842231 -4.43945217 333.71339798 C-4.43746112 332.58029701 -4.43547007 331.44719605 -4.43341869 330.27975869 C-4.43633153 329.03463376 -4.43924437 327.78950882 -4.44224548 326.50665283 C-4.44180948 325.17088989 -4.44093403 323.83512702 -4.43965632 322.49936461 C-4.4374171 318.82568276 -4.44142484 315.15202998 -4.44643438 311.47835183 C-4.45074689 307.51792161 -4.44929188 303.55749307 -4.4485321 299.59706116 C-4.44800738 292.73430237 -4.45114883 285.87155309 -4.45676994 279.00879669 C-4.46489188 269.08636411 -4.46750088 259.16393613 -4.46875793 249.24150059 C-4.47094736 233.14358242 -4.47760449 217.04566932 -4.48706055 200.94775391 C-4.49623749 185.30875677 -4.50331694 169.669761 -4.50756836 154.03076172 C-4.50783108 153.06701304 -4.50809381 152.10326436 -4.50836449 151.11031118 C-4.50966951 146.27553871 -4.51093323 141.44076623 -4.51217639 136.60599375 C-4.5225456 96.48732562 -4.54016096 56.36866314 -4.5625 16.25 C-10.7857881 16.25 -17.87173643 21.35591436 -22.453125 25.125 Z " fill="#000000" transform="translate(501.5625,74.75)"/>
<path d="M0 0 C0.70487549 0.00054382 1.40975098 0.00108765 2.13598633 0.00164795 C13.64254381 0.04238432 24.47040719 0.92412045 35.5 4.375 C36.18368652 4.58398926 36.86737305 4.79297852 37.57177734 5.00830078 C68.5372261 14.78339515 93.65043309 36.90220117 108.77661133 65.35571289 C117.82085302 82.98590921 122.12275188 101.33700134 121.9375 121.125 C121.93293793 122.16732788 121.93293793 122.16732788 121.92828369 123.23071289 C121.85469849 134.6472114 120.92313665 145.4340782 117.5 156.375 C117.18651611 157.40052979 117.18651611 157.40052979 116.86669922 158.44677734 C107.52151674 188.0503554 86.0061623 214.23795616 58.48486328 228.65576172 C55.19420624 230.3140394 51.85955646 231.86210456 48.5 233.375 C47.44425781 233.85839844 46.38851562 234.34179688 45.30078125 234.83984375 C17.38620988 246.59899097 -16.64636694 245.82565822 -44.69995117 234.93017578 C-75.69833397 222.05374339 -99.30772489 198.08351596 -112.5 167.375 C-118.51213849 152.50704193 -121.08719582 137.61501667 -120.9375 121.625 C-120.93445862 120.93011475 -120.93141724 120.23522949 -120.92828369 119.51928711 C-120.85473152 108.10791241 -119.93697028 97.30843665 -116.5 86.375 C-116.28569336 85.68599609 -116.07138672 84.99699219 -115.85058594 84.28710938 C-111.32541702 70.23076226 -104.73459163 56.18618834 -94.5 45.375 C-91.69084526 43.97042263 -89.61189466 44.12604843 -86.5 44.375 C-84.1875 45.375 -84.1875 45.375 -82.5 47.375 C-81.39526398 52.16723386 -80.95613631 54.25328115 -83.125 58.7265625 C-83.8980205 59.83099658 -84.69076708 60.92181754 -85.5 62 C-86.3426683 63.2163089 -87.17979461 64.43647352 -88.01171875 65.66015625 C-88.43243652 66.2752002 -88.8531543 66.89024414 -89.28662109 67.52392578 C-103.54443415 89.27497983 -107.17972702 117.69205723 -102.37060547 142.99707031 C-96.60440142 168.48198793 -81.47288629 193.07968194 -59.41015625 207.625 C-45.00595691 216.2868541 -30.39631932 223.33258777 -13.5 225.375 C-12.3965625 225.5090625 -11.293125 225.643125 -10.15625 225.78125 C17.07593025 228.34154045 43.88732014 220.37711062 65.5625 203.625 C74.49234231 196.18825029 82.27899167 188.20922023 88.5 178.375 C89.01046875 177.60929688 89.5209375 176.84359375 90.046875 176.0546875 C104.32862684 153.74865241 108.15687921 125.7089803 103.41674805 99.86938477 C97.73667928 74.00959132 82.20815759 49.57766644 59.9453125 34.921875 C59.13835937 34.41140625 58.33140625 33.9009375 57.5 33.375 C56.73429688 32.86453125 55.96859375 32.3540625 55.1796875 31.828125 C31.96903467 16.96717896 3.08408957 13.49477836 -23.55078125 19.19140625 C-38.04958475 22.78975935 -50.27306976 29.0346656 -62.5 37.375 C-66.12866785 39.7941119 -67.50412503 39.56919324 -71.625 38.91015625 C-73.5 38.375 -73.5 38.375 -75.5 36.6875 C-76.8251184 33.6231637 -76.97322484 31.6875739 -76.5 28.375 C-73.708823 24.24165416 -70.36589912 21.60923652 -66.1875 19 C-65.57430908 18.61424805 -64.96111816 18.22849609 -64.3293457 17.83105469 C-44.57450897 5.6827204 -23.16197862 -0.06730762 0 0 Z " fill="#000000" transform="translate(255.5,134.625)"/>
<path d="M0 0 C0.97984863 0.35408936 0.97984863 0.35408936 1.97949219 0.71533203 C24.53424449 9.07233653 41.78700655 25.20802554 52.81640625 46.5078125 C54.38672558 49.96330215 55.73732575 53.42110766 57 57 C57.61875 58.70736328 57.61875 58.70736328 58.25 60.44921875 C63.66907049 78.15527894 63.32772676 99.58892574 57 117 C56.34644531 118.80597656 56.34644531 118.80597656 55.6796875 120.6484375 C46.86557144 142.85230364 29.6101934 160.85586826 8 171 C3.11005507 173.01559948 -1.90098248 174.59899199 -7 176 C-7.65137939 176.18546387 -8.30275879 176.37092773 -8.97387695 176.56201172 C-24.97370104 180.67808809 -44.49813522 179.63386056 -60 174 C-61.20398438 173.56429687 -62.40796875 173.12859375 -63.6484375 172.6796875 C-76.12112525 167.72849041 -86.46481748 160.37329487 -96 151 C-96.68707031 150.32582031 -97.37414062 149.65164063 -98.08203125 148.95703125 C-116.41833391 129.68040538 -121.68827264 105.68747725 -121.30859375 79.8828125 C-121.04158536 71.6952937 -119.82812429 64.70391128 -117 57 C-116.76394043 56.34676758 -116.52788086 55.69353516 -116.28466797 55.02050781 C-107.92766347 32.46575551 -91.79197446 15.21299345 -70.4921875 4.18359375 C-67.03669785 2.61327442 -63.57889234 1.26267425 -60 0 C-58.86175781 -0.4125 -57.72351563 -0.825 -56.55078125 -1.25 C-38.87630022 -6.65940546 -17.369718 -6.37646511 0 0 Z M-84.3359375 34.23828125 C-100.23431339 50.81491549 -105.70160566 70.60072589 -105.3046875 93.03515625 C-104.55155438 112.85625053 -94.44975985 130.10219152 -80.375 143.625 C-65.06758882 156.93067279 -45.29083445 164.01016001 -25.03125 162.75390625 C-3.6896004 160.6718564 14.7480597 151.03873663 28.83203125 134.8359375 C43.00508382 116.29605252 47.42078782 95.68081641 44.72753906 72.67236328 C41.59028791 54.075485 29.50316818 37.47891545 15 26 C-16.84546541 3.86413147 -56.44242009 7.51088079 -84.3359375 34.23828125 Z " fill="#000000" transform="translate(286,169)"/>
</svg>
